SplineFontDB: 3.0
FontName: VT323
FullName: VT323
FamilyName: VT323
Weight: Medium
Copyright: Created by Peter Hull, with FontForge 2.0 (http://fontforge.sf.net)
UComments: "2011-1-3: Created." 
Version: 001.001
ItalicAngle: 0
UnderlinePosition: -204
UnderlineWidth: 102
Ascent: 1638
Descent: 410
LayerCount: 2
Layer: 0 1 "Back"  1
Layer: 1 1 "Fore"  0
XUID: [1021 167 62782154 7702267]
FSType: 0
OS2Version: 0
OS2_WeightWidthSlopeOnly: 0
OS2_UseTypoMetrics: 1
CreationTime: 1294071703
ModificationTime: 1296738305
PfmFamily: 17
TTFWeight: 500
TTFWidth: 5
LineGap: 0
VLineGap: 0
OS2TypoAscent: 1638
OS2TypoAOffset: 0
OS2TypoDescent: -409
OS2TypoDOffset: 0
OS2TypoLinegap: 0
OS2WinAscent: 1638
OS2WinAOffset: 0
OS2WinDescent: 409
OS2WinDOffset: 0
HheadAscent: 1638
HheadAOffset: 0
HheadDescent: -409
HheadDOffset: 0
OS2Vendor: 'PfEd'
MarkAttachClasses: 1
DEI: 91125
ShortTable: maxp 16
  0
  0
  0
  0
  0
  0
  0
  2
  1
  2
  22
  0
  256
  0
  0
  0
EndShort
TtTable: prep
PUSHW_1
 511
SCANCTRL
PUSHB_1
 1
SCANTYPE
SVTCA[y-axis]
MPPEM
PUSHB_1
 8
LT
IF
PUSHB_2
 1
 1
INSTCTRL
EIF
PUSHB_2
 70
 6
CALL
IF
POP
PUSHB_1
 16
EIF
MPPEM
PUSHB_1
 20
GT
IF
POP
PUSHB_1
 128
EIF
SCVTCI
PUSHB_1
 6
CALL
NOT
IF
EIF
PUSHB_1
 20
CALL
EndTTInstrs
TtTable: fpgm
PUSHB_1
 0
FDEF
PUSHB_1
 0
SZP0
MPPEM
PUSHB_1
 42
LT
IF
PUSHB_1
 74
SROUND
EIF
PUSHB_1
 0
SWAP
MIAP[rnd]
RTG
PUSHB_1
 6
CALL
IF
RTDG
EIF
MPPEM
PUSHB_1
 42
LT
IF
RDTG
EIF
DUP
MDRP[rp0,rnd,grey]
PUSHB_1
 1
SZP0
MDAP[no-rnd]
RTG
ENDF
PUSHB_1
 1
FDEF
DUP
MDRP[rp0,min,white]
PUSHB_1
 12
CALL
ENDF
PUSHB_1
 2
FDEF
MPPEM
GT
IF
RCVT
SWAP
EIF
POP
ENDF
PUSHB_1
 3
FDEF
ROUND[Black]
RTG
DUP
PUSHB_1
 64
LT
IF
POP
PUSHB_1
 64
EIF
ENDF
PUSHB_1
 4
FDEF
PUSHB_1
 6
CALL
IF
POP
SWAP
POP
ROFF
IF
MDRP[rp0,min,rnd,black]
ELSE
MDRP[min,rnd,black]
EIF
ELSE
MPPEM
GT
IF
IF
MIRP[rp0,min,rnd,black]
ELSE
MIRP[min,rnd,black]
EIF
ELSE
SWAP
POP
PUSHB_1
 5
CALL
IF
PUSHB_1
 70
SROUND
EIF
IF
MDRP[rp0,min,rnd,black]
ELSE
MDRP[min,rnd,black]
EIF
EIF
EIF
RTG
ENDF
PUSHB_1
 5
FDEF

StartChar: uni2581
Encoding: 9601 9601 0
Width: 851
VWidth: 0
Flags: W
HStem: 273 171<0 853>
LayerCount: 2
Back
Fore
SplineSet
0 358 m 1,0,-1
 0 444 l 1,1,-1
 427 444 l 1,2,-1
 853 444 l 1,3,-1
 853 358 l 1,4,-1
 853 273 l 1,5,-1
 427 273 l 1,6,-1
 0 273 l 1,7,-1
 0 358 l 1,0,-1
EndSplineSet
EndChar

StartChar: ampersand
Encoding: 38 38 1
Width: 851
VWidth: 0
Flags: W
HStem: -68 170<286.062 455 513 519.967 741 796.917> 444 341<455 512 683 796.924> 614 171<342.039 455> 786 170<227.13 284 569.945 634.104> 956 170<342.062 512 570 577.109>
VStem: 104 190<105.355 439.353> 161 190<446.513 611.488> 217.5 303.5<-65.7344 99.5483> 274.5 303.5<958.069 1123.68> 274.5 246.5<617.388 784.875> 452 118<105.513 268.353 446.069 613.891> 502 190<275.388 442.891> 502 133<787.069 952.678> 616 189.5<-65.9353 102> 616 133<105.069 270.678> 680 120<453 779>
LayerCount: 2
Back
Fore
SplineSet
680 779 m 1,0,-1
 683 785 l 1,1,-1
 739 785 l 2,2,3
 796 785 796 785 798 783 c 0,4,5
 803 774 803 774 805.5 724.5 c 128,-1,6
 808 675 808 675 804 650 c 0,7,8
 804 649 804 649 803 644.5 c 128,-1,9
 802 640 802 640 801 636.5 c 128,-1,10
 800 633 800 633 800 630 c 0,11,12
 798 614 798 614 800 602 c 0,13,14
 807 571 807 571 805.5 512 c 128,-1,15
 804 453 804 453 797 446 c 0,16,17
 795 444 795 444 738 444 c 1,18,-1
 682 445 l 1,19,-1
 679 453 l 1,20,21
 672 479 672 479 672.5 532.5 c 128,-1,22
 673 586 673 586 680 606 c 0,23,24
 682 614 682 614 680 624 c 0,25,26
 673 652 673 652 673 706 c 128,-1,27
 673 760 673 760 680 779 c 1,0,-1
282 1120 m 2,28,-1
 284 1126 l 1,29,-1
 427 1126 l 2,30,31
 568 1126 568 1126 570 1124 c 0,32,33
 576 1114 576 1114 578 1065 c 128,-1,34
 580 1016 580 1016 576 988 c 0,35,36
 571 960 571 960 570 958 c 0,37,38
 568 956 568 956 597 956 c 0,39,40
 624 956 624 956 627 953 c 1,41,42
 633 943 633 943 635 894.5 c 128,-1,43
 637 846 637 846 633 818 c 0,44,45
 628 789 628 789 626 787 c 0,46,47
 625 786 625 786 567 786 c 2,48,-1
 511 786 l 1,49,-1
 509 794 l 2,50,51
 502 820 502 820 502 874 c 128,-1,52
 502 928 502 928 509 948 c 2,53,-1
 512 956 l 1,54,-1
 426 956 l 2,55,56
 413 956 413 956 399.5 956 c 128,-1,57
 386 956 386 956 376 955.5 c 128,-1,58
 366 955 366 955 358 954.5 c 128,-1,59
 350 954 350 954 346 953.5 c 2,60,-1
 342 953 l 1,61,62
 351 937 351 937 351 872 c 0,63,64
 351 803 351 803 342 787 c 1,65,-1
 353 786.5 l 2,66,67
 364 786 364 786 384 785.5 c 128,-1,68
 404 785 404 785 427 785 c 2,69,-1
 512 785 l 1,70,-1
 514 779 l 2,71,72
 521 759 521 759 521 694 c 128,-1,73
 521 629 521 629 513 617 c 1,74,-1
 536.514 614.032 l 1,75,-1
 540 614 l 2,76,77
 568 614 568 614 570 612 c 0,78,79
 576 602 576 602 578 553 c 128,-1,80
 580 504 580 504 576 476 c 0,81,82
 571 448 571 448 570 446 c 1,83,-1
 577 445.5 l 2,84,85
 584 445 584 445 597.5 444.5 c 128,-1,86
 611 444 611 444 626 444 c 2,87,-1
 683 444 l 1,88,-1
 685 437 l 1,89,90
 692 417 692 417 692 352 c 128,-1,91
 692 287 692 287 684 275 c 0,92,93
 682 273 682 273 711 273 c 0,94,95
 739 273 739 273 741 271 c 0,96,97
 747 261 747 261 749 212 c 128,-1,98
 751 163 751 163 747 135 c 0,99,100
 742 107 742 107 741 105 c 1,101,-1
 764.514 102.032 l 1,102,-1
 768 102 l 2,103,104
 796 102 796 102 798 100 c 0,105,106
 803 91 803 91 805.5 41.5 c 128,-1,107
 808 -8 808 -8 804 -33 c 0,108,109
 803 -36 803 -36 802 -43.5 c 128,-1,110
 801 -51 801 -51 801 -53 c 0,111,112
 799 -64 799 -64 797 -66 c 128,-1,113
 795 -68 795 -68 710 -68 c 2,114,-1
 625 -67 l 1,115,-1
 623 -59 l 2,116,117
 616 -34 616 -34 616 20 c 128,-1,118
 616 74 616 74 623 94 c 0,119,120
 625 102 625 102 623 112 c 0,121,122
 616 139 616 139 616 191.5 c 128,-1,123
 616 244 616 244 623 265 c 1,124,-1
 625 273 l 1,125,-1
 597 273 l 2,126,127
 568 273 568 273 570 271 c 0,128,129
 579 255 579 255 579 189 c 0,130,131
 579 121 579 121 570 105 c 1,132,133
 567 102 567 102 540 102 c 0,134,135
 511 102 511 102 513 100 c 0,136,137
 521 86 521 86 521 14 c 128,-1,138
 521 -58 521 -58 513 -66 c 0,139,140
 511 -68 511 -68 368 -68 c 1,141,-1
 226 -67 l 1,142,-1
 224 -59 l 2,143,144
 217 -33 217 -33 217.5 21 c 128,-1,145
 218 75 218 75 225 95 c 1,146,-1
 227 102 l 1,147,-1
 170 103 l 1,148,-1
 113 104 l 1,149,-1
 111 112 l 2,150,151
 104 138 104 138 104 191.5 c 128,-1,152
 104 245 104 245 111 265 c 0,153,154
 113 273 113 273 111 282 c 0,155,156
 98 329 98 329 106 405 c 0,157,158
 109 435 109 435 113 439.5 c 128,-1,159
 117 444 117 444 142 444 c 2,160,-1
 170 444 l 1,161,-1
 168 453 l 2,162,163
 161 481 161 481 161 535 c 128,-1,164
 161 589 161 589 168 608 c 1,165,-1
 171 614 l 1,166,-1
 227 614 l 1,167,-1
 284 614 l 1,168,-1
 281 624 l 1,169,170
 274 651 274 651 274.5 703.5 c 128,-1,171
 275 756 275 756 282 777 c 1,172,-1
 284 785 l 1,173,-1
 255 786 l 1,174,-1
 226 786 l 1,175,-1
 224 794 l 1,176,177
 212 837 212 837 220 917 c 0,178,179
 223 947 223 947 227 951.5 c 128,-1,180
 231 956 231 956 256 956 c 2,181,-1
 284 956 l 1,182,-1
 281 965 l 1,183,184
 274 992 274 992 274.5 1046.5 c 128,-1,185
 275 1101 275 1101 282 1120 c 2,28,-1
452 607 m 1,186,-1
 455 614 l 1,187,-1
 398 614 l 2,188,189
 389 614 389 614 380.5 614 c 128,-1,190
 372 614 372 614 365 613.5 c 128,-1,191
 358 613 358 613 352.5 613 c 128,-1,192
 347 613 347 613 344.5 612.5 c 2,193,-1
 342 612 l 1,194,195
 351 596 351 596 351 530 c 0,196,197
 351 462 351 462 342 446 c 0,198,199
 340 444 340 444 313 444 c 128,-1,200
 285.867 443.885 285.867 443.885 286 441 c 1,201,202
 293 430 293 430 293.5 372.5 c 128,-1,203
 294 315 294 315 288 286 c 0,204,205
 286 273 286 273 288 260 c 1,206,207
 295 230 295 230 294 173 c 128,-1,208
 293 116 293 116 286 105 c 1,209,-1
 290 104.5 l 2,210,211
 294 104 294 104 301.5 103.5 c 128,-1,212
 309 103 309 103 319 102.5 c 128,-1,213
 329 102 329 102 342.5 102 c 128,-1,214
 356 102 356 102 369 102 c 2,215,-1
 455 102 l 1,216,-1
 452 112 l 1,217,218
 439 159 439 159 447 234 c 0,219,220
 450 264 450 264 454 268.5 c 128,-1,221
 458 273 458 273 483 273 c 2,222,-1
 511 273 l 1,223,-1
 509 282 l 2,224,225
 502 309 502 309 502 362 c 128,-1,226
 502 415 502 415 509 436 c 1,227,-1
 512 443 l 1,228,-1
 483 444 l 1,229,-1
 454 445 l 1,230,-1
 452 453 l 2,231,232
 445 478 445 478 445 532 c 128,-1,233
 445 586 445 586 452 607 c 1,186,-1
EndSplineSet
EndChar

StartChar: parenleft
Encoding: 40 40 2
Width: 851
VWidth: 0
Flags: W
HStem: -238 170<512 634.104> -68 170.032<456 520.444> 956 170<463.045 512> 1128 169<512 634.104>
VStem: 275 189<274.125 780.353> 331 133<105.387 272.875 785.406 951.353> 395 125<-65.7671 99.8063 965 1120> 502 133<-236.931 -71.3219 1129.07 1291>
LayerCount: 2
Back
Fore
SplineSet
509 -75 m 2,0,-1
 512 -68 l 1,1,-1
 569 -68 l 2,2,3
 624 -68 624 -68 627 -71 c 1,4,5
 633 -81 633 -81 635 -129.5 c 128,-1,6
 637 -178 637 -178 633 -206 c 0,7,8
 628 -235 628 -235 626 -237 c 0,9,10
 625 -238 625 -238 567 -238 c 2,11,-1
 511 -238 l 1,12,-1
 509 -230 l 2,13,14
 502 -204 502 -204 502 -148.5 c 128,-1,15
 502 -93 502 -93 509 -75 c 2,0,-1
396 1120 m 2,16,-1
 398 1126 l 1,17,-1
 455 1126 l 1,18,-1
 512 1126 l 1,19,-1
 514 1120 l 2,20,21
 521 1100 521 1100 521 1035 c 128,-1,22
 521 970 521 970 513 958 c 0,23,24
 511 956 511 956 483 956 c 0,25,26
 455.867 955.885 455.867 955.885 456 953 c 1,27,28
 463 942 463 942 464 884.5 c 128,-1,29
 465 827 465 827 459 798 c 0,30,31
 457 785 457 785 459 772 c 0,32,33
 464 746 464 746 464 699 c 128,-1,34
 464 652 464 652 459 627 c 0,35,36
 457 614 457 614 459 602 c 0,37,38
 464 576 464 576 464 529 c 128,-1,39
 464 482 464 482 459 457 c 0,40,41
 457 444 457 444 459 431 c 0,42,43
 465 402 465 402 464.5 344.5 c 128,-1,44
 464 287 464 287 457 276 c 0,45,46
 456 275 456 275 456.5 271.5 c 128,-1,47
 457 268 457 268 458 264 c 0,48,49
 465 239 465 239 464 178 c 128,-1,50
 463 117 463 117 456 105 c 1,51,-1
 479.514 102.032 l 1,52,-1
 483 102 l 2,53,54
 511 102 511 102 513 100 c 0,55,56
 517 94 517 94 520 62.5 c 128,-1,57
 523 31 523 31 522 6 c 0,58,59
 520 -59 520 -59 513 -66 c 0,60,61
 511 -68 511 -68 454 -68 c 2,62,-1
 397 -67 l 1,63,-1
 395 -59 l 2,64,65
 388 -34 388 -34 388 20 c 128,-1,66
 388 74 388 74 395 94 c 2,67,-1
 398 102 l 1,68,-1
 369 103 l 1,69,-1
 340 104 l 1,70,-1
 338 112 l 2,71,72
 331 138 331 138 331 191.5 c 128,-1,73
 331 245 331 245 338 265 c 2,74,-1
 341 273 l 1,75,-1
 312 274 l 1,76,-1
 283 274 l 1,77,-1
 281 282 l 2,78,79
 274 308 274 308 274.5 362 c 128,-1,80
 275 416 275 416 282 436 c 0,81,82
 284 444 284 444 282 453 c 0,83,84
 275 480 275 480 275 532.5 c 128,-1,85
 275 585 275 585 282 606 c 0,86,87
 284 614 284 614 282 624 c 0,88,89
 269 671 269 671 277 746 c 0,90,91
 280 776 280 776 284 780.5 c 128,-1,92
 288 785 288 785 313 785 c 2,93,-1
 341 785 l 1,94,-1
 338 794 l 1,95,96
 325 841 325 841 333 917 c 0,97,98
 336 947 336 947 340 951.5 c 128,-1,99
 344 956 344 956 369 956 c 2,100,-1
 398 956 l 1,101,-1
 395 965 l 1,102,103
 388 992 388 992 388.5 1046.5 c 128,-1,104
 389 1101 389 1101 396 1120 c 2,16,-1
509 1291 m 1,105,-1
 512 1297 l 1,106,-1
 569 1297 l 2,107,108
 625 1297 625 1297 627 1295 c 0,109,110
 633 1285 633 1285 635 1236 c 128,-1,111
 637 1187 637 1187 633 1159 c 0,112,113
 628 1131 628 1131 626 1129 c 128,-1,114
 624 1127 624 1127 567 1127 c 1,115,-1
 511 1128 l 1,116,-1
 509 1136 l 2,117,118
 502 1162 502 1162 502 1217.5 c 128,-1,119
 502 1273 502 1273 509 1291 c 1,105,-1
EndSplineSet
EndChar

StartChar: ordfeminine
Encoding: 170 170 3
Width: 851
VWidth: 0
Flags: W
HStem: 104 169<228 690.567> 444 170<341.973 568> 615 170<227.13 284> 785 171<342.039 568> 1128 169<284 569>
VStem: 274.5 417.5<446.262 613.86 785.406 955.772> 559 133<614.25 783.875>
LayerCount: 2
Back
Fore
SplineSet
225 267 m 1,0,-1
 228 273 l 1,1,-1
 455 273 l 2,2,3
 682 273 682 273 684 271 c 0,4,5
 689 262 689 262 691.5 212.5 c 128,-1,6
 694 163 694 163 690 138 c 0,7,8
 689 135 689 135 688 127.5 c 128,-1,9
 687 120 687 120 687 118 c 0,10,11
 685 107 685 107 683 105 c 128,-1,12
 681 103 681 103 454 103 c 2,13,-1
 226 104 l 1,14,-1
 224 112 l 2,15,16
 217 138 217 138 217.5 193.5 c 128,-1,17
 218 249 218 249 225 267 c 1,0,-1
282 1291 m 2,18,-1
 284 1297 l 1,19,-1
 455 1297 l 2,20,21
 625 1297 625 1297 627 1295 c 0,22,23
 633 1285 633 1285 635 1236 c 128,-1,24
 637 1187 637 1187 633 1159 c 0,25,26
 628 1131 628 1131 627 1129 c 1,27,-1
 650.514 1126.03 l 1,28,-1
 654 1126 l 2,29,30
 682 1126 682 1126 684 1124 c 0,31,32
 685 1123 685 1123 687 1112 c 0,33,34
 700 1043 700 1043 686 969 c 0,35,36
 684 958 684 958 687 943 c 0,37,38
 692 917 692 917 692 870.5 c 128,-1,39
 692 824 692 824 687 798 c 0,40,41
 685 785 685 785 687 772 c 0,42,43
 692 746 692 746 692 699 c 128,-1,44
 692 652 692 652 687 627 c 0,45,46
 685 614 685 614 687 602 c 0,47,48
 694 571 694 571 692.5 512.5 c 128,-1,49
 691 454 691 454 683 446 c 0,50,51
 681 444 681 444 482 444 c 2,52,-1
 283 445 l 1,53,-1
 281 453 l 2,54,55
 274 479 274 479 274.5 532.5 c 128,-1,56
 275 586 275 586 282 606 c 1,57,-1
 284 614 l 1,58,-1
 255 615 l 1,59,-1
 226 616 l 1,60,-1
 224 624 l 1,61,62
 212 667 212 667 220 746 c 0,63,64
 223 776 223 776 227 780.5 c 128,-1,65
 231 785 231 785 256 785 c 2,66,-1
 284 785 l 1,67,-1
 281 794 l 1,68,69
 274 821 274 821 274.5 875.5 c 128,-1,70
 275 930 275 930 282 949 c 1,71,-1
 284 956 l 1,72,-1
 426 956 l 1,73,-1
 568 956 l 1,74,-1
 566 965 l 2,75,76
 559 992 559 992 559 1045 c 128,-1,77
 559 1098 559 1098 566 1119 c 1,78,-1
 569 1126 l 1,79,-1
 426 1127 l 1,80,-1
 283 1128 l 1,81,-1
 281 1136 l 2,82,83
 274 1162 274 1162 274.5 1217.5 c 128,-1,84
 275 1273 275 1273 282 1291 c 2,18,-1
566 777 m 2,85,-1
 569 785 l 1,86,-1
 455 785 l 2,87,88
 442 785 442 785 429 785 c 128,-1,89
 416 785 416 785 405 785 c 128,-1,90
 394 785 394 785 384 784.5 c 128,-1,91
 374 784 374 784 366.5 784 c 128,-1,92
 359 784 359 784 353 784 c 128,-1,93
 347 784 347 784 344.5 783.5 c 2,94,-1
 342 783 l 1,95,96
 351 767 351 767 351 701 c 0,97,98
 351 633 351 633 342 617 c 0,99,100
 341 616 341 616 356 615.5 c 128,-1,101
 371 615 371 615 398.5 614.5 c 128,-1,102
 426 614 426 614 455 614 c 2,103,-1
 568 614 l 1,104,-1
 566 624 l 1,105,106
 559 651 559 651 559 703.5 c 128,-1,107
 559 756 559 756 566 777 c 2,85,-1
EndSplineSet
EndChar

StartChar: igrave
Encoding: 236 236 4
Width: 851
VWidth: 0
Flags: W
HStem: -67 169<228 398 570 748.104> 616 169<284 398> 956 170<456.039 568.917> 1128 169<284 396.453>
VStem: 281 175<1129.06 1291> 388 190<105.355 613.891 958.065 1119>
LayerCount: 2
Back
Fore
SplineSet
282 779 m 2,0,-1
 284 785 l 1,1,-1
 427 785 l 2,2,3
 568 785 568 785 570 783 c 0,4,5
 571 782 571 782 573 771 c 0,6,7
 586 699 586 699 573 627 c 0,8,9
 571 614 571 614 573 602 c 0,10,11
 578 576 578 576 578 529 c 128,-1,12
 578 482 578 482 573 457 c 0,13,14
 571 444 571 444 573 431 c 0,15,16
 578 405 578 405 578 358.5 c 128,-1,17
 578 312 578 312 573 286 c 0,18,19
 571 273 571 273 573 260 c 1,20,21
 580 230 580 230 579 173 c 128,-1,22
 578 116 578 116 570 105 c 1,23,-1
 574 104.5 l 2,24,25
 578 104 578 104 586 103.5 c 128,-1,26
 594 103 594 103 604 102.5 c 128,-1,27
 614 102 614 102 627.5 102 c 128,-1,28
 641 102 641 102 654 102 c 0,29,30
 739 102 739 102 741 100 c 0,31,32
 747 90 747 90 749 41 c 128,-1,33
 751 -8 751 -8 747 -36 c 0,34,35
 742 -64 742 -64 740 -66 c 128,-1,36
 738 -68 738 -68 482 -68 c 2,37,-1
 226 -67 l 1,38,-1
 224 -59 l 2,39,40
 217 -33 217 -33 217.5 22.5 c 128,-1,41
 218 78 218 78 225 96 c 1,42,-1
 228 102 l 1,43,-1
 313 102 l 1,44,-1
 398 102 l 1,45,-1
 395 112 l 1,46,47
 388 139 388 139 388 191.5 c 128,-1,48
 388 244 388 244 395 265 c 0,49,50
 397 273 397 273 395 282 c 0,51,52
 388 309 388 309 388 362 c 128,-1,53
 388 415 388 415 395 436 c 0,54,55
 397 444 397 444 395 453 c 0,56,57
 388 480 388 480 388 533 c 128,-1,58
 388 586 388 586 395 607 c 1,59,-1
 398 614 l 1,60,-1
 341 615 l 1,61,-1
 283 616 l 1,62,-1
 281 624 l 2,63,64
 274 650 274 650 274.5 705.5 c 128,-1,65
 275 761 275 761 282 779 c 2,0,-1
282 1291 m 2,66,-1
 284 1297 l 1,67,-1
 370 1297 l 2,68,69
 454 1297 454 1297 456 1295 c 0,70,71
 461 1286 461 1286 463.5 1236.5 c 128,-1,72
 466 1187 466 1187 462 1162 c 0,73,74
 461 1160 461 1160 460.5 1152.5 c 128,-1,75
 460 1145 460 1145 460 1142 c 0,76,77
 458 1131 458 1131 456 1129 c 1,78,-1
 458.5 1128.5 l 2,79,80
 461 1128 461 1128 466 1127.5 c 128,-1,81
 471 1127 471 1127 478 1126.5 c 128,-1,82
 485 1126 485 1126 494 1126 c 128,-1,83
 503 1126 503 1126 512 1126 c 0,84,85
 568 1126 568 1126 570 1124 c 0,86,87
 575 1115 575 1115 577.5 1065.5 c 128,-1,88
 580 1016 580 1016 576 991 c 0,89,90
 575 988 575 988 574 980.5 c 128,-1,91
 573 973 573 973 573 971 c 0,92,93
 571 960 571 960 569 958 c 128,-1,94
 567 956 567 956 482 956 c 2,95,-1
 397 957 l 1,96,-1
 395 965 l 2,97,98
 388 990 388 990 388 1044.5 c 128,-1,99
 388 1099 388 1099 395 1119 c 1,100,-1
 398 1126 l 1,101,-1
 341 1127 l 1,102,-1
 283 1128 l 1,103,-1
 281 1136 l 2,104,105
 274 1162 274 1162 274.5 1217.5 c 128,-1,106
 275 1273 275 1273 282 1291 c 2,66,-1
EndSplineSet
EndChar

StartChar: ograve
Encoding: 242 242 5
Width: 851
VWidth: 0
Flags: W
HStem: -68 170<341.973 568> 274 170<113 170 740.945 797.9> 614 171<342.039 569> 956 170<456.039 568.917> 1128 169<284 396.453>
VStem: 106 188<275.451 439.353> 161 190<105.069 270.678 446.513 611.488> 274.5 360<-65.7344 99.5483 617.069 782.678> 274.5 185.5<1129.06 1291> 395 179<958.065 1119> 566 175<105.451 268.353 446.069 613.891> 616 182<273.141 440.678>
LayerCount: 2
Back
Fore
SplineSet
282 779 m 2,0,-1
 284 785 l 1,1,-1
 455 785 l 2,2,3
 625 785 625 785 627 783 c 0,4,5
 633 773 633 773 635 724 c 128,-1,6
 637 675 637 675 633 647 c 0,7,8
 628 619 628 619 627 617 c 1,9,-1
 629.5 616.5 l 2,10,11
 632 616 632 616 637 615.5 c 128,-1,12
 642 615 642 615 649 614.5 c 128,-1,13
 656 614 656 614 664.5 614 c 128,-1,14
 673 614 673 614 682 614 c 0,15,16
 739 614 739 614 741 612 c 0,17,18
 747 602 747 602 749 553 c 128,-1,19
 751 504 751 504 747 476 c 0,20,21
 742 448 742 448 741 446 c 0,22,23
 739 444 739 444 768 444 c 0,24,25
 795 444 795 444 798 441 c 1,26,27
 804 431 804 431 806 382.5 c 128,-1,28
 808 334 808 334 803 306 c 0,29,30
 801 296 801 296 800 288.5 c 128,-1,31
 799 281 799 281 798.5 278.5 c 128,-1,32
 798 276 798 276 798 275 c 0,33,34
 796 273 796 273 768 273 c 0,35,36
 739 273 739 273 741 271 c 0,37,38
 749 257 749 257 749 189 c 0,39,40
 749 119 749 119 741 105 c 1,41,42
 738 102 738 102 682 102 c 0,43,44
 667 102 667 102 654 101.5 c 128,-1,45
 641 101 641 101 634 100.5 c 2,46,-1
 627 100 l 1,47,48
 635 86 635 86 634.5 14 c 128,-1,49
 634 -58 634 -58 626 -66 c 0,50,51
 624 -68 624 -68 454 -68 c 2,52,-1
 283 -67 l 1,53,-1
 281 -59 l 2,54,55
 274 -33 274 -33 274.5 21 c 128,-1,56
 275 75 275 75 282 95 c 1,57,-1
 284 102 l 1,58,-1
 227 103 l 1,59,-1
 170 104 l 1,60,-1
 167 112 l 1,61,62
 160 138 160 138 160.5 191.5 c 128,-1,63
 161 245 161 245 168 265 c 1,64,-1
 170 273 l 1,65,-1
 142 274 l 1,66,-1
 113 274 l 1,67,-1
 111 282 l 1,68,69
 98 328 98 328 106 405 c 0,70,71
 109 435 109 435 113 439.5 c 128,-1,72
 117 444 117 444 142 444 c 2,73,-1
 170 444 l 1,74,-1
 168 453 l 2,75,76
 161 481 161 481 161 535 c 128,-1,77
 161 589 161 589 168 608 c 1,78,-1
 171 614 l 1,79,-1
 227 614 l 1,80,-1
 284 614 l 1,81,-1
 281 624 l 1,82,83
 274 651 274 651 274.5 705.5 c 128,-1,84
 275 760 275 760 282 779 c 2,0,-1
566 607 m 1,85,-1
 569 614 l 1,86,-1
 455 614 l 2,87,88
 442 614 442 614 429 614 c 128,-1,89
 416 614 416 614 405 614 c 128,-1,90
 394 614 394 614 384 613.5 c 128,-1,91
 374 613 374 613 366.5 613 c 128,-1,92
 359 613 359 613 353 613 c 128,-1,93
 347 613 347 613 344.5 612.5 c 2,94,-1
 342 612 l 1,95,96
 351 596 351 596 351 530 c 0,97,98
 351 462 351 462 342 446 c 0,99,100
 340 444 340 444 313 444 c 128,-1,101
 285.867 443.885 285.867 443.885 286 441 c 1,102,103
 294 427 294 427 294 360 c 0,104,105
 294 289 294 289 286 275 c 0,106,107
 284 273 284 273 313 273 c 0,108,109
 340 273 340 273 342 271 c 0,110,111
 348 261 348 261 350 212 c 128,-1,112
 352 163 352 163 348 135 c 0,113,114
 343 107 343 107 342 105 c 0,115,116
 341 104 341 104 356 103.5 c 128,-1,117
 371 103 371 103 398.5 102.5 c 128,-1,118
 426 102 426 102 455 102 c 2,119,-1
 568 102 l 1,120,-1
 566 112 l 1,121,122
 553 159 553 159 561 234 c 0,123,124
 564 264 564 264 568 268.5 c 128,-1,125
 572 273 572 273 597 273 c 2,126,-1
 625 273 l 1,127,-1
 623 282 l 2,128,129
 616 309 616 309 616 362 c 128,-1,130
 616 415 616 415 623 436 c 2,131,-1
 625 443 l 1,132,-1
 597 444 l 1,133,-1
 568 445 l 1,134,-1
 566 453 l 2,135,136
 559 478 559 478 559 532 c 128,-1,137
 559 586 559 586 566 607 c 1,85,-1
282 1291 m 2,138,-1
 284 1297 l 1,139,-1
 370 1297 l 2,140,141
 454 1297 454 1297 456 1295 c 0,142,143
 461 1286 461 1286 463.5 1236.5 c 128,-1,144
 466 1187 466 1187 462 1162 c 0,145,146
 461 1160 461 1160 460.5 1152.5 c 128,-1,147
 460 1145 460 1145 460 1142 c 0,148,149
 458 1131 458 1131 456 1129 c 1,150,-1
 458.5 1128.5 l 2,151,152
 461 1128 461 1128 466 1127.5 c 128,-1,153
 471 1127 471 1127 478 1126.5 c 128,-1,154
 485 1126 485 1126 494 1126 c 128,-1,155
 503 1126 503 1126 512 1126 c 0,156,157
 568 1126 568 1126 570 1124 c 0,158,159
 575 1115 575 1115 577.5 1065.5 c 128,-1,160
 580 1016 580 1016 576 991 c 0,161,162
 575 988 575 988 574 980.5 c 128,-1,163
 573 973 573 973 573 971 c 0,164,165
 571 960 571 960 569 958 c 128,-1,166
 567 956 567 956 482 956 c 2,167,-1
 397 957 l 1,168,-1
 395 965 l 2,169,170
 388 990 388 990 388 1044.5 c 128,-1,171
 388 1099 388 1099 395 1119 c 1,172,-1
 398 1126 l 1,173,-1
 341 1127 l 1,174,-1
 283 1128 l 1,175,-1
 281 1136 l 2,176,177
 274 1162 274 1162 274.5 1217.5 c 128,-1,178
 275 1273 275 1273 282 1291 c 2,138,-1
EndSplineSet
EndChar

StartChar: lessequal
Encoding: 8804 8804 6
Width: 851
VWidth: 0
Flags: W
HStem: -67 169<171 747.567> 274 170.5<399 740.866> 614 342<399.039 510.793> 785 341<513.039 626.924> 956 170<627.016 748.104>
VStem: 161 247<446 608> 281 232<614.059 779> 388.5 246.5<785.141 952.55> 502 247<956.141 1120>
LayerCount: 2
Back
Fore
SplineSet
168 96 m 1,0,-1
 171 102 l 1,1,-1
 455 102 l 2,2,3
 739 102 739 102 741 100 c 0,4,5
 746 91 746 91 748.5 41.5 c 128,-1,6
 751 -8 751 -8 747 -33 c 0,7,8
 746 -36 746 -36 745 -43.5 c 128,-1,9
 744 -51 744 -51 744 -53 c 0,10,11
 742 -64 742 -64 740 -66 c 128,-1,12
 738 -68 738 -68 454 -68 c 2,13,-1
 170 -67 l 1,14,-1
 167 -59 l 1,15,16
 160 -33 160 -33 160.5 22.5 c 128,-1,17
 161 78 161 78 168 96 c 1,0,-1
509 1120 m 1,18,-1
 512 1126 l 1,19,-1
 626 1126 l 2,20,21
 739 1126 739 1126 741 1124 c 0,22,23
 747 1114 747 1114 749 1065 c 128,-1,24
 751 1016 751 1016 747 988 c 0,25,26
 742 960 742 960 741 958 c 0,27,28
 739 956 739 956 682 956 c 0,29,30
 676 956 676 956 669.5 956 c 128,-1,31
 663 956 663 956 657.5 955.5 c 128,-1,32
 652 955 652 955 647 955 c 128,-1,33
 642 955 642 955 638.5 954.5 c 128,-1,34
 635 954 635 954 632 954 c 128,-1,35
 629 954 629 954 628 953.5 c 2,36,-1
 627 953 l 1,37,38
 635 939 635 939 635 872 c 0,39,40
 635 801 635 801 627 787 c 0,41,42
 625 785 625 785 569 785 c 0,43,44
 560 785 560 785 551.5 785 c 128,-1,45
 543 785 543 785 536 784.5 c 128,-1,46
 529 784 529 784 523.5 784 c 128,-1,47
 518 784 518 784 515.5 783.5 c 2,48,-1
 513 783 l 1,49,50
 522 767 522 767 522 701 c 0,51,52
 522 633 522 633 513 617 c 1,53,54
 510 614 510 614 455 614 c 0,55,56
 446 614 446 614 437.5 614 c 128,-1,57
 429 614 429 614 422 613.5 c 128,-1,58
 415 613 415 613 409.5 613 c 128,-1,59
 404 613 404 613 401.5 612.5 c 2,60,-1
 399 612 l 1,61,62
 408 596 408 596 408 530 c 0,63,64
 408 462 408 462 399 446 c 1,65,-1
 421.5 445.5 l 2,66,67
 444 445 444 445 483.5 444.5 c 128,-1,68
 523 444 523 444 569 444 c 0,69,70
 738 444 738 444 741 441 c 1,71,72
 746 432 746 432 748.5 382.5 c 128,-1,73
 751 333 751 333 747 308 c 0,74,75
 746 305 746 305 745 298 c 128,-1,76
 744 291 744 291 744 289 c 0,77,78
 742 277 742 277 740 275 c 0,79,80
 739 274 739 274 454 274 c 2,81,-1
 170 274 l 1,82,-1
 167 282 l 1,83,84
 160 308 160 308 160.5 362 c 128,-1,85
 161 416 161 416 168 436 c 0,86,87
 170 444 170 444 168 453 c 0,88,89
 161 481 161 481 161 535 c 128,-1,90
 161 589 161 589 168 608 c 1,91,-1
 171 614 l 1,92,-1
 227 614 l 1,93,-1
 284 614 l 1,94,-1
 281 624 l 1,95,96
 274 651 274 651 274.5 705.5 c 128,-1,97
 275 760 275 760 282 779 c 2,98,-1
 284 785 l 1,99,-1
 341 785 l 1,100,-1
 398 785 l 1,101,-1
 395 794 l 1,102,103
 388 821 388 821 388.5 875.5 c 128,-1,104
 389 930 389 930 396 949 c 1,105,-1
 398 956 l 1,106,-1
 455 956 l 1,107,-1
 511 956 l 1,108,-1
 509 965 l 2,109,110
 502 993 502 993 502 1047 c 128,-1,111
 502 1101 502 1101 509 1120 c 1,18,-1
EndSplineSet
EndChar

StartChar: SF020000
Encoding: 9492 9492 7
Width: 851
VWidth: 0
Flags: W
HStem: 615 170<513 853>
VStem: 388 465<616.125 784.985> 395 121<787 1632>
LayerCount: 2
Back
Fore
SplineSet
396 1632 m 2,0,-1
 398 1638 l 1,1,-1
 455 1638 l 2,2,3
 511 1638 511 1638 513 1636 c 0,4,5
 514 1635 514 1635 516 1624 c 0,6,7
 529 1552 529 1552 516 1481 c 0,8,9
 514 1467 514 1467 516 1455 c 0,10,11
 521 1429 521 1429 521 1382.5 c 128,-1,12
 521 1336 521 1336 516 1310 c 0,13,14
 514 1297 514 1297 516 1284 c 0,15,16
 521 1258 521 1258 521 1211 c 128,-1,17
 521 1164 521 1164 516 1139 c 0,18,19
 514 1126 514 1126 516 1114 c 0,20,21
 521 1088 521 1088 521 1041 c 128,-1,22
 521 994 521 994 516 969 c 0,23,24
 514 956 514 956 516 943 c 1,25,26
 523 913 523 913 522 855.5 c 128,-1,27
 521 798 521 798 513 787 c 1,28,-1
 535.5 786.5 l 2,29,30
 558 786 558 786 597.5 785.5 c 128,-1,31
 637 785 637 785 683 785 c 2,32,-1
 853 785 l 1,33,-1
 853 700 l 1,34,-1
 853 614 l 1,35,-1
 625 615 l 1,36,-1
 397 616 l 1,37,-1
 395 624 l 2,38,39
 388 650 388 650 388 703.5 c 128,-1,40
 388 757 388 757 395 777 c 0,41,42
 397 785 397 785 395 794 c 0,43,44
 388 821 388 821 388 874 c 128,-1,45
 388 927 388 927 395 948 c 0,46,47
 397 956 397 956 395 965 c 0,48,49
 388 992 388 992 388 1044.5 c 128,-1,50
 388 1097 388 1097 395 1118 c 0,51,52
 397 1126 397 1126 395 1136 c 0,53,54
 388 1163 388 1163 388 1215.5 c 128,-1,55
 388 1268 388 1268 395 1289 c 0,56,57
 397 1297 397 1297 395 1306 c 0,58,59
 388 1333 388 1333 388 1386 c 128,-1,60
 388 1439 388 1439 395 1460 c 0,61,62
 397 1468 397 1468 395 1477 c 0,63,64
 388 1504 388 1504 388.5 1558.5 c 128,-1,65
 389 1613 389 1613 396 1632 c 2,0,-1
EndSplineSet
EndChar

StartChar: percent
Encoding: 37 37 8
Width: 851
VWidth: 0
Flags: W
HStem: -68 170<227.13 284 627 681.957> 102 171<340 341 511 568 741.051 797.9> 786 170<113 170 342.945 398.9 568 568> 956 170<236.055 282.453 634.055 691.104>
VStem: 106 131<787.451 951.353> 160.5 189.5<624 782.579 958.034 1120> 274 129<788.034 948> 333 132<275.513 439.353> 390 132<446.513 609.869> 452 118<617.513 780.353> 504 131<105.451 268.353 787.451 951.353> 559 189.5<-65.7344 101.875 276.034 437> 559 133<956.141 1120> 673 128<105.034 273>
LayerCount: 2
Back
Fore
SplineSet
566 437 m 1,0,-1
 569 444 l 1,1,-1
 654 444 l 2,2,3
 738 444 738 444 741 441 c 1,4,5
 746 432 746 432 748.5 382.5 c 128,-1,6
 751 333 751 333 747 308 c 0,7,8
 746 306 746 306 745 298 c 128,-1,9
 744 290 744 290 744 289 c 0,10,11
 742 277 742 277 741 276 c 1,12,-1
 764.514 273.032 l 1,13,-1
 768 273 l 2,14,15
 796 273 796 273 798 271 c 0,16,17
 803 262 803 262 805.5 212.5 c 128,-1,18
 808 163 808 163 804 138 c 0,19,20
 803 136 803 136 802 128 c 128,-1,21
 801 120 801 120 801 118 c 0,22,23
 799 106 799 106 798 105 c 0,24,25
 795 102 795 102 768 102 c 0,26,27
 739 102 739 102 741 100 c 0,28,29
 749 86 749 86 748.5 14 c 128,-1,30
 748 -58 748 -58 740 -66 c 0,31,32
 738 -68 738 -68 653 -68 c 2,33,-1
 568 -67 l 1,34,-1
 566 -59 l 2,35,36
 559 -34 559 -34 559 20 c 128,-1,37
 559 74 559 74 566 94 c 2,38,-1
 569 102 l 1,39,-1
 540 103 l 1,40,-1
 511 104 l 1,41,-1
 509 112 l 1,42,43
 496 158 496 158 504 234 c 0,44,45
 507 264 507 264 511 268.5 c 128,-1,46
 515 273 515 273 540 273 c 2,47,-1
 568 273 l 1,48,-1
 566 282 l 2,49,50
 559 310 559 310 559 364 c 128,-1,51
 559 418 559 418 566 437 c 1,0,-1
680 265 m 1,52,-1
 682 273 l 1,53,-1
 654 273 l 2,54,55
 625 273 625 273 627 271 c 0,56,57
 635 257 635 257 635 189 c 0,58,59
 635 119 635 119 627 105 c 1,60,-1
 650.514 102.032 l 1,61,-1
 654 102 l 1,62,-1
 682 102 l 1,63,-1
 680 112 l 1,64,65
 673 139 673 139 673 191.5 c 128,-1,66
 673 244 673 244 680 265 c 1,52,-1
566 1120 m 1,67,-1
 569 1126 l 1,68,-1
 626 1126 l 2,69,70
 682 1126 682 1126 684 1124 c 0,71,72
 690 1114 690 1114 692 1065 c 128,-1,73
 694 1016 694 1016 690 988 c 0,74,75
 685 960 685 960 684 958 c 0,76,77
 682 956 682 956 654 956 c 0,78,79
 626.867 955.885 626.867 955.885 627 953 c 1,80,81
 635 939 635 939 635 872 c 0,82,83
 635 801 635 801 627 787 c 0,84,85
 625 785 625 785 597 785 c 0,86,87
 568 785 568 785 570 783 c 0,88,89
 579 767 579 767 579 701 c 0,90,91
 579 633 579 633 570 617 c 1,92,93
 567 614 567 614 540 614 c 0,94,95
 511 614 511 614 513 612 c 0,96,97
 522 596 522 596 522 530 c 0,98,99
 522 462 522 462 513 446 c 0,100,101
 511 444 511 444 483 444 c 0,102,103
 455.867 443.885 455.867 443.885 456 441 c 1,104,105
 465 425 465 425 465 360 c 0,106,107
 465 291 465 291 456 275 c 0,108,109
 454 273 454 273 426 273 c 0,110,111
 397 273 397 273 399 271 c 0,112,113
 408 255 408 255 408 189 c 0,114,115
 408 121 408 121 399 105 c 1,116,117
 396 102 396 102 369 102 c 0,118,119
 340 102 340 102 342 100 c 0,120,121
 350 86 350 86 350 14 c 128,-1,122
 350 -58 350 -58 342 -66 c 0,123,124
 340 -68 340 -68 283 -68 c 2,125,-1
 226 -67 l 1,126,-1
 224 -59 l 1,127,128
 212 -16 212 -16 220 64 c 0,129,130
 223 94 223 94 227 98 c 128,-1,131
 231 102 231 102 256 102 c 2,132,-1
 284 102 l 1,133,-1
 281 112 l 1,134,135
 269 156 269 156 277 234 c 0,136,137
 280 264 280 264 284 268.5 c 128,-1,138
 288 273 288 273 313 273 c 2,139,-1
 341 273 l 1,140,-1
 338 282 l 1,141,142
 325 329 325 329 333 405 c 0,143,144
 336 435 336 435 340 439.5 c 128,-1,145
 344 444 344 444 369 444 c 2,146,-1
 398 444 l 1,147,-1
 395 453 l 1,148,149
 382 500 382 500 390 576 c 0,150,151
 393 606 393 606 397 610 c 128,-1,152
 401 614 401 614 426 614 c 2,153,-1
 455 614 l 1,154,-1
 452 624 l 1,155,156
 439 671 439 671 447 746 c 0,157,158
 450 776 450 776 454 780.5 c 128,-1,159
 458 785 458 785 483 785 c 2,160,-1
 511 785 l 1,161,-1
 509 794 l 1,162,163
 496 841 496 841 504 917 c 0,164,165
 507 947 507 947 511 951.5 c 128,-1,166
 515 956 515 956 540 956 c 2,167,-1
 568 956 l 1,168,-1
 566 965 l 2,169,170
 559 993 559 993 559 1047 c 128,-1,171
 559 1101 559 1101 566 1120 c 1,67,-1
168 1120 m 1,172,-1
 171 1126 l 1,173,-1
 256 1126 l 2,174,175
 340 1126 340 1126 342 1124 c 0,176,177
 347 1115 347 1115 350 1065.5 c 128,-1,178
 353 1016 353 1016 349 991 c 0,179,180
 348 989 348 989 347 981.5 c 128,-1,181
 346 974 346 974 346 972 c 0,182,183
 344 959 344 959 343 958 c 0,184,185
 341 956 341 956 369 956 c 0,186,187
 396 956 396 956 399 953 c 1,188,189
 404 944 404 944 407 894.5 c 128,-1,190
 410 845 410 845 406 820 c 0,191,192
 405 818 405 818 404 810 c 128,-1,193
 403 802 403 802 403 801 c 0,194,195
 401 789 401 789 400 788 c 0,196,197
 397 785 397 785 369 785 c 0,198,199
 340 785 340 785 342 783 c 0,200,201
 350 770 350 770 350 697.5 c 128,-1,202
 350 625 350 625 342 617 c 0,203,204
 340 615 340 615 255 615 c 2,205,-1
 170 616 l 1,206,-1
 167 624 l 1,207,208
 160 650 160 650 160.5 703.5 c 128,-1,209
 161 757 161 757 168 777 c 1,210,-1
 170 785 l 1,211,-1
 142 786 l 1,212,-1
 113 786 l 1,213,-1
 111 794 l 1,214,215
 98 840 98 840 106 917 c 0,216,217
 109 947 109 947 113 951.5 c 128,-1,218
 117 956 117 956 142 956 c 2,219,-1
 170 956 l 1,220,-1
 168 965 l 2,221,222
 161 993 161 993 161 1047 c 128,-1,223
 161 1101 161 1101 168 1120 c 1,172,-1
281 948 m 2,224,-1
 284 956 l 1,225,-1
 256 956 l 2,226,227
 228.867 955.885 228.867 955.885 229 953 c 1,228,229
 237 939 237 939 237 872 c 0,230,231
 237 801 237 801 229 787 c 0,232,233
 227 785 227 785 256 785 c 2,234,-1
 284 785 l 1,235,-1
 281 794 l 1,236,237
 274 821 274 821 274 874 c 128,-1,238
 274 927 274 927 281 948 c 2,224,-1
EndSplineSet
EndChar

StartChar: uni00B5
Encoding: 181 181 9
Width: 851
VWidth: 0
Flags: W
HStem: -68 170<342.062 512 684.039 796.91> 765 20G<225 355 566 696.5>
VStem: 104 132.5<-236.769 97.8687> 168 177<105.355 439.353> 225 177<446.355 778.811> 274 247.5<-65.7356 99.875> 509 178<105.355 439.353> 559 242<-65.9353 94> 566 177<446.355 779>
LayerCount: 2
Back
Fore
SplineSet
566 779 m 1,0,-1
 569 785 l 1,1,-1
 654 785 l 2,2,3
 739 785 739 785 741 783 c 0,4,5
 742 782 742 782 744 771 c 0,6,7
 757 702 757 702 743 627 c 0,8,9
 741 614 741 614 743 602 c 0,10,11
 750 572 750 572 749 514.5 c 128,-1,12
 748 457 748 457 741 446 c 0,13,14
 739 444 739 444 711 444 c 0,15,16
 683.867 443.885 683.867 443.885 684 441 c 1,17,18
 691 430 691 430 692 372.5 c 128,-1,19
 693 315 693 315 687 286 c 0,20,21
 685 273 685 273 687 260 c 1,22,23
 694 230 694 230 693 173 c 128,-1,24
 692 116 692 116 684 105 c 1,25,-1
 686.5 104.5 l 2,26,27
 689 104 689 104 694 103.5 c 128,-1,28
 699 103 699 103 706 102.5 c 128,-1,29
 713 102 713 102 721.5 102 c 128,-1,30
 730 102 730 102 739 102 c 0,31,32
 796 102 796 102 798 100 c 0,33,34
 803 91 803 91 805.5 41.5 c 128,-1,35
 808 -8 808 -8 804 -33 c 0,36,37
 803 -36 803 -36 802 -43.5 c 128,-1,38
 801 -51 801 -51 801 -53 c 0,39,40
 799 -64 799 -64 797 -66 c 128,-1,41
 795 -68 795 -68 681 -68 c 1,42,-1
 568 -67 l 1,43,-1
 566 -59 l 2,44,45
 559 -34 559 -34 559 20 c 128,-1,46
 559 74 559 74 566 94 c 2,47,-1
 569 102 l 1,48,-1
 540 103 l 1,49,-1
 511 104 l 1,50,-1
 509 112 l 2,51,52
 502 138 502 138 502 191.5 c 128,-1,53
 502 245 502 245 509 265 c 0,54,55
 511 273 511 273 509 282 c 0,56,57
 496 329 496 329 504 405 c 0,58,59
 507 435 507 435 511 439.5 c 128,-1,60
 515 444 515 444 540 444 c 2,61,-1
 568 444 l 1,62,-1
 566 453 l 2,63,64
 559 480 559 480 559 532.5 c 128,-1,65
 559 585 559 585 566 606 c 0,66,67
 568 614 568 614 566 624 c 0,68,69
 559 652 559 652 559 706 c 128,-1,70
 559 760 559 760 566 779 c 1,0,-1
225 779 m 1,71,-1
 228 785 l 1,72,-1
 313 785 l 2,73,74
 397 785 397 785 399 783 c 128,-1,75
 401 781 401 781 403 771 c 0,76,77
 416 702 416 702 402 627 c 0,78,79
 400 614 400 614 402 602 c 0,80,81
 409 572 409 572 408 514.5 c 128,-1,82
 407 457 407 457 399 446 c 0,83,84
 397 444 397 444 369 444 c 0,85,86
 341.867 443.885 341.867 443.885 342 441 c 1,87,88
 349 430 349 430 350 372.5 c 128,-1,89
 351 315 351 315 345 286 c 0,90,91
 343 273 343 273 345 260 c 1,92,93
 352 230 352 230 351 173 c 128,-1,94
 350 116 350 116 342 105 c 1,95,-1
 346 104.5 l 2,96,97
 350 104 350 104 358 103.5 c 128,-1,98
 366 103 366 103 376.5 102.5 c 128,-1,99
 387 102 387 102 400.5 102 c 128,-1,100
 414 102 414 102 427 102 c 2,101,-1
 512 102 l 1,102,-1
 514 96 l 1,103,104
 522 76 522 76 521.5 9 c 128,-1,105
 521 -58 521 -58 513 -66 c 0,106,107
 511 -68 511 -68 397 -68 c 2,108,-1
 283 -67 l 1,109,-1
 281 -59 l 2,110,111
 274 -34 274 -34 274 20 c 128,-1,112
 274 74 274 74 281 94 c 2,113,-1
 284 102 l 1,114,-1
 256 102 l 2,115,116
 227 102 227 102 229 100 c 0,117,118
 236 89 236 89 236.5 31.5 c 128,-1,119
 237 -26 237 -26 231 -55 c 0,120,121
 229 -68 229 -68 231 -81 c 0,122,123
 238 -112 238 -112 236.5 -171 c 128,-1,124
 235 -230 235 -230 228 -237 c 0,125,126
 227 -238 227 -238 169 -238 c 2,127,-1
 113 -238 l 1,128,-1
 111 -230 l 2,129,130
 104 -204 104 -204 104 -150 c 128,-1,131
 104 -96 104 -96 111 -76 c 0,132,133
 113 -68 113 -68 111 -59 c 0,134,135
 98 -12 98 -12 106 64 c 0,136,137
 109 94 109 94 113 98 c 128,-1,138
 117 102 117 102 142 102 c 2,139,-1
 170 102 l 1,140,-1
 168 112 l 1,141,142
 161 139 161 139 161 191.5 c 128,-1,143
 161 244 161 244 168 265 c 0,144,145
 170 273 170 273 168 282 c 0,146,147
 155 329 155 329 163 405 c 0,148,149
 166 435 166 435 170 439.5 c 128,-1,150
 174 444 174 444 199 444 c 2,151,-1
 227 444 l 1,152,-1
 225 453 l 2,153,154
 218 480 218 480 218 532.5 c 128,-1,155
 218 585 218 585 225 606 c 0,156,157
 227 614 227 614 225 624 c 0,158,159
 218 652 218 652 218 706 c 128,-1,160
 218 760 218 760 225 779 c 1,71,-1
EndSplineSet
EndChar

StartChar: s
Encoding: 115 115 10
Width: 851
VWidth: 0
Flags: W
HStem: -68 170<228 625> 101.5 172<684.109 797.893> 274 170.5<342 621.916> 444 170<171 284> 614 171<342 748.104>
VStem: 160.5 190.5<446 608> 616 183<105.016 270.678>
LayerCount: 2
Back
Fore
SplineSet
282 779 m 2,0,-1
 284 785 l 1,1,-1
 512 785 l 2,2,3
 739 785 739 785 741 783 c 0,4,5
 747 773 747 773 749 724 c 128,-1,6
 751 675 751 675 747 647 c 0,7,8
 742 619 742 619 741 617 c 0,9,10
 738 614 738 614 540 614 c 0,11,12
 508 614 508 614 477.5 614 c 128,-1,13
 447 614 447 614 422.5 613.5 c 128,-1,14
 398 613 398 613 379.5 613 c 128,-1,15
 361 613 361 613 351.5 612.5 c 2,16,-1
 342 612 l 1,17,18
 351 596 351 596 351 530 c 0,19,20
 351 462 351 462 342 446 c 1,21,-1
 364.5 445.5 l 2,22,23
 387 445 387 445 426.5 444.5 c 128,-1,24
 466 444 466 444 512 444 c 0,25,26
 681 444 681 444 684 441 c 1,27,28
 690 431 690 431 692 382.5 c 128,-1,29
 694 334 694 334 690 306 c 0,30,31
 685 277 685 277 684 275 c 1,32,-1
 691 274.5 l 2,33,34
 698 274 698 274 711 273.5 c 128,-1,35
 724 273 724 273 739 273 c 0,36,37
 796 273 796 273 798 271 c 0,38,39
 804 261 804 261 806 212 c 128,-1,40
 808 163 808 163 803 135 c 0,41,42
 802 130 802 130 801.5 126 c 128,-1,43
 801 122 801 122 800.5 119.5 c 128,-1,44
 800 117 800 117 799.5 114.5 c 128,-1,45
 799 112 799 112 799 110.5 c 128,-1,46
 799 109 799 109 799 108 c 128,-1,47
 799 107 799 107 798.5 106 c 2,48,-1
 798 105 l 1,49,50
 795 102 795 102 739 102 c 0,51,52
 724 102 724 102 711 101.5 c 128,-1,53
 698 101 698 101 691 100.5 c 2,54,-1
 684 100 l 1,55,56
 692 86 692 86 691.5 14 c 128,-1,57
 691 -58 691 -58 683 -66 c 0,58,59
 681 -68 681 -68 454 -68 c 2,60,-1
 226 -67 l 1,61,-1
 224 -59 l 2,62,63
 217 -33 217 -33 217.5 22.5 c 128,-1,64
 218 78 218 78 225 96 c 1,65,-1
 228 102 l 1,66,-1
 426 102 l 1,67,-1
 625 102 l 1,68,-1
 623 112 l 1,69,70
 616 139 616 139 616 191.5 c 128,-1,71
 616 244 616 244 623 265 c 1,72,-1
 625 273 l 1,73,-1
 454 274 l 1,74,-1
 283 274 l 1,75,-1
 281 282 l 2,76,77
 274 308 274 308 274.5 362 c 128,-1,78
 275 416 275 416 282 436 c 1,79,-1
 284 444 l 1,80,-1
 227 444 l 1,81,-1
 170 445 l 1,82,-1
 167 453 l 1,83,84
 160 479 160 479 160.5 534.5 c 128,-1,85
 161 590 161 590 168 608 c 1,86,-1
 171 614 l 1,87,-1
 227 614 l 1,88,-1
 284 614 l 1,89,-1
 281 624 l 1,90,91
 274 651 274 651 274.5 705.5 c 128,-1,92
 275 760 275 760 282 779 c 2,0,-1
EndSplineSet
EndChar

StartChar: aacute
Encoding: 225 225 11
Width: 851
VWidth: 0
Flags: W
HStem: -68 170<341.973 569 741 804.585> 103 170<170 227> 273 171<342.039 568> 616 169<284 569> 957 169<398 510.957> 1125.5 171.5<570.109 683.893>
VStem: 388.5 189<958.266 1123.55> 502 185<1129.03 1291> 566 177<105.355 271.875 444.289 607> 623 175<-67 102>
LayerCount: 2
Back
Fore
SplineSet
282 779 m 2,0,-1
 284 785 l 1,1,-1
 455 785 l 2,2,3
 625 785 625 785 627 783 c 0,4,5
 633 773 633 773 635 724 c 128,-1,6
 637 675 637 675 633 647 c 0,7,8
 628 619 628 619 627 617 c 1,9,-1
 629.5 616.5 l 2,10,11
 632 616 632 616 637 615.5 c 128,-1,12
 642 615 642 615 649 614.5 c 128,-1,13
 656 614 656 614 664.5 614 c 128,-1,14
 673 614 673 614 682 614 c 0,15,16
 739 614 739 614 741 612 c 0,17,18
 746 603 746 603 748.5 553.5 c 128,-1,19
 751 504 751 504 747 479 c 0,20,21
 746 476 746 476 745 468.5 c 128,-1,22
 744 461 744 461 744 459 c 0,23,24
 741 440 741 440 743 431 c 0,25,26
 749 404 749 404 748.5 358 c 128,-1,27
 748 312 748 312 743 286 c 0,28,29
 741 273 741 273 743 260 c 1,30,31
 750 230 750 230 749 173 c 128,-1,32
 748 116 748 116 741 105 c 1,33,-1
 764.514 102.032 l 1,34,-1
 768 102 l 2,35,36
 796 102 796 102 798 100 c 0,37,38
 808 84 808 84 806 6 c 0,39,40
 804 -59 804 -59 797 -66 c 0,41,42
 795 -68 795 -68 710 -68 c 2,43,-1
 625 -67 l 1,44,-1
 623 -59 l 2,45,46
 616 -34 616 -34 616 20 c 128,-1,47
 616 74 616 74 623 94 c 1,48,-1
 625 102 l 1,49,-1
 597 103 l 1,50,-1
 568 104 l 1,51,-1
 566 112 l 2,52,53
 559 138 559 138 559 191 c 128,-1,54
 559 244 559 244 566 265 c 2,55,-1
 569 273 l 1,56,-1
 455 273 l 2,57,58
 442 273 442 273 429 273 c 128,-1,59
 416 273 416 273 405 273 c 128,-1,60
 394 273 394 273 384 272.5 c 128,-1,61
 374 272 374 272 366.5 272 c 128,-1,62
 359 272 359 272 353 272 c 128,-1,63
 347 272 347 272 344.5 271.5 c 2,64,-1
 342 271 l 1,65,66
 351 255 351 255 351 189 c 0,67,68
 351 121 351 121 342 105 c 0,69,70
 341 104 341 104 356 103.5 c 128,-1,71
 371 103 371 103 398.5 102.5 c 128,-1,72
 426 102 426 102 455 102 c 2,73,-1
 569 102 l 1,74,-1
 571 96 l 1,75,76
 579 76 579 76 578 9 c 128,-1,77
 577 -58 577 -58 569 -66 c 0,78,79
 567 -68 567 -68 397 -68 c 2,80,-1
 226 -67 l 1,81,-1
 224 -59 l 2,82,83
 217 -33 217 -33 217.5 20.5 c 128,-1,84
 218 74 218 74 225 94 c 1,85,-1
 227 102 l 1,86,-1
 198 103 l 1,87,-1
 170 104 l 1,88,-1
 167 112 l 1,89,90
 155 155 155 155 163 234 c 0,91,92
 166 264 166 264 170 268.5 c 128,-1,93
 174 273 174 273 199 273 c 2,94,-1
 227 273 l 1,95,-1
 225 282 l 2,96,97
 218 310 218 310 218 364 c 128,-1,98
 218 418 218 418 225 437 c 1,99,-1
 228 444 l 1,100,-1
 398 444 l 1,101,-1
 568 444 l 1,102,-1
 566 453 l 2,103,104
 559 480 559 480 559 533 c 128,-1,105
 559 586 559 586 566 607 c 1,106,-1
 569 614 l 1,107,-1
 426 615 l 1,108,-1
 283 616 l 1,109,-1
 281 624 l 2,110,111
 274 650 274 650 274.5 705.5 c 128,-1,112
 275 761 275 761 282 779 c 2,0,-1
509 1291 m 1,113,-1
 512 1297 l 1,114,-1
 597 1297 l 2,115,116
 682 1297 682 1297 684 1295 c 0,117,118
 689 1286 689 1286 691.5 1236.5 c 128,-1,119
 694 1187 694 1187 690 1162 c 0,120,121
 689 1160 689 1160 688 1152 c 128,-1,122
 687 1144 687 1144 687 1142 c 0,123,124
 685 1130 685 1130 684 1129 c 0,125,126
 681 1126 681 1126 625 1126 c 0,127,128
 610 1126 610 1126 597 1125.5 c 128,-1,129
 584 1125 584 1125 577 1124.5 c 2,130,-1
 570 1124 l 1,131,132
 578 1110 578 1110 577.5 1038 c 128,-1,133
 577 966 577 966 569 958 c 0,134,135
 567 956 567 956 482 956 c 2,136,-1
 397 957 l 1,137,-1
 395 965 l 2,138,139
 388 991 388 991 388.5 1046.5 c 128,-1,140
 389 1102 389 1102 396 1120 c 2,141,-1
 398 1126 l 1,142,-1
 455 1126 l 1,143,-1
 511 1126 l 1,144,-1
 509 1136 l 1,145,146
 502 1164 502 1164 502 1218 c 128,-1,147
 502 1272 502 1272 509 1291 c 1,113,-1
EndSplineSet
EndChar

StartChar: exclam
Encoding: 33 33 12
Width: 851
VWidth: 0
Flags: W
HStem: -67 169<398 568.917> 1106 20G<396 525.5>
VStem: 395 178<-65.9353 96 275 1120>
LayerCount: 2
Back
Fore
SplineSet
396 96 m 2,0,-1
 398 102 l 1,1,-1
 483 102 l 2,2,3
 568 102 568 102 570 100 c 0,4,5
 575 91 575 91 577.5 41.5 c 128,-1,6
 580 -8 580 -8 576 -33 c 0,7,8
 575 -36 575 -36 574 -43.5 c 128,-1,9
 573 -51 573 -51 573 -53 c 0,10,11
 571 -64 571 -64 569 -66 c 128,-1,12
 567 -68 567 -68 482 -68 c 2,13,-1
 397 -67 l 1,14,-1
 395 -59 l 2,15,16
 388 -33 388 -33 388.5 22.5 c 128,-1,17
 389 78 389 78 396 96 c 2,0,-1
396 1120 m 2,18,-1
 398 1126 l 1,19,-1
 483 1126 l 2,20,21
 568 1126 568 1126 570 1124 c 0,22,23
 571 1123 571 1123 573 1112 c 0,24,25
 586 1040 586 1040 573 969 c 0,26,27
 571 955 571 955 573 943 c 0,28,29
 578 917 578 917 578 870.5 c 128,-1,30
 578 824 578 824 573 798 c 0,31,32
 571 785 571 785 573 772 c 0,33,34
 578 746 578 746 578 699 c 128,-1,35
 578 652 578 652 573 627 c 0,36,37
 571 614 571 614 573 602 c 0,38,39
 579 573 579 573 578 515.5 c 128,-1,40
 577 458 577 458 570 447 c 0,41,42
 568 445 568 445 572 435 c 1,43,44
 579 409 579 409 578 346 c 128,-1,45
 577 283 577 283 569 275 c 0,46,47
 568 274 568 274 482 274 c 2,48,-1
 397 274 l 1,49,-1
 395 282 l 2,50,51
 388 308 388 308 388 362 c 128,-1,52
 388 416 388 416 395 436 c 0,53,54
 397 444 397 444 395 453 c 0,55,56
 388 480 388 480 388 532.5 c 128,-1,57
 388 585 388 585 395 606 c 0,58,59
 397 614 397 614 395 624 c 0,60,61
 388 651 388 651 388 703.5 c 128,-1,62
 388 756 388 756 395 777 c 0,63,64
 397 785 397 785 395 794 c 0,65,66
 388 821 388 821 388 874 c 128,-1,67
 388 927 388 927 395 948 c 0,68,69
 397 956 397 956 395 965 c 0,70,71
 388 992 388 992 388.5 1046.5 c 128,-1,72
 389 1101 389 1101 396 1120 c 2,18,-1
EndSplineSet
EndChar

StartChar: uni2594
Encoding: 9620 9620 13
Width: 851
VWidth: 0
Flags: W
HStem: 1468 170<0 853>
LayerCount: 2
Back
Fore
SplineSet
0 1553 m 1,0,-1
 0 1638 l 1,1,-1
 427 1638 l 1,2,-1
 853 1638 l 1,3,-1
 853 1553 l 1,4,-1
 853 1468 l 1,5,-1
 427 1468 l 1,6,-1
 0 1468 l 1,7,-1
 0 1553 l 1,0,-1
EndSplineSet
EndChar

StartChar: zero
Encoding: 48 48 14
Width: 851
VWidth: 0
Flags: W
HStem: -67 169<341 569> 957 169<341 568.91>
VStem: 161 189<274.125 780.353> 218 133<105.263 273 785 949> 331.5 241.5<-65.7356 101.906 958.065 1120> 559 133<105.263 264 785 949> 566 177<275.355 782.709>
LayerCount: 2
Back
Fore
SplineSet
339 96 m 2,0,-1
 341 102 l 1,1,-1
 455 102 l 1,2,-1
 569 102 l 1,3,-1
 571 96 l 1,4,5
 579 76 579 76 578 9 c 128,-1,6
 577 -58 577 -58 569 -66 c 0,7,8
 567 -68 567 -68 454 -68 c 2,9,-1
 340 -67 l 1,10,-1
 338 -59 l 2,11,12
 331 -33 331 -33 331.5 22.5 c 128,-1,13
 332 78 332 78 339 96 c 2,0,-1
566 949 m 1,14,-1
 569 956 l 1,15,-1
 626 956 l 2,16,17
 681 956 681 956 684 953 c 1,18,19
 690 943 690 943 692 894.5 c 128,-1,20
 694 846 694 846 690 818 c 0,21,22
 685 789 685 789 684 787 c 0,23,24
 682 785 682 785 711 785 c 0,25,26
 739 785 739 785 741 783 c 0,27,28
 746 774 746 774 748.5 724.5 c 128,-1,29
 751 675 751 675 747 650 c 0,30,31
 746 647 746 647 745 639.5 c 128,-1,32
 744 632 744 632 744 630 c 0,33,34
 741 611 741 611 743 602 c 0,35,36
 749 575 749 575 748.5 529 c 128,-1,37
 748 483 748 483 743 457 c 0,38,39
 741 444 741 444 743 431 c 1,40,41
 750 401 750 401 749 343.5 c 128,-1,42
 748 286 748 286 741 275 c 0,43,44
 739 273 739 273 711 273 c 2,45,-1
 683 273 l 1,46,-1
 686 264 l 1,47,48
 693 238 693 238 692 175.5 c 128,-1,49
 691 113 691 113 683 105 c 0,50,51
 681 103 681 103 624 103 c 1,52,-1
 568 104 l 1,53,-1
 566 112 l 2,54,55
 559 138 559 138 559 191.5 c 128,-1,56
 559 245 559 245 566 265 c 0,57,58
 568 273 568 273 566 282 c 0,59,60
 559 309 559 309 559 362 c 128,-1,61
 559 415 559 415 566 436 c 0,62,63
 568 444 568 444 566 453 c 0,64,65
 559 480 559 480 559 532.5 c 128,-1,66
 559 585 559 585 566 606 c 0,67,68
 568 614 568 614 566 624 c 0,69,70
 559 651 559 651 559 703.5 c 128,-1,71
 559 756 559 756 566 777 c 0,72,73
 568 785 568 785 566 794 c 0,74,75
 559 822 559 822 559 876 c 128,-1,76
 559 930 559 930 566 949 c 1,14,-1
225 949 m 1,77,-1
 228 956 l 1,78,-1
 284 956 l 1,79,-1
 341 956 l 1,80,-1
 344 949 l 2,81,82
 351 933 351 933 351 879.5 c 128,-1,83
 351 826 351 826 345 798 c 0,84,85
 343 788 343 788 343 785 c 128,-1,86
 343 782 343 782 345 772 c 0,87,88
 350 746 350 746 350 699 c 128,-1,89
 350 652 350 652 345 627 c 0,90,91
 343 614 343 614 345 602 c 0,92,93
 350 576 350 576 350 529 c 128,-1,94
 350 482 350 482 345 457 c 0,95,96
 343 444 343 444 345 431 c 0,97,98
 351 402 351 402 350.5 344.5 c 128,-1,99
 350 287 350 287 343 276 c 0,100,101
 342 275 342 275 342.5 271.5 c 128,-1,102
 343 268 343 268 344 264 c 0,103,104
 352 239 352 239 351 176 c 128,-1,105
 350 113 350 113 342 105 c 0,106,107
 340 103 340 103 283 103 c 2,108,-1
 226 104 l 1,109,-1
 224 112 l 2,110,111
 217 138 217 138 217.5 191.5 c 128,-1,112
 218 245 218 245 225 265 c 1,113,-1
 227 273 l 1,114,-1
 198 274 l 1,115,-1
 170 274 l 1,116,-1
 167 282 l 1,117,118
 160 308 160 308 160.5 362 c 128,-1,119
 161 416 161 416 168 436 c 0,120,121
 170 444 170 444 168 453 c 0,122,123
 161 480 161 480 161 532.5 c 128,-1,124
 161 585 161 585 168 606 c 0,125,126
 170 614 170 614 168 624 c 0,127,128
 155 671 155 671 163 746 c 0,129,130
 166 776 166 776 170 780.5 c 128,-1,131
 174 785 174 785 199 785 c 2,132,-1
 227 785 l 1,133,-1
 225 794 l 2,134,135
 218 822 218 822 218 876 c 128,-1,136
 218 930 218 930 225 949 c 1,77,-1
339 1120 m 2,137,-1
 341 1126 l 1,138,-1
 455 1126 l 2,139,140
 568 1126 568 1126 570 1124 c 0,141,142
 575 1115 575 1115 577.5 1065.5 c 128,-1,143
 580 1016 580 1016 576 991 c 0,144,145
 575 988 575 988 574 980.5 c 128,-1,146
 573 973 573 973 573 971 c 0,147,148
 571 960 571 960 569 958 c 128,-1,149
 567 956 567 956 454 956 c 2,150,-1
 340 957 l 1,151,-1
 338 965 l 2,152,153
 331 991 331 991 331.5 1046.5 c 128,-1,154
 332 1102 332 1102 339 1120 c 2,137,-1
EndSplineSet
EndChar

StartChar: G
Encoding: 71 71 15
Width: 851
VWidth: 0
Flags: W
HStem: -68 170<341.974 625> 444 170<512 625> 786 170.5<284 284 684.109 805.006> 956 170<341.974 625>
VStem: 104 189<275.355 780.353> 168 174<104.125 270.678 785 949> 274.5 417<-65.7344 99.5483 958.069 1123.68> 502 303<445.125 608> 623 177<102.073 443.907 787.069 955.875>
LayerCount: 2
Back
Fore
SplineSet
282 1120 m 2,0,-1
 284 1126 l 1,1,-1
 483 1126 l 2,2,3
 682 1126 682 1126 684 1124 c 0,4,5
 690 1114 690 1114 692 1065 c 128,-1,6
 694 1016 694 1016 690 988 c 0,7,8
 685 960 685 960 684 958 c 1,9,-1
 691 957.5 l 2,10,11
 698 957 698 957 711 956.5 c 128,-1,12
 724 956 724 956 739 956 c 0,13,14
 795 956 795 956 798 953 c 1,15,16
 804 943 804 943 806 894.5 c 128,-1,17
 808 846 808 846 804 818 c 0,18,19
 799 789 799 789 797 787 c 0,20,21
 796 786 796 786 710 786 c 2,22,-1
 625 786 l 1,23,-1
 623 794 l 2,24,25
 616 820 616 820 616 874 c 128,-1,26
 616 928 616 928 623 948 c 1,27,-1
 625 956 l 1,28,-1
 483 956 l 2,29,30
 447 956 447 956 412.5 955.5 c 128,-1,31
 378 955 378 955 359.5 954.5 c 128,-1,32
 341 954 341 954 342 953 c 0,33,34
 351 937 351 937 351 872 c 0,35,36
 351 803 351 803 342 787 c 0,37,38
 340 785 340 785 313 785 c 0,39,40
 284 785 284 785 286 783 c 0,41,42
 293 772 293 772 293.5 714 c 128,-1,43
 294 656 294 656 288 627 c 0,44,45
 286 614 286 614 288 602 c 0,46,47
 293 576 293 576 293 529 c 128,-1,48
 293 482 293 482 288 457 c 0,49,50
 286 444 286 444 288 431 c 1,51,52
 295 401 295 401 294 343.5 c 128,-1,53
 293 286 293 286 286 275 c 0,54,55
 284 273 284 273 313 273 c 0,56,57
 340 273 340 273 342 271 c 0,58,59
 348 261 348 261 350 212.5 c 128,-1,60
 352 164 352 164 348 135 c 0,61,62
 344 108 344 108 342 105 c 0,63,64
 341 104 341 104 359.5 103.5 c 128,-1,65
 378 103 378 103 412.5 102.5 c 128,-1,66
 447 102 447 102 483 102 c 2,67,-1
 625 102 l 1,68,-1
 623 112 l 1,69,70
 616 139 616 139 616 191.5 c 128,-1,71
 616 244 616 244 623 265 c 0,72,73
 625 273 625 273 623 282 c 0,74,75
 616 309 616 309 616 362 c 128,-1,76
 616 415 616 415 623 436 c 1,77,-1
 625 444 l 1,78,-1
 568 444 l 1,79,-1
 511 445 l 1,80,-1
 509 453 l 2,81,82
 502 478 502 478 502 534 c 128,-1,83
 502 590 502 590 509 608 c 1,84,-1
 512 614 l 1,85,-1
 654 614 l 2,86,87
 796 614 796 614 798 612 c 0,88,89
 799 611 799 611 801 600 c 0,90,91
 814 531 814 531 800 457 c 0,92,93
 798 443 798 443 800 431 c 0,94,95
 805 405 805 405 805 358.5 c 128,-1,96
 805 312 805 312 800 286 c 0,97,98
 798 273 798 273 800 260 c 1,99,100
 807 230 807 230 806 173 c 128,-1,101
 805 116 805 116 798 105 c 0,102,103
 795 102 795 102 739 102 c 0,104,105
 724 102 724 102 711 101.5 c 128,-1,106
 698 101 698 101 691 100.5 c 2,107,-1
 684 100 l 1,108,109
 692 86 692 86 691.5 14 c 128,-1,110
 691 -58 691 -58 683 -66 c 0,111,112
 681 -68 681 -68 482 -68 c 2,113,-1
 283 -67 l 1,114,-1
 281 -59 l 2,115,116
 274 -33 274 -33 274.5 21 c 128,-1,117
 275 75 275 75 282 95 c 1,118,-1
 284 102 l 1,119,-1
 227 103 l 1,120,-1
 170 104 l 1,121,-1
 167 112 l 1,122,123
 160 138 160 138 160.5 191.5 c 128,-1,124
 161 245 161 245 168 265 c 1,125,-1
 170 273 l 1,126,-1
 142 274 l 1,127,-1
 113 274 l 1,128,-1
 111 282 l 2,129,130
 104 308 104 308 104 362 c 128,-1,131
 104 416 104 416 111 436 c 0,132,133
 113 444 113 444 111 453 c 0,134,135
 104 480 104 480 104 532.5 c 128,-1,136
 104 585 104 585 111 606 c 0,137,138
 113 614 113 614 111 624 c 0,139,140
 98 671 98 671 106 746 c 0,141,142
 109 776 109 776 113 780.5 c 128,-1,143
 117 785 117 785 142 785 c 2,144,-1
 170 785 l 1,145,-1
 168 794 l 2,146,147
 161 822 161 822 161 876 c 128,-1,148
 161 930 161 930 168 949 c 1,149,-1
 171 956 l 1,150,-1
 227 956 l 1,151,-1
 284 956 l 1,152,-1
 281 965 l 1,153,154
 274 992 274 992 274.5 1046.5 c 128,-1,155
 275 1101 275 1101 282 1120 c 2,0,-1
EndSplineSet
EndChar

StartChar: o
Encoding: 111 111 16
Width: 851
VWidth: 0
Flags: W
HStem: -68 170<341.973 568> 274 170<113 170 740.945 797.9> 614 171<342.039 569>
VStem: 106 188<275.451 439.353> 161 190<105.069 270.678 446.513 611.488> 274.5 360<-65.7344 99.5483 617.069 782.678> 566 175<105.451 268.353 446.069 613.891> 616 182<273.141 440.678>
LayerCount: 2
Back
Fore
SplineSet
282 779 m 2,0,-1
 284 785 l 1,1,-1
 455 785 l 2,2,3
 625 785 625 785 627 783 c 0,4,5
 633 773 633 773 635 724 c 128,-1,6
 637 675 637 675 633 647 c 0,7,8
 628 619 628 619 627 617 c 1,9,-1
 629.5 616.5 l 2,10,11
 632 616 632 616 637 615.5 c 128,-1,12
 642 615 642 615 649 614.5 c 128,-1,13
 656 614 656 614 664.5 614 c 128,-1,14
 673 614 673 614 682 614 c 0,15,16
 739 614 739 614 741 612 c 0,17,18
 747 602 747 602 749 553 c 128,-1,19
 751 504 751 504 747 476 c 0,20,21
 742 448 742 448 741 446 c 0,22,23
 739 444 739 444 768 444 c 0,24,25
 795 444 795 444 798 441 c 1,26,27
 804 431 804 431 806 382.5 c 128,-1,28
 808 334 808 334 803 306 c 0,29,30
 801 296 801 296 800 288.5 c 128,-1,31
 799 281 799 281 798.5 278.5 c 128,-1,32
 798 276 798 276 798 275 c 0,33,34
 796 273 796 273 768 273 c 0,35,36
 739 273 739 273 741 271 c 0,37,38
 749 257 749 257 749 189 c 0,39,40
 749 119 749 119 741 105 c 1,41,42
 738 102 738 102 682 102 c 0,43,44
 667 102 667 102 654 101.5 c 128,-1,45
 641 101 641 101 634 100.5 c 2,46,-1
 627 100 l 1,47,48
 635 86 635 86 634.5 14 c 128,-1,49
 634 -58 634 -58 626 -66 c 0,50,51
 624 -68 624 -68 454 -68 c 2,52,-1
 283 -67 l 1,53,-1
 281 -59 l 2,54,55
 274 -33 274 -33 274.5 21 c 128,-1,56
 275 75 275 75 282 95 c 1,57,-1
 284 102 l 1,58,-1
 227 103 l 1,59,-1
 170 104 l 1,60,-1
 167 112 l 1,61,62
 160 138 160 138 160.5 191.5 c 128,-1,63
 161 245 161 245 168 265 c 1,64,-1
 170 273 l 1,65,-1
 142 274 l 1,66,-1
 113 274 l 1,67,-1
 111 282 l 1,68,69
 98 328 98 328 106 405 c 0,70,71
 109 435 109 435 113 439.5 c 128,-1,72
 117 444 117 444 142 444 c 2,73,-1
 170 444 l 1,74,-1
 168 453 l 2,75,76
 161 481 161 481 161 535 c 128,-1,77
 161 589 161 589 168 608 c 1,78,-1
 171 614 l 1,79,-1
 227 614 l 1,80,-1
 284 614 l 1,81,-1
 281 624 l 1,82,83
 274 651 274 651 274.5 705.5 c 128,-1,84
 275 760 275 760 282 779 c 2,0,-1
566 607 m 1,85,-1
 569 614 l 1,86,-1
 455 614 l 2,87,88
 442 614 442 614 429 614 c 128,-1,89
 416 614 416 614 405 614 c 128,-1,90
 394 614 394 614 384 613.5 c 128,-1,91
 374 613 374 613 366.5 613 c 128,-1,92
 359 613 359 613 353 613 c 128,-1,93
 347 613 347 613 344.5 612.5 c 2,94,-1
 342 612 l 1,95,96
 351 596 351 596 351 530 c 0,97,98
 351 462 351 462 342 446 c 0,99,100
 340 444 340 444 313 444 c 128,-1,101
 285.867 443.885 285.867 443.885 286 441 c 1,102,103
 294 427 294 427 294 360 c 0,104,105
 294 289 294 289 286 275 c 0,106,107
 284 273 284 273 313 273 c 0,108,109
 340 273 340 273 342 271 c 0,110,111
 348 261 348 261 350 212 c 128,-1,112
 352 163 352 163 348 135 c 0,113,114
 343 107 343 107 342 105 c 0,115,116
 341 104 341 104 356 103.5 c 128,-1,117
 371 103 371 103 398.5 102.5 c 128,-1,118
 426 102 426 102 455 102 c 2,119,-1
 568 102 l 1,120,-1
 566 112 l 1,121,122
 553 159 553 159 561 234 c 0,123,124
 564 264 564 264 568 268.5 c 128,-1,125
 572 273 572 273 597 273 c 2,126,-1
 625 273 l 1,127,-1
 623 282 l 2,128,129
 616 309 616 309 616 362 c 128,-1,130
 616 415 616 415 623 436 c 2,131,-1
 625 443 l 1,132,-1
 597 444 l 1,133,-1
 568 445 l 1,134,-1
 566 453 l 2,135,136
 559 478 559 478 559 532 c 128,-1,137
 559 586 559 586 566 607 c 1,85,-1
EndSplineSet
EndChar

StartChar: hyphen
Encoding: 45 45 17
Width: 851
VWidth: 0
Flags: W
HStem: 445 169<228 747.567>
VStem: 224 523
LayerCount: 2
Back
Fore
SplineSet
225 608 m 1,0,-1
 228 614 l 1,1,-1
 483 614 l 2,2,3
 739 614 739 614 741 612 c 0,4,5
 746 603 746 603 748.5 553.5 c 128,-1,6
 751 504 751 504 747 479 c 0,7,8
 746 476 746 476 745 468.5 c 128,-1,9
 744 461 744 461 744 459 c 0,10,11
 742 448 742 448 740 446 c 128,-1,12
 738 444 738 444 482 444 c 2,13,-1
 226 445 l 1,14,-1
 224 453 l 2,15,16
 217 479 217 479 217.5 534.5 c 128,-1,17
 218 590 218 590 225 608 c 1,0,-1
EndSplineSet
EndChar

StartChar: asciitilde
Encoding: 126 126 18
Width: 851
VWidth: 0
Flags: W
HStem: 1106 20G<225 397.5 623 753.5>
VStem: 104 189.5<446.231 780.353> 218 246<956.141 1120> 445 246.5<446.266 611.548> 616 190<787.355 1120>
LayerCount: 2
Back
Fore
SplineSet
225 1120 m 1,0,-1
 228 1126 l 1,1,-1
 341 1126 l 2,2,3
 454 1126 454 1126 456 1124 c 0,4,5
 462 1114 462 1114 464 1065 c 128,-1,6
 466 1016 466 1016 462 988 c 0,7,8
 457 960 457 960 456 958 c 0,9,10
 454 956 454 956 483 956 c 0,11,12
 510 956 510 956 513 953 c 1,13,14
 519 943 519 943 521 894.5 c 128,-1,15
 523 846 523 846 519 818 c 0,16,17
 514 789 514 789 513 787 c 1,18,-1
 520 786.5 l 2,19,20
 527 786 527 786 540 785.5 c 128,-1,21
 553 785 553 785 568 785 c 2,22,-1
 625 785 l 1,23,-1
 623 794 l 2,24,25
 616 821 616 821 616 874 c 128,-1,26
 616 927 616 927 623 948 c 0,27,28
 625 956 625 956 623 965 c 0,29,30
 616 993 616 993 616 1047 c 128,-1,31
 616 1101 616 1101 623 1120 c 1,32,-1
 626 1126 l 1,33,-1
 711 1126 l 2,34,35
 796 1126 796 1126 798 1124 c 0,36,37
 799 1123 799 1123 801 1112 c 0,38,39
 814 1043 814 1043 800 969 c 0,40,41
 798 955 798 955 800 943 c 0,42,43
 807 913 807 913 806 855.5 c 128,-1,44
 805 798 805 798 798 787 c 0,45,46
 796 785 796 785 768 785 c 0,47,48
 739 785 739 785 741 783 c 0,49,50
 749 769 749 769 749 701 c 0,51,52
 749 631 749 631 741 617 c 1,53,54
 738 614 738 614 711 614 c 0,55,56
 682 614 682 614 684 612 c 0,57,58
 692 598 692 598 691.5 526 c 128,-1,59
 691 454 691 454 683 446 c 0,60,61
 681 444 681 444 567 444 c 1,62,-1
 454 445 l 1,63,-1
 452 453 l 2,64,65
 445 478 445 478 445 532 c 128,-1,66
 445 586 445 586 452 606 c 2,67,-1
 455 614 l 1,68,-1
 426 615 l 1,69,-1
 397 616 l 1,70,-1
 395 624 l 2,71,72
 388 650 388 650 388 703 c 128,-1,73
 388 756 388 756 395 777 c 2,74,-1
 398 785 l 1,75,-1
 341 785 l 2,76,77
 326 785 326 785 313 784.5 c 128,-1,78
 300 784 300 784 293 783.5 c 2,79,-1
 286 783 l 1,80,81
 293 772 293 772 293.5 714 c 128,-1,82
 294 656 294 656 288 627 c 0,83,84
 286 614 286 614 288 602 c 0,85,86
 295 571 295 571 293.5 512 c 128,-1,87
 292 453 292 453 285 446 c 0,88,89
 283 444 283 444 198 444 c 2,90,-1
 113 445 l 1,91,-1
 111 453 l 2,92,93
 104 478 104 478 104 532 c 128,-1,94
 104 586 104 586 111 606 c 0,95,96
 113 614 113 614 111 624 c 0,97,98
 98 671 98 671 106 746 c 0,99,100
 109 776 109 776 113 780.5 c 128,-1,101
 117 785 117 785 142 785 c 2,102,-1
 170 785 l 1,103,-1
 168 794 l 1,104,105
 155 841 155 841 163 917 c 0,106,107
 166 947 166 947 170 951.5 c 128,-1,108
 174 956 174 956 199 956 c 2,109,-1
 227 956 l 1,110,-1
 225 965 l 2,111,112
 218 993 218 993 218 1047 c 128,-1,113
 218 1101 218 1101 225 1120 c 1,0,-1
EndSplineSet
EndChar

StartChar: e
Encoding: 101 101 19
Width: 851
VWidth: 0
Flags: W
HStem: -68 170.5<341.975 748.104> 273 171<113 170 342.094 625> 614 171<342 625>
VStem: 161 190<105.513 270.488 446 608> 616 190<343.5 532.5>
LayerCount: 2
Back
Fore
SplineSet
282 779 m 2,0,-1
 284 785 l 1,1,-1
 483 785 l 2,2,3
 682 785 682 785 684 783 c 0,4,5
 690 773 690 773 692 724 c 128,-1,6
 694 675 694 675 690 647 c 0,7,8
 685 619 685 619 684 617 c 1,9,-1
 686.5 616.5 l 2,10,11
 689 616 689 616 694 615.5 c 128,-1,12
 699 615 699 615 706 614.5 c 128,-1,13
 713 614 713 614 721.5 614 c 128,-1,14
 730 614 730 614 739 614 c 0,15,16
 796 614 796 614 798 612 c 0,17,18
 799 611 799 611 801 600 c 0,19,20
 814 531 814 531 800 457 c 0,21,22
 798 443 798 443 800 431 c 0,23,24
 807 401 807 401 806 343.5 c 128,-1,25
 805 286 805 286 798 275 c 0,26,27
 796 273 796 273 569 273 c 0,28,29
 543 273 543 273 517 273 c 128,-1,30
 491 273 491 273 469 273 c 128,-1,31
 447 273 447 273 427 272.5 c 128,-1,32
 407 272 407 272 391.5 272 c 128,-1,33
 376 272 376 272 365 272 c 128,-1,34
 354 272 354 272 348 271.5 c 2,35,-1
 342 271 l 1,36,37
 351 255 351 255 351 189 c 0,38,39
 351 121 351 121 342 105 c 0,40,41
 341 104 341 104 367 103.5 c 128,-1,42
 393 103 393 103 441 102.5 c 128,-1,43
 489 102 489 102 540 102 c 0,44,45
 739 102 739 102 741 100 c 0,46,47
 747 90 747 90 749 41 c 128,-1,48
 751 -8 751 -8 747 -36 c 0,49,50
 742 -64 742 -64 740 -66 c 128,-1,51
 738 -68 738 -68 511 -68 c 2,52,-1
 283 -67 l 1,53,-1
 281 -59 l 2,54,55
 274 -33 274 -33 274.5 21 c 128,-1,56
 275 75 275 75 282 95 c 1,57,-1
 284 102 l 1,58,-1
 227 103 l 1,59,-1
 170 104 l 1,60,-1
 167 112 l 1,61,62
 160 138 160 138 160.5 191.5 c 128,-1,63
 161 245 161 245 168 265 c 1,64,-1
 170 273 l 1,65,-1
 142 274 l 1,66,-1
 113 274 l 1,67,-1
 111 282 l 1,68,69
 98 328 98 328 106 405 c 0,70,71
 109 435 109 435 113 439.5 c 128,-1,72
 117 444 117 444 142 444 c 2,73,-1
 170 444 l 1,74,-1
 168 453 l 2,75,76
 161 481 161 481 161 535 c 128,-1,77
 161 589 161 589 168 608 c 1,78,-1
 171 614 l 1,79,-1
 227 614 l 1,80,-1
 284 614 l 1,81,-1
 281 624 l 1,82,83
 274 651 274 651 274.5 705.5 c 128,-1,84
 275 760 275 760 282 779 c 2,0,-1
623 606 m 1,85,-1
 625 614 l 1,86,-1
 483 614 l 2,87,88
 460 614 460 614 438.5 614 c 128,-1,89
 417 614 417 614 399.5 613.5 c 128,-1,90
 382 613 382 613 369 613 c 128,-1,91
 356 613 356 613 349 612.5 c 2,92,-1
 342 612 l 1,93,94
 351 596 351 596 351 530 c 0,95,96
 351 462 351 462 342 446 c 1,97,-1
 360.5 445.5 l 2,98,99
 379 445 379 445 412 444.5 c 128,-1,100
 445 444 445 444 483 444 c 2,101,-1
 625 444 l 1,102,-1
 623 453 l 2,103,104
 616 480 616 480 616 532.5 c 128,-1,105
 616 585 616 585 623 606 c 1,85,-1
EndSplineSet
EndChar

StartChar: SF070000
Encoding: 9524 9524 20
Width: 851
VWidth: 0
Flags: W
HStem: 614 171<0 341 456 853>
VStem: 338 121<794 1632>
LayerCount: 2
Back
Fore
SplineSet
339 1632 m 2,0,-1
 341 1638 l 1,1,-1
 398 1638 l 2,2,3
 454 1638 454 1638 456 1636 c 0,4,5
 461 1627 461 1627 463.5 1577.5 c 128,-1,6
 466 1528 466 1528 462 1503 c 0,7,8
 461 1500 461 1500 460 1492.5 c 128,-1,9
 459 1485 459 1485 459 1483 c 0,10,11
 457 1467 457 1467 459 1455 c 0,12,13
 465 1428 465 1428 464.5 1382 c 128,-1,14
 464 1336 464 1336 459 1310 c 0,15,16
 457 1297 457 1297 459 1284 c 0,17,18
 464 1258 464 1258 464 1211 c 128,-1,19
 464 1164 464 1164 459 1139 c 0,20,21
 457 1126 457 1126 459 1114 c 0,22,23
 464 1088 464 1088 464 1041 c 128,-1,24
 464 994 464 994 459 969 c 0,25,26
 457 956 457 956 459 943 c 1,27,28
 466 913 466 913 465 855.5 c 128,-1,29
 464 798 464 798 456 787 c 1,30,-1
 482 786.5 l 2,31,32
 508 786 508 786 554.5 785.5 c 128,-1,33
 601 785 601 785 654 785 c 2,34,-1
 853 785 l 1,35,-1
 853 700 l 1,36,-1
 853 614 l 1,37,-1
 427 614 l 1,38,-1
 0 614 l 1,39,-1
 0 700 l 1,40,-1
 0 785 l 1,41,-1
 170 785 l 1,42,-1
 341 785 l 1,43,-1
 338 794 l 1,44,45
 331 821 331 821 331 874 c 128,-1,46
 331 927 331 927 338 948 c 1,47,48
 340 958 340 958 339 965 c 0,49,50
 332 992 332 992 331.5 1044.5 c 128,-1,51
 331 1097 331 1097 338 1118 c 0,52,53
 341 1128 341 1128 339 1136 c 0,54,55
 332 1163 332 1163 331.5 1215.5 c 128,-1,56
 331 1268 331 1268 338 1289 c 1,57,58
 340 1299 340 1299 339 1306 c 0,59,60
 332 1333 332 1333 331.5 1386 c 128,-1,61
 331 1439 331 1439 338 1460 c 1,62,63
 340 1470 340 1470 339 1477 c 0,64,65
 332 1505 332 1505 332 1559 c 128,-1,66
 332 1613 332 1613 339 1632 c 2,0,-1
EndSplineSet
EndChar

StartChar: idieresis
Encoding: 239 239 21
Width: 851
VWidth: 0
Flags: W
HStem: -67 169<228 398 570 748.104> 616 169<284 398> 957 169<228 398.917 512 682.917>
VStem: 224 175<958.034 1120> 388 190<105.355 613.891> 509 178<958.065 1120>
LayerCount: 2
Back
Fore
SplineSet
282 779 m 2,0,-1
 284 785 l 1,1,-1
 427 785 l 2,2,3
 568 785 568 785 570 783 c 0,4,5
 571 782 571 782 573 771 c 0,6,7
 586 699 586 699 573 627 c 0,8,9
 571 614 571 614 573 602 c 0,10,11
 578 576 578 576 578 529 c 128,-1,12
 578 482 578 482 573 457 c 0,13,14
 571 444 571 444 573 431 c 0,15,16
 578 405 578 405 578 358.5 c 128,-1,17
 578 312 578 312 573 286 c 0,18,19
 571 273 571 273 573 260 c 1,20,21
 580 230 580 230 579 173 c 128,-1,22
 578 116 578 116 570 105 c 1,23,-1
 574 104.5 l 2,24,25
 578 104 578 104 586 103.5 c 128,-1,26
 594 103 594 103 604 102.5 c 128,-1,27
 614 102 614 102 627.5 102 c 128,-1,28
 641 102 641 102 654 102 c 0,29,30
 739 102 739 102 741 100 c 0,31,32
 747 90 747 90 749 41 c 128,-1,33
 751 -8 751 -8 747 -36 c 0,34,35
 742 -64 742 -64 740 -66 c 128,-1,36
 738 -68 738 -68 482 -68 c 2,37,-1
 226 -67 l 1,38,-1
 224 -59 l 2,39,40
 217 -33 217 -33 217.5 22.5 c 128,-1,41
 218 78 218 78 225 96 c 1,42,-1
 228 102 l 1,43,-1
 313 102 l 1,44,-1
 398 102 l 1,45,-1
 395 112 l 1,46,47
 388 139 388 139 388 191.5 c 128,-1,48
 388 244 388 244 395 265 c 0,49,50
 397 273 397 273 395 282 c 0,51,52
 388 309 388 309 388 362 c 128,-1,53
 388 415 388 415 395 436 c 0,54,55
 397 444 397 444 395 453 c 0,56,57
 388 480 388 480 388 533 c 128,-1,58
 388 586 388 586 395 607 c 1,59,-1
 398 614 l 1,60,-1
 341 615 l 1,61,-1
 283 616 l 1,62,-1
 281 624 l 2,63,64
 274 650 274 650 274.5 705.5 c 128,-1,65
 275 761 275 761 282 779 c 2,0,-1
509 1120 m 1,66,-1
 512 1126 l 1,67,-1
 597 1126 l 2,68,69
 682 1126 682 1126 684 1124 c 0,70,71
 689 1115 689 1115 691.5 1065.5 c 128,-1,72
 694 1016 694 1016 690 991 c 0,73,74
 689 988 689 988 688 980.5 c 128,-1,75
 687 973 687 973 687 971 c 0,76,77
 685 960 685 960 683 958 c 128,-1,78
 681 956 681 956 596 956 c 2,79,-1
 511 957 l 1,80,-1
 509 965 l 2,81,82
 502 990 502 990 502 1046 c 128,-1,83
 502 1102 502 1102 509 1120 c 1,66,-1
225 1120 m 1,84,-1
 228 1126 l 1,85,-1
 313 1126 l 2,86,87
 397 1126 397 1126 399 1124 c 0,88,89
 404 1115 404 1115 407 1065.5 c 128,-1,90
 410 1016 410 1016 406 991 c 0,91,92
 406 990 406 990 405 985.5 c 128,-1,93
 404 981 404 981 403 977.5 c 128,-1,94
 402 974 402 974 402 971 c 0,95,96
 400 959 400 959 399 958 c 0,97,98
 397 956 397 956 311 956 c 1,99,-1
 226 957 l 1,100,-1
 224 965 l 2,101,102
 217 991 217 991 217.5 1046.5 c 128,-1,103
 218 1102 218 1102 225 1120 c 1,84,-1
EndSplineSet
EndChar

StartChar: Egrave
Encoding: 200 200 22
Width: 851
VWidth: 0
Flags: W
HStem: -68 170.5<398.974 747.475> 444 170.5<399.019 748.104> 954.5 171.5<398.974 748.104> 1298 170.5<513.109 626.894> 1468 170<341 453.453>
VStem: 218 531<-65.9353 99.7089 446.069 611.678 958.069 1123.68> 218 189<105.387 443.859 617.355 952.645> 338 175<1470.03 1632> 452 179<1299.06 1460>
LayerCount: 2
Back
Fore
SplineSet
225 1120 m 1,0,-1
 228 1126 l 1,1,-1
 483 1126 l 2,2,3
 739 1126 739 1126 741 1124 c 0,4,5
 747 1114 747 1114 749 1065 c 128,-1,6
 751 1016 751 1016 747 988 c 0,7,8
 742 960 742 960 741 958 c 0,9,10
 739 956 739 956 569 956 c 0,11,12
 525 956 525 956 484 955.5 c 128,-1,13
 443 955 443 955 420.5 954.5 c 128,-1,14
 398 954 398 954 399 953 c 0,15,16
 406 942 406 942 407 884.5 c 128,-1,17
 408 827 408 827 402 798 c 0,18,19
 400 785 400 785 402 772 c 1,20,21
 409 742 409 742 408 685 c 128,-1,22
 407 628 407 628 399 617 c 0,23,24
 398 616 398 616 420.5 615.5 c 128,-1,25
 443 615 443 615 484 614.5 c 128,-1,26
 525 614 525 614 569 614 c 0,27,28
 739 614 739 614 741 612 c 0,29,30
 747 602 747 602 749 553 c 128,-1,31
 751 504 751 504 747 476 c 0,32,33
 742 448 742 448 741 446 c 0,34,35
 739 444 739 444 569 444 c 2,36,-1
 399 444 l 1,37,-1
 401 435 l 1,38,39
 408 411 408 411 407.5 349.5 c 128,-1,40
 407 288 407 288 400 276 c 0,41,42
 399 275 399 275 399.5 271.5 c 128,-1,43
 400 268 400 268 401 264 c 0,44,45
 408 239 408 239 407 178 c 128,-1,46
 406 117 406 117 399 105 c 0,47,48
 398 104 398 104 420.5 103.5 c 128,-1,49
 443 103 443 103 484 102.5 c 128,-1,50
 525 102 525 102 569 102 c 0,51,52
 739 102 739 102 741 100 c 0,53,54
 746 91 746 91 748.5 41.5 c 128,-1,55
 751 -8 751 -8 747 -33 c 0,56,57
 746 -36 746 -36 745 -43.5 c 128,-1,58
 744 -51 744 -51 744 -53 c 0,59,60
 742 -64 742 -64 740 -66 c 128,-1,61
 738 -68 738 -68 482 -68 c 2,62,-1
 226 -67 l 1,63,-1
 224 -59 l 2,64,65
 217 -33 217 -33 217.5 20.5 c 128,-1,66
 218 74 218 74 225 94 c 0,67,68
 227 102 227 102 225 112 c 0,69,70
 218 139 218 139 218 191.5 c 128,-1,71
 218 244 218 244 225 265 c 0,72,73
 227 273 227 273 225 282 c 0,74,75
 218 309 218 309 218 362 c 128,-1,76
 218 415 218 415 225 436 c 0,77,78
 227 444 227 444 225 453 c 0,79,80
 218 480 218 480 218 532.5 c 128,-1,81
 218 585 218 585 225 606 c 0,82,83
 227 614 227 614 225 624 c 0,84,85
 218 651 218 651 218 703.5 c 128,-1,86
 218 756 218 756 225 777 c 0,87,88
 227 785 227 785 225 794 c 0,89,90
 218 821 218 821 218 874 c 128,-1,91
 218 927 218 927 225 948 c 0,92,93
 227 956 227 956 225 965 c 0,94,95
 218 993 218 993 218 1047 c 128,-1,96
 218 1101 218 1101 225 1120 c 1,0,-1
339 1632 m 2,97,-1
 341 1638 l 1,98,-1
 427 1638 l 2,99,100
 511 1638 511 1638 513 1636 c 0,101,102
 518 1627 518 1627 520.5 1577.5 c 128,-1,103
 523 1528 523 1528 519 1503 c 0,104,105
 518 1501 518 1501 517 1493.5 c 128,-1,106
 516 1486 516 1486 516 1484 c 0,107,108
 514 1471 514 1471 513 1470 c 1,109,-1
 520 1469.5 l 2,110,111
 527 1469 527 1469 540 1468.5 c 128,-1,112
 553 1468 553 1468 569 1468 c 0,113,114
 624 1468 624 1468 627 1465 c 1,115,116
 632 1456 632 1456 634.5 1406.5 c 128,-1,117
 637 1357 637 1357 633 1332 c 0,118,119
 632 1329 632 1329 631 1322 c 128,-1,120
 630 1315 630 1315 630 1313 c 0,121,122
 628 1301 628 1301 626 1299 c 0,123,124
 625 1298 625 1298 539 1298 c 2,125,-1
 454 1298 l 1,126,-1
 452 1306 l 2,127,128
 445 1332 445 1332 445 1386 c 128,-1,129
 445 1440 445 1440 452 1460 c 2,130,-1
 455 1468 l 1,131,-1
 398 1468 l 1,132,-1
 340 1469 l 1,133,-1
 338 1477 l 2,134,135
 331 1503 331 1503 331.5 1558.5 c 128,-1,136
 332 1614 332 1614 339 1632 c 2,97,-1
EndSplineSet
EndChar

StartChar: egrave
Encoding: 232 232 23
Width: 851
VWidth: 0
Flags: W
HStem: -68 170.5<341.975 748.104> 273 171<113 170 342.094 625> 614 171<342 625> 956 170<456.039 568.917> 1128 169<284 396.453>
VStem: 161 190<105.513 270.488 446 608> 274.5 185.5<1129.06 1291> 395 179<958.065 1119> 616 190<343.5 532.5>
LayerCount: 2
Back
Fore
SplineSet
282 779 m 2,0,-1
 284 785 l 1,1,-1
 483 785 l 2,2,3
 682 785 682 785 684 783 c 0,4,5
 690 773 690 773 692 724 c 128,-1,6
 694 675 694 675 690 647 c 0,7,8
 685 619 685 619 684 617 c 1,9,-1
 686.5 616.5 l 2,10,11
 689 616 689 616 694 615.5 c 128,-1,12
 699 615 699 615 706 614.5 c 128,-1,13
 713 614 713 614 721.5 614 c 128,-1,14
 730 614 730 614 739 614 c 0,15,16
 796 614 796 614 798 612 c 0,17,18
 799 611 799 611 801 600 c 0,19,20
 814 531 814 531 800 457 c 0,21,22
 798 443 798 443 800 431 c 0,23,24
 807 401 807 401 806 343.5 c 128,-1,25
 805 286 805 286 798 275 c 0,26,27
 796 273 796 273 569 273 c 0,28,29
 543 273 543 273 517 273 c 128,-1,30
 491 273 491 273 469 273 c 128,-1,31
 447 273 447 273 427 272.5 c 128,-1,32
 407 272 407 272 391.5 272 c 128,-1,33
 376 272 376 272 365 272 c 128,-1,34
 354 272 354 272 348 271.5 c 2,35,-1
 342 271 l 1,36,37
 351 255 351 255 351 189 c 0,38,39
 351 121 351 121 342 105 c 0,40,41
 341 104 341 104 367 103.5 c 128,-1,42
 393 103 393 103 441 102.5 c 128,-1,43
 489 102 489 102 540 102 c 0,44,45
 739 102 739 102 741 100 c 0,46,47
 747 90 747 90 749 41 c 128,-1,48
 751 -8 751 -8 747 -36 c 0,49,50
 742 -64 742 -64 740 -66 c 128,-1,51
 738 -68 738 -68 511 -68 c 2,52,-1
 283 -67 l 1,53,-1
 281 -59 l 2,54,55
 274 -33 274 -33 274.5 21 c 128,-1,56
 275 75 275 75 282 95 c 1,57,-1
 284 102 l 1,58,-1
 227 103 l 1,59,-1
 170 104 l 1,60,-1
 167 112 l 1,61,62
 160 138 160 138 160.5 191.5 c 128,-1,63
 161 245 161 245 168 265 c 1,64,-1
 170 273 l 1,65,-1
 142 274 l 1,66,-1
 113 274 l 1,67,-1
 111 282 l 1,68,69
 98 328 98 328 106 405 c 0,70,71
 109 435 109 435 113 439.5 c 128,-1,72
 117 444 117 444 142 444 c 2,73,-1
 170 444 l 1,74,-1
 168 453 l 2,75,76
 161 481 161 481 161 535 c 128,-1,77
 161 589 161 589 168 608 c 1,78,-1
 171 614 l 1,79,-1
 227 614 l 1,80,-1
 284 614 l 1,81,-1
 281 624 l 1,82,83
 274 651 274 651 274.5 705.5 c 128,-1,84
 275 760 275 760 282 779 c 2,0,-1
623 606 m 1,85,-1
 625 614 l 1,86,-1
 483 614 l 2,87,88
 460 614 460 614 438.5 614 c 128,-1,89
 417 614 417 614 399.5 613.5 c 128,-1,90
 382 613 382 613 369 613 c 128,-1,91
 356 613 356 613 349 612.5 c 2,92,-1
 342 612 l 1,93,94
 351 596 351 596 351 530 c 0,95,96
 351 462 351 462 342 446 c 1,97,-1
 360.5 445.5 l 2,98,99
 379 445 379 445 412 444.5 c 128,-1,100
 445 444 445 444 483 444 c 2,101,-1
 625 444 l 1,102,-1
 623 453 l 2,103,104
 616 480 616 480 616 532.5 c 128,-1,105
 616 585 616 585 623 606 c 1,85,-1
282 1291 m 2,106,-1
 284 1297 l 1,107,-1
 370 1297 l 2,108,109
 454 1297 454 1297 456 1295 c 0,110,111
 461 1286 461 1286 463.5 1236.5 c 128,-1,112
 466 1187 466 1187 462 1162 c 0,113,114
 461 1160 461 1160 460.5 1152.5 c 128,-1,115
 460 1145 460 1145 460 1142 c 0,116,117
 458 1131 458 1131 456 1129 c 1,118,-1
 458.5 1128.5 l 2,119,120
 461 1128 461 1128 466 1127.5 c 128,-1,121
 471 1127 471 1127 478 1126.5 c 128,-1,122
 485 1126 485 1126 494 1126 c 128,-1,123
 503 1126 503 1126 512 1126 c 0,124,125
 568 1126 568 1126 570 1124 c 0,126,127
 575 1115 575 1115 577.5 1065.5 c 128,-1,128
 580 1016 580 1016 576 991 c 0,129,130
 575 988 575 988 574 980.5 c 128,-1,131
 573 973 573 973 573 971 c 0,132,133
 571 960 571 960 569 958 c 128,-1,134
 567 956 567 956 482 956 c 2,135,-1
 397 957 l 1,136,-1
 395 965 l 2,137,138
 388 990 388 990 388 1044.5 c 128,-1,139
 388 1099 388 1099 395 1119 c 1,140,-1
 398 1126 l 1,141,-1
 341 1127 l 1,142,-1
 283 1128 l 1,143,-1
 281 1136 l 2,144,145
 274 1162 274 1162 274.5 1217.5 c 128,-1,146
 275 1273 275 1273 282 1291 c 2,106,-1
EndSplineSet
EndChar

StartChar: x
Encoding: 120 120 24
Width: 851
VWidth: 0
Flags: W
HStem: -68 341<228 340.896 570.109 681.957> -67 169<170 227 684 748.104> 273 171<399.109 511> 444 341<227 340.904 570.016 682.957> 614 171<171 227 683.945 748.104>
VStem: 167 175<-59 11.7656 617.069 782.678> 218 190<102.156 267 446.069 613.875> 331 248<275.513 440.488> 509 175<104 265 446.451 609.869> 566 175<-65.9312 94 614.156 779>
LayerCount: 2
Back
Fore
SplineSet
168 779 m 1,0,-1
 171 785 l 1,1,-1
 256 785 l 2,2,3
 340 785 340 785 342 783 c 0,4,5
 348 773 348 773 350 724 c 128,-1,6
 352 675 352 675 348 647 c 0,7,8
 343 619 343 619 342 617 c 1,9,-1
 365.514 614.032 l 1,10,-1
 369 614 l 2,11,12
 397 614 397 614 399 612 c 0,13,14
 405 602 405 602 407 553 c 128,-1,15
 409 504 409 504 405 476 c 0,16,17
 400 448 400 448 399 446 c 1,18,-1
 406 445.5 l 2,19,20
 413 445 413 445 426.5 444.5 c 128,-1,21
 440 444 440 444 455 444 c 2,22,-1
 511 444 l 1,23,-1
 509 453 l 1,24,25
 496 500 496 500 504 576 c 0,26,27
 507 606 507 606 511 610 c 128,-1,28
 515 614 515 614 540 614 c 2,29,-1
 568 614 l 1,30,-1
 566 624 l 1,31,32
 559 652 559 652 559 706 c 128,-1,33
 559 760 559 760 566 779 c 1,34,-1
 569 785 l 1,35,-1
 654 785 l 2,36,37
 739 785 739 785 741 783 c 0,38,39
 747 773 747 773 749 724 c 128,-1,40
 751 675 751 675 747 647 c 0,41,42
 742 619 742 619 741 617 c 0,43,44
 738 614 738 614 711 614 c 0,45,46
 682 614 682 614 684 612 c 0,47,48
 692 598 692 598 692 530 c 0,49,50
 692 460 692 460 684 446 c 0,51,52
 682 444 682 444 625 444 c 0,53,54
 619 444 619 444 612.5 444 c 128,-1,55
 606 444 606 444 600.5 443.5 c 128,-1,56
 595 443 595 443 590 443 c 128,-1,57
 585 443 585 443 581.5 442.5 c 128,-1,58
 578 442 578 442 575 442 c 128,-1,59
 572 442 572 442 571 441.5 c 2,60,-1
 570 441 l 1,61,62
 579 425 579 425 579 360 c 0,63,64
 579 291 579 291 570 275 c 1,65,-1
 577 274.5 l 2,66,67
 584 274 584 274 597 273.5 c 128,-1,68
 610 273 610 273 625 273 c 0,69,70
 682 273 682 273 684 271 c 0,71,72
 690 261 690 261 692 212 c 128,-1,73
 694 163 694 163 690 135 c 0,74,75
 685 107 685 107 684 105 c 1,76,-1
 707.514 102.032 l 1,77,-1
 711 102 l 2,78,79
 739 102 739 102 741 100 c 0,80,81
 747 90 747 90 749 41 c 128,-1,82
 751 -8 751 -8 747 -36 c 0,83,84
 742 -64 742 -64 740 -66 c 128,-1,85
 738 -68 738 -68 653 -68 c 2,86,-1
 568 -67 l 1,87,-1
 566 -59 l 2,88,89
 559 -34 559 -34 559 20 c 128,-1,90
 559 74 559 74 566 94 c 2,91,-1
 569 102 l 1,92,-1
 540 103 l 1,93,-1
 511 104 l 1,94,-1
 509 112 l 2,95,96
 502 138 502 138 502 191 c 128,-1,97
 502 244 502 244 509 265 c 2,98,-1
 512 273 l 1,99,-1
 455 273 l 2,100,101
 446 273 446 273 437.5 273 c 128,-1,102
 429 273 429 273 422 272.5 c 128,-1,103
 415 272 415 272 409.5 272 c 128,-1,104
 404 272 404 272 401.5 271.5 c 2,105,-1
 399 271 l 1,106,107
 408 255 408 255 408 189 c 0,108,109
 408 121 408 121 399 105 c 1,110,111
 396 102 396 102 369 102 c 0,112,113
 340 102 340 102 342 100 c 0,114,115
 350 86 350 86 350 14 c 128,-1,116
 350 -58 350 -58 342 -66 c 0,117,118
 340 -68 340 -68 255 -68 c 2,119,-1
 170 -67 l 1,120,-1
 167 -59 l 1,121,122
 155 -16 155 -16 163 64 c 0,123,124
 166 94 166 94 170 98 c 128,-1,125
 174 102 174 102 199 102 c 2,126,-1
 227 102 l 1,127,-1
 225 112 l 1,128,129
 218 140 218 140 218 194 c 128,-1,130
 218 248 218 248 225 267 c 1,131,-1
 228 273 l 1,132,-1
 284 273 l 1,133,-1
 341 273 l 1,134,-1
 338 282 l 1,135,136
 331 309 331 309 331 362 c 128,-1,137
 331 415 331 415 338 436 c 2,138,-1
 341 444 l 1,139,-1
 284 444 l 1,140,-1
 226 445 l 1,141,-1
 224 453 l 2,142,143
 217 479 217 479 217.5 532.5 c 128,-1,144
 218 586 218 586 225 606 c 1,145,-1
 227 614 l 1,146,-1
 198 615 l 1,147,-1
 170 616 l 1,148,-1
 167 624 l 1,149,150
 160 650 160 650 160.5 705.5 c 128,-1,151
 161 761 161 761 168 779 c 1,0,-1
EndSplineSet
EndChar

StartChar: d
Encoding: 100 100 25
Width: 851
VWidth: 0
Flags: W
HStem: -68 170<343.078 569> 103 170<568 625> 274 170<113 170> 444 170<568 625> 614 171<342.039 577.104> 1106 20G<623 753.5>
VStem: 106 188<275.451 439.353> 161 190<105.034 270.709 444 608> 274.5 303.5<-65.7356 101.891 617.069 782.678> 561 244.5<104.125 268.353 445 609.869> 623 177<-65.7365 102 273 443 614 1120>
LayerCount: 2
Back
Fore
SplineSet
282 779 m 2,0,-1
 284 785 l 1,1,-1
 427 785 l 2,2,3
 568 785 568 785 570 783 c 0,4,5
 576 773 576 773 578 724 c 128,-1,6
 580 675 580 675 576 647 c 0,7,8
 571 619 571 619 570 617 c 0,9,10
 567 614 567 614 455 614 c 0,11,12
 442 614 442 614 429 614 c 128,-1,13
 416 614 416 614 405 614 c 128,-1,14
 394 614 394 614 384 613.5 c 128,-1,15
 374 613 374 613 366.5 613 c 128,-1,16
 359 613 359 613 353 613 c 128,-1,17
 347 613 347 613 344.5 612.5 c 2,18,-1
 342 612 l 1,19,20
 351 596 351 596 351 530 c 0,21,22
 351 462 351 462 342 446 c 0,23,24
 340 444 340 444 313 444 c 128,-1,25
 285.867 443.885 285.867 443.885 286 441 c 1,26,27
 294 427 294 427 294 360 c 0,28,29
 294 289 294 289 286 275 c 0,30,31
 284 273 284 273 313 273 c 0,32,33
 340 273 340 273 342 271 c 0,34,35
 347 262 347 262 350 212.5 c 128,-1,36
 353 163 353 163 349 138 c 0,37,38
 348 136 348 136 347 128 c 128,-1,39
 346 120 346 120 346 118 c 0,40,41
 344 106 344 106 343 105 c 1,42,-1
 348 104.5 l 2,43,44
 353 104 353 104 363.5 103.5 c 128,-1,45
 374 103 374 103 387 102.5 c 128,-1,46
 400 102 400 102 418 102 c 128,-1,47
 436 102 436 102 455 102 c 2,48,-1
 569 102 l 1,49,-1
 571 96 l 1,50,51
 579 76 579 76 578 9 c 128,-1,52
 577 -58 577 -58 569 -66 c 0,53,54
 567 -68 567 -68 425 -68 c 2,55,-1
 283 -67 l 1,56,-1
 281 -59 l 2,57,58
 274 -33 274 -33 274.5 21 c 128,-1,59
 275 75 275 75 282 95 c 1,60,-1
 284 102 l 1,61,-1
 227 103 l 1,62,-1
 170 104 l 1,63,-1
 167 112 l 1,64,65
 160 138 160 138 160.5 191.5 c 128,-1,66
 161 245 161 245 168 265 c 1,67,-1
 170 273 l 1,68,-1
 142 274 l 1,69,-1
 113 274 l 1,70,-1
 111 282 l 1,71,72
 98 328 98 328 106 405 c 0,73,74
 109 435 109 435 113 439.5 c 128,-1,75
 117 444 117 444 142 444 c 2,76,-1
 170 444 l 1,77,-1
 168 453 l 2,78,79
 161 481 161 481 161 535 c 128,-1,80
 161 589 161 589 168 608 c 1,81,-1
 171 614 l 1,82,-1
 227 614 l 1,83,-1
 284 614 l 1,84,-1
 281 624 l 1,85,86
 274 651 274 651 274.5 705.5 c 128,-1,87
 275 760 275 760 282 779 c 2,0,-1
623 1120 m 1,88,-1
 626 1126 l 1,89,-1
 711 1126 l 2,90,91
 796 1126 796 1126 798 1124 c 0,92,93
 799 1123 799 1123 801 1112 c 0,94,95
 814 1043 814 1043 800 969 c 0,96,97
 798 955 798 955 800 943 c 0,98,99
 805 917 805 917 805 870.5 c 128,-1,100
 805 824 805 824 800 798 c 0,101,102
 798 785 798 785 800 772 c 0,103,104
 805 746 805 746 805 699 c 128,-1,105
 805 652 805 652 800 627 c 0,106,107
 798 614 798 614 800 602 c 0,108,109
 806 573 806 573 805.5 515.5 c 128,-1,110
 805 458 805 458 798 447 c 0,111,112
 797 446 797 446 797.5 442.5 c 128,-1,113
 798 439 798 439 799 435 c 0,114,115
 806 411 806 411 805.5 349.5 c 128,-1,116
 805 288 805 288 798 276 c 0,117,118
 797 275 797 275 797.5 271.5 c 128,-1,119
 798 268 798 268 799 264 c 0,120,121
 806 240 806 240 805.5 178.5 c 128,-1,122
 805 117 805 117 798 105 c 0,123,124
 796 103 796 103 799 94 c 0,125,126
 807 69 807 69 806 5.5 c 128,-1,127
 805 -58 805 -58 797 -66 c 0,128,129
 795 -68 795 -68 710 -68 c 2,130,-1
 625 -67 l 1,131,-1
 623 -59 l 2,132,133
 616 -34 616 -34 616 20 c 128,-1,134
 616 74 616 74 623 94 c 1,135,-1
 625 102 l 1,136,-1
 597 103 l 1,137,-1
 568 104 l 1,138,-1
 566 112 l 1,139,140
 553 158 553 158 561 234 c 0,141,142
 564 264 564 264 568 268.5 c 128,-1,143
 572 273 572 273 597 273 c 2,144,-1
 625 273 l 1,145,-1
 623 282 l 2,146,147
 616 309 616 309 616 362 c 128,-1,148
 616 415 616 415 623 436 c 2,149,-1
 625 443 l 1,150,-1
 597 444 l 1,151,-1
 568 445 l 1,152,-1
 566 453 l 1,153,154
 553 499 553 499 561 576 c 0,155,156
 564 606 564 606 568 610 c 128,-1,157
 572 614 572 614 597 614 c 2,158,-1
 625 614 l 1,159,-1
 623 624 l 1,160,161
 616 651 616 651 616 703.5 c 128,-1,162
 616 756 616 756 623 777 c 0,163,164
 625 785 625 785 623 794 c 0,165,166
 616 821 616 821 616 874 c 128,-1,167
 616 927 616 927 623 948 c 0,168,169
 625 956 625 956 623 965 c 0,170,171
 616 993 616 993 616 1047 c 128,-1,172
 616 1101 616 1101 623 1120 c 1,88,-1
EndSplineSet
EndChar

StartChar: asciicircum
Encoding: 94 94 26
Width: 851
VWidth: 0
Flags: W
HStem: 616 169<227.13 284 683.945 748.104> 1106 20G<339 554>
VStem: 331.5 303.5<958.069 1123.68> 502 190<787.069 952.678> 568 179<617.069 784.875>
LayerCount: 2
Back
Fore
SplineSet
339 1120 m 2,0,-1
 341 1126 l 1,1,-1
 483 1126 l 2,2,3
 625 1126 625 1126 627 1124 c 0,4,5
 633 1114 633 1114 635 1065 c 128,-1,6
 637 1016 637 1016 633 988 c 0,7,8
 628 960 628 960 627 958 c 0,9,10
 625 956 625 956 654 956 c 0,11,12
 681 956 681 956 684 953 c 1,13,14
 690 943 690 943 692 894.5 c 128,-1,15
 694 846 694 846 690 818 c 0,16,17
 685 789 685 789 684 787 c 0,18,19
 682 785 682 785 711 785 c 0,20,21
 739 785 739 785 741 783 c 0,22,23
 747 773 747 773 749 724 c 128,-1,24
 751 675 751 675 747 647 c 0,25,26
 742 619 742 619 740 617 c 128,-1,27
 738 615 738 615 653 615 c 2,28,-1
 568 616 l 1,29,-1
 566 624 l 2,30,31
 559 650 559 650 559 703.5 c 128,-1,32
 559 757 559 757 566 777 c 2,33,-1
 569 785 l 1,34,-1
 540 786 l 1,35,-1
 511 786 l 1,36,-1
 509 794 l 2,37,38
 502 820 502 820 502 873.5 c 128,-1,39
 502 927 502 927 509 948 c 2,40,-1
 512 956 l 1,41,-1
 483 956 l 2,42,43
 455.867 955.885 455.867 955.885 456 953 c 1,44,45
 465 937 465 937 465 872 c 0,46,47
 465 803 465 803 456 787 c 0,48,49
 454 785 454 785 426 785 c 0,50,51
 397 785 397 785 399 783 c 0,52,53
 407 770 407 770 407 697.5 c 128,-1,54
 407 625 407 625 399 617 c 0,55,56
 397 615 397 615 311 615 c 1,57,-1
 226 616 l 1,58,-1
 224 624 l 1,59,60
 212 667 212 667 220 746 c 0,61,62
 223 776 223 776 227 780.5 c 128,-1,63
 231 785 231 785 256 785 c 2,64,-1
 284 785 l 1,65,-1
 281 794 l 1,66,67
 269 838 269 838 277 917 c 0,68,69
 280 947 280 947 284 951.5 c 128,-1,70
 288 956 288 956 313 956 c 2,71,-1
 341 956 l 1,72,-1
 338 965 l 1,73,74
 331 992 331 992 331.5 1046.5 c 128,-1,75
 332 1101 332 1101 339 1120 c 2,0,-1
EndSplineSet
EndChar

StartChar: z
Encoding: 122 122 27
Width: 851
VWidth: 0
Flags: W
HStem: -68 170.5<341.975 747.475> -67 340<171 341> 274 170<341 512> 444 341<512 682.917> 614 171<171 512 683.945 740.9>
VStem: 161 189.5<105.388 267> 167 577<-59 99.7089 617.034 782.709> 331.5 190<275.264 443.891> 502 189.5<446.266 611.548>
LayerCount: 2
Back
Fore
SplineSet
168 267 m 1,0,-1
 171 273 l 1,1,-1
 256 273 l 1,2,-1
 341 273 l 1,3,-1
 344 267 l 1,4,5
 351 247 351 247 350.5 182 c 128,-1,6
 350 117 350 117 342 105 c 0,7,8
 341 104 341 104 367 103.5 c 128,-1,9
 393 103 393 103 441 102.5 c 128,-1,10
 489 102 489 102 540 102 c 0,11,12
 739 102 739 102 741 100 c 0,13,14
 746 91 746 91 748.5 41.5 c 128,-1,15
 751 -8 751 -8 747 -33 c 0,16,17
 746 -36 746 -36 745 -43.5 c 128,-1,18
 744 -51 744 -51 744 -53 c 0,19,20
 742 -64 742 -64 740 -66 c 128,-1,21
 738 -68 738 -68 454 -68 c 2,22,-1
 170 -67 l 1,23,-1
 167 -59 l 1,24,25
 160 -33 160 -33 160.5 20.5 c 128,-1,26
 161 74 161 74 168 94 c 0,27,28
 170 102 170 102 168 112 c 0,29,30
 161 140 161 140 161 194 c 128,-1,31
 161 248 161 248 168 267 c 1,0,-1
339 437 m 1,32,-1
 341 444 l 1,33,-1
 427 444 l 1,34,-1
 512 444 l 1,35,-1
 514 437 l 1,36,37
 522 417 522 417 521.5 350 c 128,-1,38
 521 283 521 283 513 275 c 0,39,40
 512 274 512 274 425 274 c 2,41,-1
 340 274 l 1,42,-1
 338 282 l 2,43,44
 331 308 331 308 331.5 363.5 c 128,-1,45
 332 419 332 419 339 437 c 1,32,-1
168 779 m 1,46,-1
 171 785 l 1,47,-1
 455 785 l 2,48,49
 739 785 739 785 741 783 c 0,50,51
 746 774 746 774 748.5 724.5 c 128,-1,52
 751 675 751 675 747 650 c 0,53,54
 746 648 746 648 745 640 c 128,-1,55
 744 632 744 632 744 630 c 0,56,57
 742 618 742 618 741 617 c 0,58,59
 738 614 738 614 711 614 c 0,60,61
 682 614 682 614 684 612 c 0,62,63
 692 598 692 598 691.5 526 c 128,-1,64
 691 454 691 454 683 446 c 0,65,66
 681 444 681 444 596 444 c 2,67,-1
 511 445 l 1,68,-1
 509 453 l 2,69,70
 502 478 502 478 502 532.5 c 128,-1,71
 502 587 502 587 509 607 c 1,72,-1
 512 614 l 1,73,-1
 341 615 l 1,74,-1
 170 616 l 1,75,-1
 167 624 l 1,76,77
 160 650 160 650 160.5 705.5 c 128,-1,78
 161 761 161 761 168 779 c 1,46,-1
EndSplineSet
EndChar

StartChar: plus
Encoding: 43 43 28
Width: 851
VWidth: 0
Flags: W
HStem: 444 170<171 398 569.973 797.91>
VStem: 395 178<104 443.859 614.641 952.966>
LayerCount: 2
Back
Fore
SplineSet
396 949 m 1,0,-1
 398 956 l 1,1,-1
 483 956 l 2,2,3
 567 956 567 956 570 953 c 0,4,5
 571 952 571 952 573 941 c 0,6,7
 586 870 586 870 573 798 c 0,8,9
 571 784 571 784 573 772 c 0,10,11
 580 742 580 742 579 685 c 128,-1,12
 578 628 578 628 570 617 c 0,13,14
 569 616 569 616 583.5 615.5 c 128,-1,15
 598 615 598 615 625.5 614.5 c 128,-1,16
 653 614 653 614 682 614 c 0,17,18
 796 614 796 614 798 612 c 0,19,20
 804 602 804 602 806 553 c 128,-1,21
 808 504 808 504 803 476 c 0,22,23
 802 471 802 471 801.5 467 c 128,-1,24
 801 463 801 463 800.5 460.5 c 128,-1,25
 800 458 800 458 799.5 455.5 c 128,-1,26
 799 453 799 453 799 451.5 c 128,-1,27
 799 450 799 450 799 449 c 128,-1,28
 799 448 799 448 798.5 447 c 2,29,-1
 798 446 l 2,30,31
 796 444 796 444 683 444 c 2,32,-1
 569 444 l 1,33,-1
 572 435 l 2,34,35
 579 411 579 411 578 349.5 c 128,-1,36
 577 288 577 288 570 276 c 0,37,38
 568 274 568 274 572 264 c 1,39,40
 579 238 579 238 578 175.5 c 128,-1,41
 577 113 577 113 569 105 c 0,42,43
 567 103 567 103 482 103 c 2,44,-1
 397 104 l 1,45,-1
 395 112 l 2,46,47
 388 138 388 138 388 191.5 c 128,-1,48
 388 245 388 245 395 265 c 0,49,50
 397 273 397 273 395 282 c 0,51,52
 388 309 388 309 388 362 c 128,-1,53
 388 415 388 415 395 436 c 2,54,-1
 398 444 l 1,55,-1
 284 444 l 1,56,-1
 170 445 l 1,57,-1
 167 453 l 1,58,59
 160 479 160 479 160.5 534.5 c 128,-1,60
 161 590 161 590 168 608 c 1,61,-1
 171 614 l 1,62,-1
 284 614 l 1,63,-1
 398 614 l 1,64,-1
 395 624 l 1,65,66
 388 651 388 651 388 703.5 c 128,-1,67
 388 756 388 756 395 777 c 0,68,69
 397 785 397 785 395 794 c 0,70,71
 388 821 388 821 388.5 875.5 c 128,-1,72
 389 930 389 930 396 949 c 1,0,-1
EndSplineSet
EndChar

StartChar: bar
Encoding: 124 124 29
Width: 851
VWidth: 0
Flags: W
VStem: 395 178<-237 1291>
LayerCount: 2
Back
Fore
SplineSet
396 1291 m 2,0,-1
 398 1297 l 1,1,-1
 483 1297 l 2,2,3
 568 1297 568 1297 570 1295 c 0,4,5
 571 1294 571 1294 573 1283 c 0,6,7
 586 1211 586 1211 573 1139 c 0,8,9
 571 1126 571 1126 573 1114 c 0,10,11
 578 1088 578 1088 578 1041 c 128,-1,12
 578 994 578 994 573 969 c 0,13,14
 571 956 571 956 573 943 c 0,15,16
 578 917 578 917 578 870.5 c 128,-1,17
 578 824 578 824 573 798 c 0,18,19
 571 785 571 785 573 772 c 0,20,21
 579 743 579 743 578 685.5 c 128,-1,22
 577 628 577 628 570 617 c 0,23,24
 568 615 568 615 572 606 c 1,25,26
 579 582 579 582 578 520.5 c 128,-1,27
 577 459 577 459 570 447 c 0,28,29
 568 445 568 445 572 435 c 1,30,31
 579 411 579 411 578 349.5 c 128,-1,32
 577 288 577 288 570 276 c 0,33,34
 568 274 568 274 572 264 c 1,35,36
 579 240 579 240 578 178.5 c 128,-1,37
 577 117 577 117 570 105 c 0,38,39
 568 103 568 103 572 94 c 1,40,41
 579 70 579 70 578 8.5 c 128,-1,42
 577 -53 577 -53 570 -65 c 0,43,44
 568 -67 568 -67 572 -77 c 1,45,46
 579 -103 579 -103 578 -166 c 128,-1,47
 577 -229 577 -229 569 -237 c 0,48,49
 568 -238 568 -238 482 -238 c 2,50,-1
 397 -238 l 1,51,-1
 395 -230 l 2,52,53
 388 -204 388 -204 388 -150 c 128,-1,54
 388 -96 388 -96 395 -76 c 0,55,56
 397 -68 397 -68 395 -59 c 0,57,58
 388 -32 388 -32 388 20.5 c 128,-1,59
 388 73 388 73 395 94 c 0,60,61
 397 102 397 102 395 112 c 0,62,63
 388 139 388 139 388 191.5 c 128,-1,64
 388 244 388 244 395 265 c 0,65,66
 397 273 397 273 395 282 c 0,67,68
 388 309 388 309 388 362 c 128,-1,69
 388 415 388 415 395 436 c 0,70,71
 397 444 397 444 395 453 c 0,72,73
 388 480 388 480 388 532.5 c 128,-1,74
 388 585 388 585 395 606 c 0,75,76
 397 614 397 614 395 624 c 0,77,78
 388 651 388 651 388 703.5 c 128,-1,79
 388 756 388 756 395 777 c 0,80,81
 397 785 397 785 395 794 c 0,82,83
 388 821 388 821 388 874 c 128,-1,84
 388 927 388 927 395 948 c 0,85,86
 397 956 397 956 395 965 c 0,87,88
 388 992 388 992 388 1044.5 c 128,-1,89
 388 1097 388 1097 395 1118 c 0,90,91
 397 1126 397 1126 395 1136 c 0,92,93
 388 1163 388 1163 388.5 1217.5 c 128,-1,94
 389 1272 389 1272 396 1291 c 2,0,-1
EndSplineSet
EndChar

StartChar: multiply
Encoding: 215 215 30
Width: 851
VWidth: 0
Flags: W
HStem: 103 170<227.13 284 626.945 682.924> 956 170<228 284 634.055 691.104>
VStem: 217.5 132.5<958.069 1123.68> 274.5 132.5<787.069 952.678> 331 248<446.355 782.645> 509 118<275.1 436 787.451 951.353> 559 128<105.065 265 956.141 1120>
LayerCount: 2
Back
Fore
SplineSet
225 1120 m 1,0,-1
 228 1126 l 1,1,-1
 284 1126 l 2,2,3
 340 1126 340 1126 342 1124 c 0,4,5
 348 1114 348 1114 350 1065 c 128,-1,6
 352 1016 352 1016 348 988 c 0,7,8
 343 960 343 960 342 958 c 0,9,10
 340 956 340 956 369 956 c 0,11,12
 396 956 396 956 399 953 c 1,13,14
 405 943 405 943 407 894.5 c 128,-1,15
 409 846 409 846 405 818 c 0,16,17
 400 789 400 789 399 787 c 1,18,-1
 406 786.5 l 2,19,20
 413 786 413 786 426.5 785.5 c 128,-1,21
 440 785 440 785 455 785 c 2,22,-1
 511 785 l 1,23,-1
 509 794 l 1,24,25
 496 841 496 841 504 917 c 0,26,27
 507 947 507 947 511 951.5 c 128,-1,28
 515 956 515 956 540 956 c 2,29,-1
 568 956 l 1,30,-1
 566 965 l 2,31,32
 559 993 559 993 559 1047 c 128,-1,33
 559 1101 559 1101 566 1120 c 1,34,-1
 569 1126 l 1,35,-1
 626 1126 l 2,36,37
 682 1126 682 1126 684 1124 c 0,38,39
 690 1114 690 1114 692 1065 c 128,-1,40
 694 1016 694 1016 690 988 c 0,41,42
 685 960 685 960 684 958 c 0,43,44
 682 956 682 956 654 956 c 0,45,46
 626.867 955.885 626.867 955.885 627 953 c 1,47,48
 635 939 635 939 635 872 c 0,49,50
 635 801 635 801 627 787 c 0,51,52
 625 785 625 785 597 785 c 0,53,54
 568 785 568 785 570 783 c 0,55,56
 577 772 577 772 578 714 c 128,-1,57
 579 656 579 656 573 627 c 0,58,59
 571 614 571 614 573 602 c 0,60,61
 580 572 580 572 579 514.5 c 128,-1,62
 578 457 578 457 570 446 c 0,63,64
 568 444 568 444 597 444 c 0,65,66
 624 444 624 444 627 441 c 1,67,68
 633 431 633 431 635 383 c 128,-1,69
 637 335 637 335 633 306 c 0,70,71
 629 278 629 278 627 275 c 0,72,73
 625 273 625 273 654 273 c 0,74,75
 682 273 682 273 684 271 c 0,76,77
 690 262 690 262 692.5 211 c 128,-1,78
 695 160 695 160 690 137 c 0,79,80
 689 135 689 135 688 127.5 c 128,-1,81
 687 120 687 120 687 118 c 0,82,83
 685 107 685 107 683 105 c 128,-1,84
 681 103 681 103 624 103 c 1,85,-1
 568 104 l 1,86,-1
 566 112 l 2,87,88
 559 138 559 138 559 191.5 c 128,-1,89
 559 245 559 245 566 265 c 2,90,-1
 569 273 l 1,91,-1
 540 274 l 1,92,-1
 511 274 l 1,93,-1
 509 282 l 2,94,95
 502 308 502 308 502 361.5 c 128,-1,96
 502 415 502 415 509 436 c 2,97,-1
 512 444 l 1,98,-1
 455 444 l 2,99,100
 446 444 446 444 437 444 c 128,-1,101
 428 444 428 444 421.5 443.5 c 128,-1,102
 415 443 415 443 409.5 442.5 c 128,-1,103
 404 442 404 442 401.5 441.5 c 2,104,-1
 399 441 l 1,105,106
 408 425 408 425 408 360 c 0,107,108
 408 291 408 291 399 275 c 0,109,110
 397 273 397 273 369 273 c 0,111,112
 340 273 340 273 342 271 c 0,113,114
 350 258 350 258 350 185.5 c 128,-1,115
 350 113 350 113 342 105 c 0,116,117
 340 103 340 103 283 103 c 2,118,-1
 226 104 l 1,119,-1
 224 112 l 1,120,121
 212 155 212 155 220 234 c 0,122,123
 223 264 223 264 227 268.5 c 128,-1,124
 231 273 231 273 256 273 c 2,125,-1
 284 273 l 1,126,-1
 281 282 l 1,127,128
 269 326 269 326 277 405 c 0,129,130
 280 435 280 435 284 439.5 c 128,-1,131
 288 444 288 444 313 444 c 2,132,-1
 341 444 l 1,133,-1
 338 453 l 1,134,135
 331 480 331 480 331 532.5 c 128,-1,136
 331 585 331 585 338 606 c 0,137,138
 341 616 341 616 339 624 c 0,139,140
 332 651 332 651 331.5 703.5 c 128,-1,141
 331 756 331 756 338 777 c 2,142,-1
 341 785 l 1,143,-1
 312 786 l 1,144,-1
 283 786 l 1,145,-1
 281 794 l 2,146,147
 274 820 274 820 274.5 874 c 128,-1,148
 275 928 275 928 282 948 c 1,149,-1
 284 955 l 1,150,-1
 255 956 l 1,151,-1
 226 957 l 1,152,-1
 224 965 l 2,153,154
 217 991 217 991 217.5 1046.5 c 128,-1,155
 218 1102 218 1102 225 1120 c 1,0,-1
EndSplineSet
EndChar

StartChar: divide
Encoding: 247 247 31
Width: 851
VWidth: 0
Flags: W
HStem: -67 340<398 568.917> 445 169<171 804.567> 786 340<398 569.917>
VStem: 395 178<-65.7377 267 787.262 1120>
CounterMasks: 1 e0
LayerCount: 2
Back
Fore
SplineSet
396 267 m 2,0,-1
 398 273 l 1,1,-1
 483 273 l 2,2,3
 568 273 568 273 570 271 c 0,4,5
 575 262 575 262 577.5 212.5 c 128,-1,6
 580 163 580 163 576 138 c 0,7,8
 575 135 575 135 574 127.5 c 128,-1,9
 573 120 573 120 573 118 c 0,10,11
 571 102 571 102 573 90 c 0,12,13
 580 59 580 59 578.5 0.5 c 128,-1,14
 577 -58 577 -58 569 -66 c 0,15,16
 567 -68 567 -68 482 -68 c 2,17,-1
 397 -67 l 1,18,-1
 395 -59 l 2,19,20
 388 -34 388 -34 388 20 c 128,-1,21
 388 74 388 74 395 94 c 0,22,23
 397 102 397 102 395 112 c 0,24,25
 388 139 388 139 388.5 193.5 c 128,-1,26
 389 248 389 248 396 267 c 2,0,-1
168 608 m 1,27,-1
 171 614 l 1,28,-1
 483 614 l 2,29,30
 796 614 796 614 798 612 c 0,31,32
 803 603 803 603 805.5 553.5 c 128,-1,33
 808 504 808 504 804 479 c 0,34,35
 803 476 803 476 802 468.5 c 128,-1,36
 801 461 801 461 801 459 c 0,37,38
 799 448 799 448 797 446 c 128,-1,39
 795 444 795 444 482 444 c 1,40,-1
 170 445 l 1,41,-1
 167 453 l 1,42,43
 160 479 160 479 160.5 534.5 c 128,-1,44
 161 590 161 590 168 608 c 1,27,-1
396 1120 m 2,45,-1
 398 1126 l 1,46,-1
 483 1126 l 2,47,48
 568 1126 568 1126 570 1124 c 0,49,50
 575 1115 575 1115 577.5 1065.5 c 128,-1,51
 580 1016 580 1016 576 991 c 0,52,53
 575 988 575 988 574 980.5 c 128,-1,54
 573 973 573 973 573 971 c 0,55,56
 571 955 571 955 573 943 c 0,57,58
 580 912 580 912 578.5 853.5 c 128,-1,59
 577 795 577 795 569 787 c 0,60,61
 568 786 568 786 482 786 c 2,62,-1
 397 786 l 1,63,-1
 395 794 l 2,64,65
 388 820 388 820 388 874 c 128,-1,66
 388 928 388 928 395 948 c 0,67,68
 397 956 397 956 395 965 c 0,69,70
 388 992 388 992 388.5 1046.5 c 128,-1,71
 389 1101 389 1101 396 1120 c 2,45,-1
EndSplineSet
EndChar

StartChar: i
Encoding: 105 105 32
Width: 851
VWidth: 0
Flags: W
HStem: -67 169<228 398 570 748.104> 616 169<284 398> 957 169<398 568.917>
VStem: 388 190<105.355 613.891 958.065 1120>
LayerCount: 2
Back
Fore
SplineSet
282 779 m 2,0,-1
 284 785 l 1,1,-1
 427 785 l 2,2,3
 568 785 568 785 570 783 c 0,4,5
 571 782 571 782 573 771 c 0,6,7
 586 699 586 699 573 627 c 0,8,9
 571 614 571 614 573 602 c 0,10,11
 578 576 578 576 578 529 c 128,-1,12
 578 482 578 482 573 457 c 0,13,14
 571 444 571 444 573 431 c 0,15,16
 578 405 578 405 578 358.5 c 128,-1,17
 578 312 578 312 573 286 c 0,18,19
 571 273 571 273 573 260 c 1,20,21
 580 230 580 230 579 173 c 128,-1,22
 578 116 578 116 570 105 c 1,23,-1
 574 104.5 l 2,24,25
 578 104 578 104 586 103.5 c 128,-1,26
 594 103 594 103 604 102.5 c 128,-1,27
 614 102 614 102 627.5 102 c 128,-1,28
 641 102 641 102 654 102 c 0,29,30
 739 102 739 102 741 100 c 0,31,32
 747 90 747 90 749 41 c 128,-1,33
 751 -8 751 -8 747 -36 c 0,34,35
 742 -64 742 -64 740 -66 c 128,-1,36
 738 -68 738 -68 482 -68 c 2,37,-1
 226 -67 l 1,38,-1
 224 -59 l 2,39,40
 217 -33 217 -33 217.5 22.5 c 128,-1,41
 218 78 218 78 225 96 c 1,42,-1
 228 102 l 1,43,-1
 313 102 l 1,44,-1
 398 102 l 1,45,-1
 395 112 l 1,46,47
 388 139 388 139 388 191.5 c 128,-1,48
 388 244 388 244 395 265 c 0,49,50
 397 273 397 273 395 282 c 0,51,52
 388 309 388 309 388 362 c 128,-1,53
 388 415 388 415 395 436 c 0,54,55
 397 444 397 444 395 453 c 0,56,57
 388 480 388 480 388 533 c 128,-1,58
 388 586 388 586 395 607 c 1,59,-1
 398 614 l 1,60,-1
 341 615 l 1,61,-1
 283 616 l 1,62,-1
 281 624 l 2,63,64
 274 650 274 650 274.5 705.5 c 128,-1,65
 275 761 275 761 282 779 c 2,0,-1
396 1120 m 2,66,-1
 398 1126 l 1,67,-1
 483 1126 l 2,68,69
 568 1126 568 1126 570 1124 c 0,70,71
 575 1115 575 1115 577.5 1065.5 c 128,-1,72
 580 1016 580 1016 576 991 c 0,73,74
 575 988 575 988 574 980.5 c 128,-1,75
 573 973 573 973 573 971 c 0,76,77
 571 960 571 960 569 958 c 128,-1,78
 567 956 567 956 482 956 c 2,79,-1
 397 957 l 1,80,-1
 395 965 l 2,81,82
 388 991 388 991 388.5 1046.5 c 128,-1,83
 389 1102 389 1102 396 1120 c 2,66,-1
EndSplineSet
EndChar

StartChar: K
Encoding: 75 75 33
Width: 851
VWidth: 0
Flags: W
HStem: -68 21G<170 297.5 625 752.5> -68 21G<170 297.5 625 752.5> 444 170<342.039 455> 614 171<513.039 568> 1106 20G<168 298 623 753.5>
VStem: 161 361<445.5 611.488> 168 177<-66.875 444 617.355 1119.81> 445 190<274.5 436 617.451 782.549> 566 175<105.034 265 787.451 951.353> 623 176.5<-65.9353 102 958.016 1120>
LayerCount: 2
Back
Fore
SplineSet
168 1120 m 1,0,-1
 171 1126 l 1,1,-1
 256 1126 l 2,2,3
 340 1126 340 1126 342 1124 c 128,-1,4
 344 1122 344 1122 346 1112 c 0,5,6
 359 1043 359 1043 345 969 c 0,7,8
 343 955 343 955 345 943 c 0,9,10
 350 917 350 917 350 870.5 c 128,-1,11
 350 824 350 824 345 798 c 0,12,13
 343 785 343 785 345 772 c 1,14,15
 352 742 352 742 351 685 c 128,-1,16
 350 628 350 628 342 617 c 1,17,-1
 344.5 616.5 l 2,18,19
 347 616 347 616 352.5 615.5 c 128,-1,20
 358 615 358 615 364.5 614.5 c 128,-1,21
 371 614 371 614 380 614 c 128,-1,22
 389 614 389 614 398 614 c 2,23,-1
 455 614 l 1,24,-1
 452 624 l 1,25,26
 445 651 445 651 445.5 705.5 c 128,-1,27
 446 760 446 760 453 779 c 2,28,-1
 455 785 l 1,29,-1
 512 785 l 1,30,-1
 568 785 l 1,31,-1
 566 794 l 1,32,33
 553 841 553 841 561 917 c 0,34,35
 564 947 564 947 568 951.5 c 128,-1,36
 572 956 572 956 597 956 c 2,37,-1
 625 956 l 1,38,-1
 623 965 l 2,39,40
 616 993 616 993 616 1047 c 128,-1,41
 616 1101 616 1101 623 1120 c 1,42,-1
 626 1126 l 1,43,-1
 711 1126 l 2,44,45
 796 1126 796 1126 798 1124 c 0,46,47
 804 1114 804 1114 806 1065 c 128,-1,48
 808 1016 808 1016 803 988 c 0,49,50
 802 983 802 983 801.5 979 c 128,-1,51
 801 975 801 975 800.5 972.5 c 128,-1,52
 800 970 800 970 799.5 967.5 c 128,-1,53
 799 965 799 965 799 963.5 c 128,-1,54
 799 962 799 962 799 961 c 128,-1,55
 799 960 799 960 798.5 959 c 2,56,-1
 798 958 l 2,57,58
 796 956 796 956 768 956 c 0,59,60
 740.867 955.885 740.867 955.885 741 953 c 1,61,62
 749 939 749 939 749 872 c 0,63,64
 749 801 749 801 741 787 c 0,65,66
 739 785 739 785 682 785 c 0,67,68
 667 785 667 785 654 784.5 c 128,-1,69
 641 784 641 784 634 783.5 c 2,70,-1
 627 783 l 1,71,72
 635 769 635 769 635 701 c 0,73,74
 635 631 635 631 627 617 c 1,75,76
 624 614 624 614 569 614 c 0,77,78
 560 614 560 614 551.5 614 c 128,-1,79
 543 614 543 614 536 613.5 c 128,-1,80
 529 613 529 613 523.5 613 c 128,-1,81
 518 613 518 613 515.5 612.5 c 2,82,-1
 513 612 l 1,83,84
 522 596 522 596 522 530 c 0,85,86
 522 462 522 462 513 446 c 1,87,-1
 520 445.5 l 2,88,89
 527 445 527 445 540.5 444.5 c 128,-1,90
 554 444 554 444 569 444 c 0,91,92
 624 444 624 444 627 441 c 1,93,94
 633 431 633 431 635 382.5 c 128,-1,95
 637 334 637 334 633 306 c 0,96,97
 628 277 628 277 627 275 c 1,98,-1
 634 274.5 l 2,99,100
 641 274 641 274 654 273.5 c 128,-1,101
 667 273 667 273 682 273 c 0,102,103
 739 273 739 273 741 271 c 0,104,105
 746 262 746 262 748.5 212.5 c 128,-1,106
 751 163 751 163 747 138 c 0,107,108
 746 136 746 136 745 128 c 128,-1,109
 744 120 744 120 744 118 c 0,110,111
 742 106 742 106 741 105 c 1,112,-1
 764.514 102.032 l 1,113,-1
 768 102 l 2,114,115
 796 102 796 102 798 100 c 0,116,117
 803 91 803 91 805.5 41.5 c 128,-1,118
 808 -8 808 -8 804 -33 c 0,119,120
 803 -36 803 -36 802 -43.5 c 128,-1,121
 801 -51 801 -51 801 -53 c 0,122,123
 799 -64 799 -64 797 -66 c 128,-1,124
 795 -68 795 -68 710 -68 c 2,125,-1
 625 -67 l 1,126,-1
 623 -59 l 2,127,128
 616 -34 616 -34 616 20 c 128,-1,129
 616 74 616 74 623 94 c 1,130,-1
 625 102 l 1,131,-1
 597 103 l 1,132,-1
 568 104 l 1,133,-1
 566 112 l 2,134,135
 559 138 559 138 559 191 c 128,-1,136
 559 244 559 244 566 265 c 2,137,-1
 569 273 l 1,138,-1
 511 274 l 1,139,-1
 454 274 l 1,140,-1
 452 282 l 2,141,142
 445 308 445 308 445 362 c 128,-1,143
 445 416 445 416 452 436 c 2,144,-1
 455 444 l 1,145,-1
 398 444 l 1,146,-1
 342 444 l 1,147,-1
 344 435 l 1,148,149
 351 411 351 411 350.5 349.5 c 128,-1,150
 350 288 350 288 343 276 c 0,151,152
 342 275 342 275 342.5 271.5 c 128,-1,153
 343 268 343 268 344 264 c 0,154,155
 351 240 351 240 350.5 178.5 c 128,-1,156
 350 117 350 117 343 105 c 0,157,158
 341 103 341 103 344 94 c 0,159,160
 351 68 351 68 350.5 5 c 128,-1,161
 350 -58 350 -58 342 -66 c 0,162,163
 340 -68 340 -68 255 -68 c 2,164,-1
 170 -67 l 1,165,-1
 167 -59 l 1,166,167
 160 -33 160 -33 160.5 20.5 c 128,-1,168
 161 74 161 74 168 94 c 0,169,170
 170 102 170 102 168 112 c 0,171,172
 161 139 161 139 161 191.5 c 128,-1,173
 161 244 161 244 168 265 c 0,174,175
 170 273 170 273 168 282 c 0,176,177
 161 309 161 309 161 362 c 128,-1,178
 161 415 161 415 168 436 c 0,179,180
 170 444 170 444 168 453 c 0,181,182
 161 480 161 480 161 532.5 c 128,-1,183
 161 585 161 585 168 606 c 0,184,185
 170 614 170 614 168 624 c 0,186,187
 161 651 161 651 161 703.5 c 128,-1,188
 161 756 161 756 168 777 c 0,189,190
 170 785 170 785 168 794 c 0,191,192
 161 821 161 821 161 874 c 128,-1,193
 161 927 161 927 168 948 c 0,194,195
 170 956 170 956 168 965 c 0,196,197
 161 993 161 993 161 1047 c 128,-1,198
 161 1101 161 1101 168 1120 c 1,0,-1
EndSplineSet
EndChar

StartChar: J
Encoding: 74 74 34
Width: 851
VWidth: 0
Flags: W
HStem: -68 170<286.078 511> 102 171<114 225.767> 956 170<398 512 691.045 748.104>
VStem: 104 185<105.034 267> 509 175<105.387 955.875>
LayerCount: 2
Back
Fore
SplineSet
396 1120 m 2,0,-1
 398 1126 l 1,1,-1
 569 1126 l 2,2,3
 739 1126 739 1126 741 1124 c 0,4,5
 747 1114 747 1114 749 1065 c 128,-1,6
 751 1016 751 1016 747 988 c 0,7,8
 742 960 742 960 741 958 c 0,9,10
 739 956 739 956 711 956 c 0,11,12
 683.867 955.885 683.867 955.885 684 953 c 1,13,14
 691 942 691 942 692 884.5 c 128,-1,15
 693 827 693 827 687 798 c 0,16,17
 685 785 685 785 687 772 c 0,18,19
 693 743 693 743 692 685.5 c 128,-1,20
 691 628 691 628 684 617 c 0,21,22
 682 615 682 615 686 606 c 1,23,24
 693 582 693 582 692 520.5 c 128,-1,25
 691 459 691 459 684 447 c 0,26,27
 682 445 682 445 686 435 c 1,28,29
 693 411 693 411 692 349.5 c 128,-1,30
 691 288 691 288 684 276 c 0,31,32
 682 274 682 274 686 264 c 1,33,34
 693 239 693 239 692 178 c 128,-1,35
 691 117 691 117 684 105 c 1,36,37
 681 102 681 102 654 102 c 2,38,-1
 626 102 l 1,39,-1
 629 93 l 1,40,41
 636 67 636 67 635 4.5 c 128,-1,42
 634 -58 634 -58 626 -66 c 0,43,44
 624 -68 624 -68 425 -68 c 2,45,-1
 226 -67 l 1,46,-1
 224 -59 l 2,47,48
 217 -33 217 -33 217.5 21 c 128,-1,49
 218 75 218 75 225 95 c 1,50,-1
 227 102 l 1,51,-1
 170 103 l 1,52,-1
 113 104 l 1,53,-1
 111 112 l 2,54,55
 104 138 104 138 104 193.5 c 128,-1,56
 104 249 104 249 111 267 c 1,57,-1
 114 273 l 1,58,-1
 199 273 l 2,59,60
 284 273 284 273 286 271 c 0,61,62
 291 262 291 262 293.5 212.5 c 128,-1,63
 296 163 296 163 292 138 c 0,64,65
 291 136 291 136 290 128 c 128,-1,66
 289 120 289 120 289 118 c 0,67,68
 287 106 287 106 286 105 c 1,69,-1
 291 104.5 l 2,70,71
 296 104 296 104 306.5 103.5 c 128,-1,72
 317 103 317 103 330 102.5 c 128,-1,73
 343 102 343 102 361 102 c 128,-1,74
 379 102 379 102 398 102 c 2,75,-1
 511 102 l 1,76,-1
 509 112 l 1,77,78
 502 139 502 139 502 191.5 c 128,-1,79
 502 244 502 244 509 265 c 0,80,81
 511 273 511 273 509 282 c 0,82,83
 502 309 502 309 502 362 c 128,-1,84
 502 415 502 415 509 436 c 0,85,86
 511 444 511 444 509 453 c 0,87,88
 502 480 502 480 502 532.5 c 128,-1,89
 502 585 502 585 509 606 c 0,90,91
 511 614 511 614 509 624 c 0,92,93
 502 651 502 651 502 703.5 c 128,-1,94
 502 756 502 756 509 777 c 0,95,96
 511 785 511 785 509 794 c 0,97,98
 502 821 502 821 502 874 c 128,-1,99
 502 927 502 927 509 948 c 2,100,-1
 512 956 l 1,101,-1
 454 956 l 1,102,-1
 397 957 l 1,103,-1
 395 965 l 2,104,105
 388 991 388 991 388.5 1046.5 c 128,-1,106
 389 1102 389 1102 396 1120 c 2,0,-1
EndSplineSet
EndChar

StartChar: Otilde
Encoding: 213 213 35
Width: 851
VWidth: 0
Flags: W
HStem: -68 170<341.973 568> 956 170<341.973 569> 1298 170<171 284 513 683> 1468 170<284 452.782 683 805.104>
VStem: 104 189<275.355 780.353> 160.5 133.5<1306 1461> 161 190<105.1 270.678 787.513 952.488> 274.5 360<-65.7344 99.5483 958.069 1123.68> 274.5 241.5<1470.03 1632> 445 247<1299.26 1467.88> 559 190<105.387 268.353 787.069 952.678> 616 189<275.355 782.966> 679 125<1477 1632>
LayerCount: 2
Back
Fore
SplineSet
282 1120 m 2,0,-1
 284 1126 l 1,1,-1
 455 1126 l 2,2,3
 625 1126 625 1126 627 1124 c 0,4,5
 633 1114 633 1114 635 1065 c 128,-1,6
 637 1016 637 1016 633 988 c 0,7,8
 628 960 628 960 627 958 c 1,9,-1
 634 957.5 l 2,10,11
 641 957 641 957 654 956.5 c 128,-1,12
 667 956 667 956 682 956 c 0,13,14
 738 956 738 956 741 953 c 1,15,16
 747 943 747 943 749 894.5 c 128,-1,17
 751 846 751 846 747 818 c 0,18,19
 742 789 742 789 741 787 c 0,20,21
 739 785 739 785 768 785 c 0,22,23
 796 785 796 785 798 783 c 0,24,25
 799 782 799 782 801 771 c 0,26,27
 814 702 814 702 800 627 c 0,28,29
 798 614 798 614 800 602 c 0,30,31
 805 576 805 576 805 529 c 128,-1,32
 805 482 805 482 800 457 c 0,33,34
 798 444 798 444 800 431 c 1,35,36
 807 401 807 401 806 343.5 c 128,-1,37
 805 286 805 286 798 275 c 0,38,39
 796 273 796 273 768 273 c 2,40,-1
 740 273 l 1,41,-1
 742 264 l 1,42,43
 749 239 749 239 748.5 178 c 128,-1,44
 748 117 748 117 741 105 c 1,45,46
 738 102 738 102 682 102 c 0,47,48
 667 102 667 102 654 101.5 c 128,-1,49
 641 101 641 101 634 100.5 c 2,50,-1
 627 100 l 1,51,52
 635 86 635 86 634.5 14 c 128,-1,53
 634 -58 634 -58 626 -66 c 0,54,55
 624 -68 624 -68 454 -68 c 2,56,-1
 283 -67 l 1,57,-1
 281 -59 l 2,58,59
 274 -33 274 -33 274.5 21 c 128,-1,60
 275 75 275 75 282 95 c 1,61,-1
 284 102 l 1,62,-1
 227 103 l 1,63,-1
 170 104 l 1,64,-1
 167 112 l 1,65,66
 160 138 160 138 160.5 191.5 c 128,-1,67
 161 245 161 245 168 265 c 1,68,-1
 170 273 l 1,69,-1
 142 274 l 1,70,-1
 113 274 l 1,71,-1
 111 282 l 2,72,73
 104 308 104 308 104 362 c 128,-1,74
 104 416 104 416 111 436 c 0,75,76
 113 444 113 444 111 453 c 0,77,78
 104 480 104 480 104 532.5 c 128,-1,79
 104 585 104 585 111 606 c 0,80,81
 113 614 113 614 111 624 c 0,82,83
 98 671 98 671 106 746 c 0,84,85
 109 776 109 776 113 780.5 c 128,-1,86
 117 785 117 785 142 785 c 2,87,-1
 170 785 l 1,88,-1
 168 794 l 2,89,90
 161 822 161 822 161 876 c 128,-1,91
 161 930 161 930 168 949 c 1,92,-1
 171 956 l 1,93,-1
 227 956 l 1,94,-1
 284 956 l 1,95,-1
 281 965 l 1,96,97
 274 992 274 992 274.5 1046.5 c 128,-1,98
 275 1101 275 1101 282 1120 c 2,0,-1
566 948 m 2,99,-1
 569 956 l 1,100,-1
 455 956 l 2,101,102
 426 956 426 956 398.5 955.5 c 128,-1,103
 371 955 371 955 356 954.5 c 128,-1,104
 341 954 341 954 342 953 c 0,105,106
 351 937 351 937 351 872 c 0,107,108
 351 803 351 803 342 787 c 0,109,110
 340 785 340 785 313 785 c 0,111,112
 284 785 284 785 286 783 c 0,113,114
 293 772 293 772 293.5 714 c 128,-1,115
 294 656 294 656 288 627 c 0,116,117
 286 614 286 614 288 602 c 0,118,119
 293 576 293 576 293 529 c 128,-1,120
 293 482 293 482 288 457 c 0,121,122
 286 444 286 444 288 431 c 1,123,124
 295 401 295 401 294 343.5 c 128,-1,125
 293 286 293 286 286 275 c 0,126,127
 284 273 284 273 313 273 c 0,128,129
 340 273 340 273 342 271 c 0,130,131
 348 261 348 261 350 212.5 c 128,-1,132
 352 164 352 164 348 135 c 0,133,134
 344 108 344 108 342 105 c 0,135,136
 341 104 341 104 356 103.5 c 128,-1,137
 371 103 371 103 398.5 102.5 c 128,-1,138
 426 102 426 102 455 102 c 2,139,-1
 568 102 l 1,140,-1
 566 112 l 1,141,142
 553 159 553 159 561 234 c 0,143,144
 564 264 564 264 568 268.5 c 128,-1,145
 572 273 572 273 597 273 c 2,146,-1
 625 273 l 1,147,-1
 623 282 l 2,148,149
 616 309 616 309 616 362 c 128,-1,150
 616 415 616 415 623 436 c 0,151,152
 625 444 625 444 623 453 c 0,153,154
 616 480 616 480 616 532.5 c 128,-1,155
 616 585 616 585 623 606 c 0,156,157
 625 614 625 614 623 624 c 0,158,159
 616 651 616 651 616 703.5 c 128,-1,160
 616 756 616 756 623 777 c 1,161,-1
 625 785 l 1,162,-1
 597 786 l 1,163,-1
 568 786 l 1,164,-1
 566 794 l 2,165,166
 559 820 559 820 559 873.5 c 128,-1,167
 559 927 559 927 566 948 c 2,99,-1
168 1461 m 2,168,-1
 171 1468 l 1,169,-1
 228 1468 l 1,170,-1
 284 1468 l 1,171,-1
 287 1461 l 2,172,173
 295 1441 295 1441 294 1374 c 128,-1,174
 293 1307 293 1307 285 1299 c 0,175,176
 284 1298 284 1298 226 1298 c 2,177,-1
 170 1298 l 1,178,-1
 167 1306 l 1,179,180
 160 1332 160 1332 160.5 1387.5 c 128,-1,181
 161 1443 161 1443 168 1461 c 2,168,-1
680 1632 m 1,182,-1
 683 1638 l 1,183,-1
 739 1638 l 2,184,185
 796 1638 796 1638 798 1636 c 0,186,187
 804 1626 804 1626 806 1577 c 128,-1,188
 808 1528 808 1528 804 1500 c 0,189,190
 799 1472 799 1472 797 1470 c 128,-1,191
 795 1468 795 1468 738 1468 c 1,192,-1
 682 1469 l 1,193,-1
 679 1477 l 1,194,195
 672 1503 672 1503 672.5 1558.5 c 128,-1,196
 673 1614 673 1614 680 1632 c 1,182,-1
282 1632 m 2,197,-1
 284 1638 l 1,198,-1
 398 1638 l 2,199,200
 511 1638 511 1638 513 1636 c 0,201,202
 518 1627 518 1627 520.5 1577.5 c 128,-1,203
 523 1528 523 1528 519 1503 c 0,204,205
 518 1501 518 1501 517 1493.5 c 128,-1,206
 516 1486 516 1486 516 1484 c 0,207,208
 514 1471 514 1471 513 1470 c 1,209,-1
 523.5 1469.5 l 2,210,211
 534 1469 534 1469 553.5 1468.5 c 128,-1,212
 573 1468 573 1468 597 1468 c 2,213,-1
 683 1468 l 1,214,-1
 685 1461 l 1,215,216
 693 1441 693 1441 692 1374 c 128,-1,217
 691 1307 691 1307 683 1299 c 0,218,219
 682 1298 682 1298 567 1298 c 2,220,-1
 454 1298 l 1,221,-1
 452 1306 l 2,222,223
 445 1332 445 1332 445 1386 c 128,-1,224
 445 1440 445 1440 452 1460 c 2,225,-1
 455 1468 l 1,226,-1
 369 1468 l 1,227,-1
 283 1469 l 1,228,-1
 281 1477 l 2,229,230
 274 1503 274 1503 274.5 1558.5 c 128,-1,231
 275 1614 275 1614 282 1632 c 2,197,-1
EndSplineSet
EndChar

StartChar: n
Encoding: 110 110 36
Width: 851
VWidth: 0
Flags: W
HStem: -68 21G<113 240.5 625 752.5> -68 21G<113 240.5 625 752.5> 616 169<341 625>
VStem: 104 242<446.034 613.483> 111 177<-65.7366 444.25 617.016 779> 616 189<-65.7366 611.966>
LayerCount: 2
Back
Fore
SplineSet
339 779 m 2,0,-1
 341 785 l 1,1,-1
 512 785 l 2,2,3
 682 785 682 785 684 783 c 0,4,5
 690 773 690 773 692 724 c 128,-1,6
 694 675 694 675 690 647 c 0,7,8
 685 619 685 619 684 617 c 1,9,-1
 686.5 616.5 l 2,10,11
 689 616 689 616 694 615.5 c 128,-1,12
 699 615 699 615 706 614.5 c 128,-1,13
 713 614 713 614 721.5 614 c 128,-1,14
 730 614 730 614 739 614 c 0,15,16
 796 614 796 614 798 612 c 0,17,18
 799 611 799 611 801 600 c 0,19,20
 814 531 814 531 800 457 c 0,21,22
 798 443 798 443 800 431 c 0,23,24
 805 405 805 405 805 358.5 c 128,-1,25
 805 312 805 312 800 286 c 0,26,27
 798 273 798 273 800 260 c 0,28,29
 806 231 806 231 805.5 173.5 c 128,-1,30
 805 116 805 116 798 105 c 0,31,32
 796 103 796 103 799 94 c 0,33,34
 806 68 806 68 805.5 5 c 128,-1,35
 805 -58 805 -58 797 -66 c 0,36,37
 795 -68 795 -68 710 -68 c 2,38,-1
 625 -67 l 1,39,-1
 623 -59 l 2,40,41
 616 -34 616 -34 616 20 c 128,-1,42
 616 74 616 74 623 94 c 0,43,44
 625 102 625 102 623 112 c 0,45,46
 616 139 616 139 616 191.5 c 128,-1,47
 616 244 616 244 623 265 c 0,48,49
 625 273 625 273 623 282 c 0,50,51
 616 309 616 309 616 362 c 128,-1,52
 616 415 616 415 623 436 c 0,53,54
 625 444 625 444 623 453 c 0,55,56
 616 480 616 480 616 533 c 128,-1,57
 616 586 616 586 623 607 c 2,58,-1
 625 614 l 1,59,-1
 483 615 l 1,60,-1
 340 616 l 1,61,-1
 338 624 l 2,62,63
 331 650 331 650 331.5 705.5 c 128,-1,64
 332 761 332 761 339 779 c 2,0,-1
111 779 m 1,65,-1
 114 785 l 1,66,-1
 199 785 l 2,67,68
 284 785 284 785 286 783 c 0,69,70
 292 773 292 773 294 724 c 128,-1,71
 296 675 296 675 291 647 c 0,72,73
 290 642 290 642 289.5 638 c 128,-1,74
 289 634 289 634 288.5 631.5 c 128,-1,75
 288 629 288 629 287.5 626.5 c 128,-1,76
 287 624 287 624 287 622.5 c 128,-1,77
 287 621 287 621 287 620 c 128,-1,78
 287 619 287 619 286.5 618 c 2,79,-1
 286 617 l 1,80,-1
 309.514 614.032 l 1,81,-1
 313 614 l 2,82,83
 316 614 316 614 322.233 614.029 c 0,84,85
 336 614 336 614 339 613.5 c 128,-1,86
 342 613 342 613 344 608 c 0,87,88
 349 595 349 595 351 548 c 128,-1,89
 353 501 353 501 349 479 c 0,90,91
 348 477 348 477 347 469.5 c 128,-1,92
 346 462 346 462 346 460 c 0,93,94
 344 447 344 447 343 446 c 0,95,96
 341 444 341 444 313 444 c 0,97,98
 285.867 443.885 285.867 443.885 286 441 c 1,99,100
 293 430 293 430 293.5 372.5 c 128,-1,101
 294 315 294 315 288 286 c 0,102,103
 286 273 286 273 288 260 c 0,104,105
 294 231 294 231 293.5 173.5 c 128,-1,106
 293 116 293 116 286 105 c 0,107,108
 284 103 284 103 287 94 c 0,109,110
 294 68 294 68 293.5 5 c 128,-1,111
 293 -58 293 -58 285 -66 c 0,112,113
 283 -68 283 -68 198 -68 c 2,114,-1
 113 -67 l 1,115,-1
 111 -59 l 2,116,117
 104 -34 104 -34 104 20 c 128,-1,118
 104 74 104 74 111 94 c 0,119,120
 113 102 113 102 111 112 c 0,121,122
 104 139 104 139 104 191.5 c 128,-1,123
 104 244 104 244 111 265 c 0,124,125
 113 273 113 273 111 282 c 0,126,127
 104 309 104 309 104 362 c 128,-1,128
 104 415 104 415 111 436 c 0,129,130
 113 444 113 444 111 453 c 0,131,132
 104 480 104 480 104 532.5 c 128,-1,133
 104 585 104 585 111 606 c 0,134,135
 113 614 113 614 111 624 c 0,136,137
 104 652 104 652 104 706 c 128,-1,138
 104 760 104 760 111 779 c 1,65,-1
EndSplineSet
EndChar

StartChar: g
Encoding: 103 103 37
Width: 851
VWidth: 0
Flags: W
HStem: -408 169<284 568> -68 170<343.078 569> 103 170<568 625> 274 170<113 170> 614 171<342 625>
VStem: 106 188<275.451 439.353> 161 190<105.034 270.709 444 608> 274.5 303.5<-65.7356 101.891> 561 244.5<104.125 268.353> 561 188<-236.549 -72.6469> 616 189<-65.6129 101.875 273.141 612.875>
LayerCount: 2
Back
Fore
SplineSet
282 779 m 2,0,-1
 284 785 l 1,1,-1
 540 785 l 2,2,3
 796 785 796 785 798 783 c 0,4,5
 799 782 799 782 801 771 c 0,6,7
 814 702 814 702 800 627 c 0,8,9
 798 614 798 614 800 602 c 0,10,11
 805 576 805 576 805 529 c 128,-1,12
 805 482 805 482 800 457 c 0,13,14
 798 444 798 444 800 431 c 0,15,16
 805 405 805 405 805 358.5 c 128,-1,17
 805 312 805 312 800 286 c 0,18,19
 798 273 798 273 800 260 c 0,20,21
 806 231 806 231 805.5 173.5 c 128,-1,22
 805 116 805 116 798 105 c 0,23,24
 796 103 796 103 799 94 c 0,25,26
 806 69 806 69 805.5 7.5 c 128,-1,27
 805 -54 805 -54 798 -66 c 0,28,29
 796 -68 796 -68 768 -68 c 0,30,31
 740.867 -68.1151 740.867 -68.1151 741 -71 c 1,32,33
 749 -85 749 -85 749 -152 c 0,34,35
 749 -223 749 -223 741 -237 c 0,36,37
 739 -239 739 -239 682 -239 c 0,38,39
 667 -239 667 -239 654 -239.5 c 128,-1,40
 641 -240 641 -240 634 -240.5 c 2,41,-1
 627 -241 l 1,42,43
 635 -255 635 -255 634.5 -327 c 128,-1,44
 634 -399 634 -399 626 -407 c 0,45,46
 624 -409 624 -409 454 -409 c 2,47,-1
 283 -408 l 1,48,-1
 281 -400 l 2,49,50
 274 -374 274 -374 274.5 -318.5 c 128,-1,51
 275 -263 275 -263 282 -245 c 2,52,-1
 284 -239 l 1,53,-1
 426 -239 l 1,54,-1
 568 -239 l 1,55,-1
 566 -230 l 1,56,57
 553 -183 553 -183 561 -107 c 0,58,59
 564 -77 564 -77 568 -72.5 c 128,-1,60
 572 -68 572 -68 597 -68 c 2,61,-1
 625 -68 l 1,62,-1
 623 -59 l 2,63,64
 616 -32 616 -32 616 20.5 c 128,-1,65
 616 73 616 73 623 94 c 1,66,-1
 625 102 l 1,67,-1
 597 103 l 1,68,-1
 568 104 l 1,69,-1
 566 112 l 1,70,71
 553 158 553 158 561 234 c 0,72,73
 564 264 564 264 568 268.5 c 128,-1,74
 572 273 572 273 597 273 c 2,75,-1
 625 273 l 1,76,-1
 623 282 l 2,77,78
 616 309 616 309 616 362 c 128,-1,79
 616 415 616 415 623 436 c 0,80,81
 625 444 625 444 623 453 c 0,82,83
 616 480 616 480 616 532.5 c 128,-1,84
 616 585 616 585 623 606 c 1,85,-1
 625 614 l 1,86,-1
 483 614 l 2,87,88
 460 614 460 614 438.5 614 c 128,-1,89
 417 614 417 614 399.5 613.5 c 128,-1,90
 382 613 382 613 369 613 c 128,-1,91
 356 613 356 613 349 612.5 c 2,92,-1
 342 612 l 1,93,94
 351 596 351 596 351 530 c 0,95,96
 351 462 351 462 342 446 c 0,97,98
 340 444 340 444 313 444 c 128,-1,99
 285.867 443.885 285.867 443.885 286 441 c 1,100,101
 294 427 294 427 294 360 c 0,102,103
 294 289 294 289 286 275 c 0,104,105
 284 273 284 273 313 273 c 0,106,107
 340 273 340 273 342 271 c 0,108,109
 347 262 347 262 350 212.5 c 128,-1,110
 353 163 353 163 349 138 c 0,111,112
 348 136 348 136 347 128 c 128,-1,113
 346 120 346 120 346 118 c 0,114,115
 344 106 344 106 343 105 c 1,116,-1
 348 104.5 l 2,117,118
 353 104 353 104 363.5 103.5 c 128,-1,119
 374 103 374 103 387 102.5 c 128,-1,120
 400 102 400 102 418 102 c 128,-1,121
 436 102 436 102 455 102 c 2,122,-1
 569 102 l 1,123,-1
 571 96 l 1,124,125
 579 76 579 76 578 9 c 128,-1,126
 577 -58 577 -58 569 -66 c 0,127,128
 567 -68 567 -68 425 -68 c 2,129,-1
 283 -67 l 1,130,-1
 281 -59 l 2,131,132
 274 -33 274 -33 274.5 21 c 128,-1,133
 275 75 275 75 282 95 c 1,134,-1
 284 102 l 1,135,-1
 227 103 l 1,136,-1
 170 104 l 1,137,-1
 167 112 l 1,138,139
 160 138 160 138 160.5 191.5 c 128,-1,140
 161 245 161 245 168 265 c 1,141,-1
 170 273 l 1,142,-1
 142 274 l 1,143,-1
 113 274 l 1,144,-1
 111 282 l 1,145,146
 98 328 98 328 106 405 c 0,147,148
 109 435 109 435 113 439.5 c 128,-1,149
 117 444 117 444 142 444 c 2,150,-1
 170 444 l 1,151,-1
 168 453 l 2,152,153
 161 481 161 481 161 535 c 128,-1,154
 161 589 161 589 168 608 c 1,155,-1
 171 614 l 1,156,-1
 227 614 l 1,157,-1
 284 614 l 1,158,-1
 281 624 l 1,159,160
 274 651 274 651 274.5 705.5 c 128,-1,161
 275 760 275 760 282 779 c 2,0,-1
EndSplineSet
EndChar

StartChar: yen
Encoding: 165 165 38
Width: 851
VWidth: 0
Flags: W
HStem: -68 21G<397 524.5> -68 21G<397 524.5> 102 171.5<228 398 570 740.886> 444 170<227.13 284 684 748.104> 956 170<171 227 748.055 797.91>
VStem: 160.5 247.5<855.5 1120> 217.5 190.5<787.355 954.891> 281 175<617.065 785> 388 191<-65.7367 101.859 275.513 440.488> 504 188<617.451 780.353> 559 240<958.016 1120> 559 190<787.451 956.782>
LayerCount: 2
Back
Fore
SplineSet
168 1120 m 1,0,-1
 171 1126 l 1,1,-1
 284 1126 l 2,2,3
 397 1126 397 1126 399 1124 c 128,-1,4
 401 1122 401 1122 403 1112 c 0,5,6
 416 1043 416 1043 402 969 c 0,7,8
 400 955 400 955 402 943 c 0,9,10
 409 913 409 913 408 855.5 c 128,-1,11
 407 798 407 798 399 787 c 0,12,13
 397 785 397 785 426 785 c 0,14,15
 454 785 454 785 456 783 c 0,16,17
 462 774 462 774 464.5 723 c 128,-1,18
 467 672 467 672 462 649 c 0,19,20
 461 647 461 647 460.5 640 c 128,-1,21
 460 633 460 633 460 630 c 0,22,23
 458 619 458 619 456 617 c 1,24,-1
 479.514 614.032 l 1,25,-1
 483 614 l 1,26,-1
 511 614 l 1,27,-1
 509 624 l 1,28,29
 496 671 496 671 504 746 c 0,30,31
 507 776 507 776 511 780.5 c 128,-1,32
 515 785 515 785 540 785 c 2,33,-1
 568 785 l 1,34,-1
 566 794 l 2,35,36
 559 821 559 821 559 874 c 128,-1,37
 559 927 559 927 566 948 c 0,38,39
 568 956 568 956 566 965 c 0,40,41
 559 993 559 993 559 1047 c 128,-1,42
 559 1101 559 1101 566 1120 c 1,43,-1
 569 1126 l 1,44,-1
 683 1126 l 2,45,46
 796 1126 796 1126 798 1124 c 0,47,48
 804 1114 804 1114 806 1065 c 128,-1,49
 808 1016 808 1016 803 988 c 0,50,51
 802 983 802 983 801.5 979 c 128,-1,52
 801 975 801 975 800.5 972.5 c 128,-1,53
 800 970 800 970 799.5 967.5 c 128,-1,54
 799 965 799 965 799 963.5 c 128,-1,55
 799 962 799 962 799 961 c 128,-1,56
 799 960 799 960 798.5 959 c 2,57,-1
 798 958 l 2,58,59
 796 956 796 956 768 956 c 0,60,61
 740.867 955.885 740.867 955.885 741 953 c 1,62,63
 749 939 749 939 749 872 c 0,64,65
 749 801 749 801 741 787 c 0,66,67
 739 785 739 785 711 785 c 0,68,69
 682 785 682 785 684 783 c 0,70,71
 692 769 692 769 692 701 c 0,72,73
 692 631 692 631 684 617 c 1,74,-1
 707.514 614.032 l 1,75,-1
 711 614 l 2,76,77
 739 614 739 614 741 612 c 0,78,79
 747 602 747 602 749 553 c 128,-1,80
 751 504 751 504 747 476 c 0,81,82
 742 448 742 448 741 446 c 0,83,84
 739 444 739 444 654 444 c 0,85,86
 641 444 641 444 627.5 444 c 128,-1,87
 614 444 614 444 604 443.5 c 128,-1,88
 594 443 594 443 586 442.5 c 128,-1,89
 578 442 578 442 574 441.5 c 2,90,-1
 570 441 l 1,91,92
 579 425 579 425 579 360 c 0,93,94
 579 291 579 291 570 275 c 1,95,-1
 581 274.5 l 2,96,97
 592 274 592 274 611.5 273.5 c 128,-1,98
 631 273 631 273 654 273 c 0,99,100
 739 273 739 273 741 271 c 0,101,102
 746 262 746 262 748.5 212.5 c 128,-1,103
 751 163 751 163 747 138 c 0,104,105
 746 136 746 136 745 128 c 128,-1,106
 744 120 744 120 744 118 c 0,107,108
 742 106 742 106 741 105 c 0,109,110
 738 102 738 102 654 102 c 2,111,-1
 569 102 l 1,112,-1
 572 93 l 1,113,114
 579 67 579 67 578 4.5 c 128,-1,115
 577 -58 577 -58 569 -66 c 0,116,117
 567 -68 567 -68 482 -68 c 2,118,-1
 397 -67 l 1,119,-1
 395 -59 l 2,120,121
 388 -34 388 -34 388 20.5 c 128,-1,122
 388 75 388 75 395 95 c 1,123,-1
 398 102 l 1,124,-1
 312 103 l 1,125,-1
 226 104 l 1,126,-1
 224 112 l 2,127,128
 217 138 217 138 217.5 193.5 c 128,-1,129
 218 249 218 249 225 267 c 1,130,-1
 228 273 l 1,131,-1
 313 273 l 1,132,-1
 398 273 l 1,133,-1
 395 282 l 1,134,135
 388 309 388 309 388 362 c 128,-1,136
 388 415 388 415 395 436 c 2,137,-1
 398 444 l 1,138,-1
 312 444 l 1,139,-1
 226 445 l 1,140,-1
 224 453 l 1,141,142
 212 496 212 496 220 576 c 0,143,144
 223 606 223 606 227 610 c 128,-1,145
 231 614 231 614 256 614 c 2,146,-1
 284 614 l 1,147,-1
 281 624 l 1,148,149
 274 651 274 651 274.5 703.5 c 128,-1,150
 275 756 275 756 282 777 c 1,151,-1
 284 785 l 1,152,-1
 255 786 l 1,153,-1
 226 786 l 1,154,-1
 224 794 l 2,155,156
 217 820 217 820 217.5 874 c 128,-1,157
 218 928 218 928 225 948 c 1,158,-1
 227 955 l 1,159,-1
 198 956 l 1,160,-1
 170 957 l 1,161,-1
 167 965 l 1,162,163
 160 991 160 991 160.5 1046.5 c 128,-1,164
 161 1102 161 1102 168 1120 c 1,0,-1
EndSplineSet
EndChar

StartChar: r
Encoding: 114 114 39
Width: 851
VWidth: 0
Flags: W
HStem: -67 169<114 227 399.039 512.924> 444 170.032<741 805.104> 614 171<114 227 456 625>
VStem: 104 412<-65.9353 99.7089> 104 246<617.069 782.678> 218 247<446.512 611.488> 225 177<104.5 444.25> 625 179<446.069 613.875>
LayerCount: 2
Back
Fore
SplineSet
111 779 m 1,0,-1
 114 785 l 1,1,-1
 227 785 l 2,2,3
 340 785 340 785 342 783 c 0,4,5
 348 773 348 773 350 724 c 128,-1,6
 352 675 352 675 348 647 c 0,7,8
 343 619 343 619 342 617 c 1,9,-1
 365.514 614.032 l 1,10,-1
 369 614 l 1,11,-1
 398 614 l 1,12,-1
 395 624 l 1,13,14
 388 651 388 651 388.5 705.5 c 128,-1,15
 389 760 389 760 396 779 c 2,16,-1
 398 785 l 1,17,-1
 569 785 l 2,18,19
 739 785 739 785 741 783 c 0,20,21
 747 773 747 773 749 724 c 128,-1,22
 751 675 751 675 747 647 c 0,23,24
 742 619 742 619 741 617 c 1,25,-1
 764.514 614.032 l 1,26,-1
 768 614 l 2,27,28
 796 614 796 614 798 612 c 0,29,30
 804 602 804 602 806 553 c 128,-1,31
 808 504 808 504 804 476 c 0,32,33
 799 448 799 448 797 446 c 128,-1,34
 795 444 795 444 710 444 c 2,35,-1
 625 445 l 1,36,-1
 623 453 l 2,37,38
 616 478 616 478 616 532 c 128,-1,39
 616 586 616 586 623 606 c 1,40,-1
 625 614 l 1,41,-1
 540 614 l 2,42,43
 517 614 517 614 497.5 613.5 c 128,-1,44
 478 613 478 613 467 612.5 c 2,45,-1
 456 612 l 1,46,47
 465 596 465 596 465 529 c 128,-1,48
 465 462 465 462 456 446 c 0,49,50
 454 444 454 444 426 444 c 0,51,52
 398.867 443.885 398.867 443.885 399 441 c 1,53,54
 406 430 406 430 407 372.5 c 128,-1,55
 408 315 408 315 402 286 c 0,56,57
 400 273 400 273 402 260 c 1,58,59
 409 230 409 230 408 173 c 128,-1,60
 407 116 407 116 399 105 c 1,61,-1
 401.5 104.5 l 2,62,63
 404 104 404 104 409.5 103.5 c 128,-1,64
 415 103 415 103 421.5 102.5 c 128,-1,65
 428 102 428 102 437 102 c 128,-1,66
 446 102 446 102 455 102 c 0,67,68
 511 102 511 102 513 100 c 0,69,70
 518 91 518 91 520.5 41.5 c 128,-1,71
 523 -8 523 -8 519 -33 c 0,72,73
 518 -36 518 -36 517 -43.5 c 128,-1,74
 516 -51 516 -51 516 -53 c 0,75,76
 514 -64 514 -64 512 -66 c 128,-1,77
 510 -68 510 -68 311 -68 c 1,78,-1
 113 -67 l 1,79,-1
 111 -59 l 2,80,81
 104 -34 104 -34 104 22 c 128,-1,82
 104 78 104 78 111 96 c 1,83,-1
 114 102 l 1,84,-1
 170 102 l 1,85,-1
 227 102 l 1,86,-1
 225 112 l 1,87,88
 218 139 218 139 218 191.5 c 128,-1,89
 218 244 218 244 225 265 c 0,90,91
 227 273 227 273 225 282 c 0,92,93
 218 309 218 309 218 362 c 128,-1,94
 218 415 218 415 225 436 c 0,95,96
 227 444 227 444 225 453 c 0,97,98
 218 480 218 480 218 533 c 128,-1,99
 218 586 218 586 225 607 c 2,100,-1
 227 614 l 1,101,-1
 170 615 l 1,102,-1
 113 616 l 1,103,-1
 111 624 l 2,104,105
 104 650 104 650 104 705.5 c 128,-1,106
 104 761 104 761 111 779 c 1,0,-1
EndSplineSet
EndChar

StartChar: brokenbar
Encoding: 166 166 40
Width: 851
VWidth: 0
Flags: W
VStem: 395 178<-236.738 440.709 617.262 1291>
LayerCount: 2
Back
Fore
SplineSet
396 437 m 1,0,-1
 398 444 l 1,1,-1
 483 444 l 2,2,3
 567 444 567 444 570 441 c 1,4,5
 575 432 575 432 577.5 382.5 c 128,-1,6
 580 333 580 333 576 308 c 0,7,8
 575 305 575 305 574 298 c 128,-1,9
 573 291 573 291 573 289 c 0,10,11
 571 273 571 273 573 260 c 0,12,13
 579 233 579 233 578.5 187 c 128,-1,14
 578 141 578 141 573 115 c 0,15,16
 571 102 571 102 573 90 c 0,17,18
 578 64 578 64 578 17 c 128,-1,19
 578 -30 578 -30 573 -55 c 0,20,21
 571 -68 571 -68 573 -81 c 0,22,23
 580 -112 580 -112 578.5 -170.5 c 128,-1,24
 577 -229 577 -229 569 -237 c 0,25,26
 568 -238 568 -238 482 -238 c 2,27,-1
 397 -238 l 1,28,-1
 395 -230 l 2,29,30
 388 -204 388 -204 388 -150 c 128,-1,31
 388 -96 388 -96 395 -76 c 0,32,33
 397 -68 397 -68 395 -59 c 0,34,35
 388 -32 388 -32 388 20.5 c 128,-1,36
 388 73 388 73 395 94 c 0,37,38
 397 102 397 102 395 112 c 0,39,40
 388 139 388 139 388 191.5 c 128,-1,41
 388 244 388 244 395 265 c 0,42,43
 397 273 397 273 395 282 c 0,44,45
 388 309 388 309 388.5 363.5 c 128,-1,46
 389 418 389 418 396 437 c 1,0,-1
396 1291 m 2,47,-1
 398 1297 l 1,48,-1
 483 1297 l 2,49,50
 568 1297 568 1297 570 1295 c 0,51,52
 575 1286 575 1286 577.5 1236.5 c 128,-1,53
 580 1187 580 1187 576 1162 c 0,54,55
 575 1159 575 1159 574 1151.5 c 128,-1,56
 573 1144 573 1144 573 1142 c 0,57,58
 571 1126 571 1126 573 1114 c 0,59,60
 579 1087 579 1087 578.5 1041 c 128,-1,61
 578 995 578 995 573 969 c 0,62,63
 571 956 571 956 573 943 c 0,64,65
 578 917 578 917 578 870.5 c 128,-1,66
 578 824 578 824 573 798 c 0,67,68
 571 785 571 785 573 772 c 0,69,70
 580 741 580 741 578.5 683 c 128,-1,71
 577 625 577 625 569 617 c 0,72,73
 567 615 567 615 482 615 c 2,74,-1
 397 616 l 1,75,-1
 395 624 l 2,76,77
 388 650 388 650 388 703.5 c 128,-1,78
 388 757 388 757 395 777 c 0,79,80
 397 785 397 785 395 794 c 0,81,82
 388 821 388 821 388 874 c 128,-1,83
 388 927 388 927 395 948 c 0,84,85
 397 956 397 956 395 965 c 0,86,87
 388 992 388 992 388 1044.5 c 128,-1,88
 388 1097 388 1097 395 1118 c 0,89,90
 397 1126 397 1126 395 1136 c 0,91,92
 388 1163 388 1163 388.5 1217.5 c 128,-1,93
 389 1272 389 1272 396 1291 c 2,47,-1
EndSplineSet
EndChar

StartChar: agrave
Encoding: 224 224 41
Width: 851
VWidth: 0
Flags: W
HStem: -68 170<341.973 569 741 804.585> 103 170<170 227> 273 171<342.039 568> 616 169<284 569> 956 170<513.039 625.917> 1128 169<341 453.453>
VStem: 338 175<1129.03 1291> 452 179<958.065 1119> 566 177<105.355 271.875 444.289 607> 623 175<-67 102>
LayerCount: 2
Back
Fore
SplineSet
282 779 m 2,0,-1
 284 785 l 1,1,-1
 455 785 l 2,2,3
 625 785 625 785 627 783 c 0,4,5
 633 773 633 773 635 724 c 128,-1,6
 637 675 637 675 633 647 c 0,7,8
 628 619 628 619 627 617 c 1,9,-1
 629.5 616.5 l 2,10,11
 632 616 632 616 637 615.5 c 128,-1,12
 642 615 642 615 649 614.5 c 128,-1,13
 656 614 656 614 664.5 614 c 128,-1,14
 673 614 673 614 682 614 c 0,15,16
 739 614 739 614 741 612 c 0,17,18
 746 603 746 603 748.5 553.5 c 128,-1,19
 751 504 751 504 747 479 c 0,20,21
 746 476 746 476 745 468.5 c 128,-1,22
 744 461 744 461 744 459 c 0,23,24
 741 440 741 440 743 431 c 0,25,26
 749 404 749 404 748.5 358 c 128,-1,27
 748 312 748 312 743 286 c 0,28,29
 741 273 741 273 743 260 c 1,30,31
 750 230 750 230 749 173 c 128,-1,32
 748 116 748 116 741 105 c 1,33,-1
 764.514 102.032 l 1,34,-1
 768 102 l 2,35,36
 796 102 796 102 798 100 c 0,37,38
 808 84 808 84 806 6 c 0,39,40
 804 -59 804 -59 797 -66 c 0,41,42
 795 -68 795 -68 710 -68 c 2,43,-1
 625 -67 l 1,44,-1
 623 -59 l 2,45,46
 616 -34 616 -34 616 20 c 128,-1,47
 616 74 616 74 623 94 c 1,48,-1
 625 102 l 1,49,-1
 597 103 l 1,50,-1
 568 104 l 1,51,-1
 566 112 l 2,52,53
 559 138 559 138 559 191 c 128,-1,54
 559 244 559 244 566 265 c 2,55,-1
 569 273 l 1,56,-1
 455 273 l 2,57,58
 442 273 442 273 429 273 c 128,-1,59
 416 273 416 273 405 273 c 128,-1,60
 394 273 394 273 384 272.5 c 128,-1,61
 374 272 374 272 366.5 272 c 128,-1,62
 359 272 359 272 353 272 c 128,-1,63
 347 272 347 272 344.5 271.5 c 2,64,-1
 342 271 l 1,65,66
 351 255 351 255 351 189 c 0,67,68
 351 121 351 121 342 105 c 0,69,70
 341 104 341 104 356 103.5 c 128,-1,71
 371 103 371 103 398.5 102.5 c 128,-1,72
 426 102 426 102 455 102 c 2,73,-1
 569 102 l 1,74,-1
 571 96 l 1,75,76
 579 76 579 76 578 9 c 128,-1,77
 577 -58 577 -58 569 -66 c 0,78,79
 567 -68 567 -68 397 -68 c 2,80,-1
 226 -67 l 1,81,-1
 224 -59 l 2,82,83
 217 -33 217 -33 217.5 20.5 c 128,-1,84
 218 74 218 74 225 94 c 1,85,-1
 227 102 l 1,86,-1
 198 103 l 1,87,-1
 170 104 l 1,88,-1
 167 112 l 1,89,90
 155 155 155 155 163 234 c 0,91,92
 166 264 166 264 170 268.5 c 128,-1,93
 174 273 174 273 199 273 c 2,94,-1
 227 273 l 1,95,-1
 225 282 l 2,96,97
 218 310 218 310 218 364 c 128,-1,98
 218 418 218 418 225 437 c 1,99,-1
 228 444 l 1,100,-1
 398 444 l 1,101,-1
 568 444 l 1,102,-1
 566 453 l 2,103,104
 559 480 559 480 559 533 c 128,-1,105
 559 586 559 586 566 607 c 1,106,-1
 569 614 l 1,107,-1
 426 615 l 1,108,-1
 283 616 l 1,109,-1
 281 624 l 2,110,111
 274 650 274 650 274.5 705.5 c 128,-1,112
 275 761 275 761 282 779 c 2,0,-1
339 1291 m 2,113,-1
 341 1297 l 1,114,-1
 427 1297 l 2,115,116
 511 1297 511 1297 513 1295 c 0,117,118
 518 1286 518 1286 520.5 1236.5 c 128,-1,119
 523 1187 523 1187 519 1162 c 0,120,121
 518 1160 518 1160 517 1152 c 128,-1,122
 516 1144 516 1144 516 1142 c 0,123,124
 514 1130 514 1130 513 1129 c 1,125,-1
 515.5 1128.5 l 2,126,127
 518 1128 518 1128 523 1127.5 c 128,-1,128
 528 1127 528 1127 535 1126.5 c 128,-1,129
 542 1126 542 1126 551 1126 c 128,-1,130
 560 1126 560 1126 569 1126 c 0,131,132
 625 1126 625 1126 627 1124 c 0,133,134
 632 1115 632 1115 634.5 1065.5 c 128,-1,135
 637 1016 637 1016 633 991 c 0,136,137
 632 988 632 988 631 980.5 c 128,-1,138
 630 973 630 973 630 971 c 0,139,140
 628 960 628 960 626 958 c 128,-1,141
 624 956 624 956 539 956 c 2,142,-1
 454 957 l 1,143,-1
 452 965 l 2,144,145
 445 990 445 990 445 1044.5 c 128,-1,146
 445 1099 445 1099 452 1119 c 1,147,-1
 455 1126 l 1,148,-1
 398 1127 l 1,149,-1
 340 1128 l 1,150,-1
 338 1136 l 2,151,152
 331 1162 331 1162 331.5 1217.5 c 128,-1,153
 332 1273 332 1273 339 1291 c 2,113,-1
EndSplineSet
EndChar

StartChar: backslash
Encoding: 92 92 42
Width: 851
VWidth: 0
Flags: W
HStem: -238 170<683.945 740.9> 1128 169<114 170>
VStem: 104 183<1129.02 1294.68> 160.5 189.5<958.069 1123.68> 217.5 189.5<787.069 952.678> 274.5 189.5<617.069 782.678> 331 190<446.069 611.678> 388 190<275.069 440.678> 452 178<105.034 265> 509 178<-65.9658 94> 566 178<-236.935 -76>
LayerCount: 2
Back
Fore
SplineSet
111 1291 m 1,0,-1
 114 1297 l 1,1,-1
 199 1297 l 2,2,3
 284 1297 284 1297 286 1295 c 0,4,5
 292 1285 292 1285 294 1236 c 128,-1,6
 296 1187 296 1187 291 1159 c 0,7,8
 290 1154 290 1154 289.5 1150 c 128,-1,9
 289 1146 289 1146 288.5 1143.5 c 128,-1,10
 288 1141 288 1141 287.5 1138.5 c 128,-1,11
 287 1136 287 1136 287 1134.5 c 128,-1,12
 287 1133 287 1133 287 1132 c 128,-1,13
 287 1131 287 1131 286.5 1130 c 2,14,-1
 286 1129 l 1,15,-1
 309.514 1126.03 l 1,16,-1
 313 1126 l 2,17,18
 340 1126 340 1126 342 1124 c 0,19,20
 348 1114 348 1114 350 1065 c 128,-1,21
 352 1016 352 1016 348 988 c 0,22,23
 343 960 343 960 342 958 c 0,24,25
 340 956 340 956 369 956 c 0,26,27
 396 956 396 956 399 953 c 1,28,29
 405 943 405 943 407 894.5 c 128,-1,30
 409 846 409 846 405 818 c 0,31,32
 400 789 400 789 399 787 c 0,33,34
 397 785 397 785 426 785 c 0,35,36
 454 785 454 785 456 783 c 0,37,38
 462 773 462 773 464 724 c 128,-1,39
 466 675 466 675 462 647 c 0,40,41
 457 619 457 619 456 617 c 1,42,-1
 479.514 614.032 l 1,43,-1
 483 614 l 2,44,45
 511 614 511 614 513 612 c 0,46,47
 519 602 519 602 521 553 c 128,-1,48
 523 504 523 504 519 476 c 0,49,50
 514 448 514 448 513 446 c 0,51,52
 511 444 511 444 540 444 c 0,53,54
 567 444 567 444 570 441 c 1,55,56
 576 431 576 431 578 382.5 c 128,-1,57
 580 334 580 334 576 306 c 0,58,59
 571 277 571 277 570 275 c 0,60,61
 568 273 568 273 597 273 c 0,62,63
 625 273 625 273 627 271 c 0,64,65
 632 262 632 262 634.5 212.5 c 128,-1,66
 637 163 637 163 633 138 c 0,67,68
 632 136 632 136 631 128 c 128,-1,69
 630 120 630 120 630 118 c 0,70,71
 628 106 628 106 627 105 c 1,72,-1
 650.514 102.032 l 1,73,-1
 654 102 l 2,74,75
 682 102 682 102 684 100 c 0,76,77
 689 91 689 91 691.5 41.5 c 128,-1,78
 694 -8 694 -8 690 -33 c 0,79,80
 689 -35 689 -35 688 -43 c 128,-1,81
 687 -51 687 -51 687 -52 c 0,82,83
 685 -65 685 -65 684 -66 c 0,84,85
 682 -68 682 -68 711 -68 c 0,86,87
 738 -68 738 -68 741 -71 c 1,88,89
 746 -80 746 -80 748.5 -129.5 c 128,-1,90
 751 -179 751 -179 747 -204 c 0,91,92
 746 -207 746 -207 745 -214 c 128,-1,93
 744 -221 744 -221 744 -223 c 0,94,95
 742 -235 742 -235 740 -237 c 0,96,97
 739 -238 739 -238 653 -238 c 2,98,-1
 568 -238 l 1,99,-1
 566 -230 l 2,100,101
 559 -204 559 -204 559 -150 c 128,-1,102
 559 -96 559 -96 566 -76 c 1,103,-1
 569 -69 l 1,104,-1
 540 -68 l 1,105,-1
 511 -67 l 1,106,-1
 509 -59 l 2,107,108
 502 -34 502 -34 502 20 c 128,-1,109
 502 74 502 74 509 94 c 2,110,-1
 512 102 l 1,111,-1
 483 103 l 1,112,-1
 454 104 l 1,113,-1
 452 112 l 2,114,115
 445 138 445 138 445 191.5 c 128,-1,116
 445 245 445 245 452 265 c 2,117,-1
 455 273 l 1,118,-1
 426 274 l 1,119,-1
 397 274 l 1,120,-1
 395 282 l 2,121,122
 388 308 388 308 388 362 c 128,-1,123
 388 416 388 416 395 436 c 1,124,-1
 398 443 l 1,125,-1
 369 444 l 1,126,-1
 340 445 l 1,127,-1
 338 453 l 2,128,129
 331 478 331 478 331 532 c 128,-1,130
 331 586 331 586 338 606 c 2,131,-1
 341 614 l 1,132,-1
 312 615 l 1,133,-1
 283 616 l 1,134,-1
 281 624 l 2,135,136
 274 650 274 650 274.5 703.5 c 128,-1,137
 275 757 275 757 282 777 c 1,138,-1
 284 785 l 1,139,-1
 255 786 l 1,140,-1
 226 786 l 1,141,-1
 224 794 l 2,142,143
 217 820 217 820 217.5 874 c 128,-1,144
 218 928 218 928 225 948 c 1,145,-1
 227 955 l 1,146,-1
 198 956 l 1,147,-1
 170 957 l 1,148,-1
 167 965 l 1,149,150
 160 991 160 991 160.5 1044.5 c 128,-1,151
 161 1098 161 1098 168 1118 c 1,152,-1
 170 1126 l 1,153,-1
 142 1127 l 1,154,-1
 113 1128 l 1,155,-1
 111 1136 l 2,156,157
 104 1162 104 1162 104 1217.5 c 128,-1,158
 104 1273 104 1273 111 1291 c 1,0,-1
EndSplineSet
EndChar

StartChar: at
Encoding: 64 64 43
Width: 851
VWidth: 0
Flags: W
HStem: -68 170.5<341.975 747.475> 274 170<513.109 625> 785 171<513.039 568> 1126 171<342.039 569>
VStem: 111 177<274 951.353> 168 174<112 271.968 956 1120> 274.5 474<-65.9353 99.7089> 388 134<446.355 782.645> 445 303.5<275.263 442.891> 559 190<958.069 1123.68> 616 189<446.355 783.875>
LayerCount: 2
Back
Fore
SplineSet
282 1291 m 2,0,-1
 284 1297 l 1,1,-1
 483 1297 l 2,2,3
 682 1297 682 1297 684 1295 c 0,4,5
 690 1285 690 1285 692 1236 c 128,-1,6
 694 1187 694 1187 690 1159 c 0,7,8
 685 1131 685 1131 684 1129 c 1,9,-1
 707.514 1126.03 l 1,10,-1
 711 1126 l 2,11,12
 739 1126 739 1126 741 1124 c 0,13,14
 747 1114 747 1114 749 1065 c 128,-1,15
 751 1016 751 1016 747 988 c 0,16,17
 742 960 742 960 741 958 c 0,18,19
 739 956 739 956 768 956 c 0,20,21
 795 956 795 956 798 953 c 0,22,23
 799 952 799 952 801 941 c 0,24,25
 814 872 814 872 800 798 c 0,26,27
 798 784 798 784 800 772 c 0,28,29
 805 746 805 746 805 699 c 128,-1,30
 805 652 805 652 800 627 c 0,31,32
 798 614 798 614 800 602 c 0,33,34
 806 573 806 573 805.5 515 c 128,-1,35
 805 457 805 457 798 446 c 0,36,37
 796 444 796 444 768 444 c 2,38,-1
 740 444 l 1,39,-1
 742 435 l 1,40,41
 749 409 749 409 748.5 346 c 128,-1,42
 748 283 748 283 740 275 c 0,43,44
 739 274 739 274 596 274 c 2,45,-1
 454 274 l 1,46,-1
 452 282 l 2,47,48
 445 308 445 308 445 362 c 128,-1,49
 445 416 445 416 452 436 c 1,50,-1
 455 443 l 1,51,-1
 426 444 l 1,52,-1
 397 445 l 1,53,-1
 395 453 l 2,54,55
 388 478 388 478 388 532 c 128,-1,56
 388 586 388 586 395 606 c 0,57,58
 397 614 397 614 395 624 c 0,59,60
 388 651 388 651 388 703.5 c 128,-1,61
 388 756 388 756 395 777 c 0,62,63
 397 785 397 785 395 794 c 0,64,65
 388 821 388 821 388.5 875.5 c 128,-1,66
 389 930 389 930 396 949 c 1,67,-1
 398 956 l 1,68,-1
 483 956 l 1,69,-1
 568 956 l 1,70,-1
 566 965 l 2,71,72
 559 992 559 992 559 1044.5 c 128,-1,73
 559 1097 559 1097 566 1118 c 2,74,-1
 569 1126 l 1,75,-1
 455 1126 l 2,76,77
 442 1126 442 1126 429 1126 c 128,-1,78
 416 1126 416 1126 405 1126 c 128,-1,79
 394 1126 394 1126 384 1125.5 c 128,-1,80
 374 1125 374 1125 366.5 1125 c 128,-1,81
 359 1125 359 1125 353 1125 c 128,-1,82
 347 1125 347 1125 344.5 1124.5 c 2,83,-1
 342 1124 l 1,84,85
 351 1108 351 1108 351 1042 c 0,86,87
 351 974 351 974 342 958 c 0,88,89
 340 956 340 956 313 956 c 128,-1,90
 285.867 955.885 285.867 955.885 286 953 c 1,91,92
 293 942 293 942 293.5 884.5 c 128,-1,93
 294 827 294 827 288 798 c 0,94,95
 286 785 286 785 288 772 c 0,96,97
 293 746 293 746 293 699 c 128,-1,98
 293 652 293 652 288 627 c 0,99,100
 286 614 286 614 288 602 c 0,101,102
 294 573 294 573 293.5 515.5 c 128,-1,103
 293 458 293 458 286 447 c 0,104,105
 285 446 285 446 285.5 442.5 c 128,-1,106
 286 439 286 439 287 435 c 0,107,108
 294 410 294 410 293.5 348.5 c 128,-1,109
 293 287 293 287 286 275 c 0,110,111
 284 273 284 273 313 273 c 0,112,113
 334 273 334 273 338 272 c 128,-1,114
 342 271 342 271 344 266 c 0,115,116
 349 253 349 253 350.5 207.5 c 128,-1,117
 352 162 352 162 348 135 c 128,-1,118
 344 108 344 108 342 105 c 0,119,120
 341 104 341 104 367 103.5 c 128,-1,121
 393 103 393 103 441 102.5 c 128,-1,122
 489 102 489 102 540 102 c 0,123,124
 739 102 739 102 741 100 c 0,125,126
 746 91 746 91 748.5 41.5 c 128,-1,127
 751 -8 751 -8 747 -33 c 0,128,129
 746 -36 746 -36 745 -43.5 c 128,-1,130
 744 -51 744 -51 744 -53 c 0,131,132
 742 -64 742 -64 740 -66 c 128,-1,133
 738 -68 738 -68 511 -68 c 2,134,-1
 283 -67 l 1,135,-1
 281 -59 l 2,136,137
 274 -33 274 -33 274.5 21 c 128,-1,138
 275 75 275 75 282 95 c 1,139,-1
 284 102 l 1,140,-1
 227 103 l 1,141,-1
 170 104 l 1,142,-1
 167 112 l 1,143,144
 160 138 160 138 160.5 191.5 c 128,-1,145
 161 245 161 245 168 265 c 1,146,-1
 170 273 l 1,147,-1
 142 274 l 1,148,-1
 113 274 l 1,149,-1
 111 282 l 2,150,151
 104 308 104 308 104 362 c 128,-1,152
 104 416 104 416 111 436 c 0,153,154
 113 444 113 444 111 453 c 0,155,156
 104 480 104 480 104 532.5 c 128,-1,157
 104 585 104 585 111 606 c 0,158,159
 113 614 113 614 111 624 c 0,160,161
 104 651 104 651 104 703.5 c 128,-1,162
 104 756 104 756 111 777 c 0,163,164
 113 785 113 785 111 794 c 0,165,166
 98 841 98 841 106 917 c 0,167,168
 109 947 109 947 113 951.5 c 128,-1,169
 117 956 117 956 142 956 c 2,170,-1
 170 956 l 1,171,-1
 168 965 l 2,172,173
 161 993 161 993 161 1047 c 128,-1,174
 161 1101 161 1101 168 1120 c 1,175,-1
 171 1126 l 1,176,-1
 227 1126 l 1,177,-1
 284 1126 l 1,178,-1
 281 1136 l 1,179,180
 274 1163 274 1163 274.5 1217.5 c 128,-1,181
 275 1272 275 1272 282 1291 c 2,0,-1
623 777 m 1,182,-1
 625 785 l 1,183,-1
 569 785 l 2,184,185
 560 785 560 785 551.5 785 c 128,-1,186
 543 785 543 785 536 784.5 c 128,-1,187
 529 784 529 784 523.5 784 c 128,-1,188
 518 784 518 784 515.5 783.5 c 2,189,-1
 513 783 l 1,190,191
 520 772 520 772 521 714 c 128,-1,192
 522 656 522 656 516 627 c 0,193,194
 514 614 514 614 516 602 c 0,195,196
 523 572 523 572 522 514.5 c 128,-1,197
 521 457 521 457 513 446 c 1,198,-1
 520 445.5 l 2,199,200
 527 445 527 445 540 444.5 c 128,-1,201
 553 444 553 444 568 444 c 2,202,-1
 625 444 l 1,203,-1
 623 453 l 2,204,205
 616 480 616 480 616 532.5 c 128,-1,206
 616 585 616 585 623 606 c 0,207,208
 625 614 625 614 623 624 c 0,209,210
 616 651 616 651 616 703.5 c 128,-1,211
 616 756 616 756 623 777 c 1,182,-1
EndSplineSet
EndChar

StartChar: icircumflex
Encoding: 238 238 44
Width: 851
VWidth: 0
Flags: W
HStem: -67 169<228 398 570 748.104> 616 169<284 398> 956 170<227.13 284 627 682.924> 1126 171<342.039 569>
VStem: 281 346<1129.03 1291> 388 190<105.355 613.891> 559 128<958.065 1118>
LayerCount: 2
Back
Fore
SplineSet
282 779 m 2,0,-1
 284 785 l 1,1,-1
 427 785 l 2,2,3
 568 785 568 785 570 783 c 0,4,5
 571 782 571 782 573 771 c 0,6,7
 586 699 586 699 573 627 c 0,8,9
 571 614 571 614 573 602 c 0,10,11
 578 576 578 576 578 529 c 128,-1,12
 578 482 578 482 573 457 c 0,13,14
 571 444 571 444 573 431 c 0,15,16
 578 405 578 405 578 358.5 c 128,-1,17
 578 312 578 312 573 286 c 0,18,19
 571 273 571 273 573 260 c 1,20,21
 580 230 580 230 579 173 c 128,-1,22
 578 116 578 116 570 105 c 1,23,-1
 574 104.5 l 2,24,25
 578 104 578 104 586 103.5 c 128,-1,26
 594 103 594 103 604 102.5 c 128,-1,27
 614 102 614 102 627.5 102 c 128,-1,28
 641 102 641 102 654 102 c 0,29,30
 739 102 739 102 741 100 c 0,31,32
 747 90 747 90 749 41 c 128,-1,33
 751 -8 751 -8 747 -36 c 0,34,35
 742 -64 742 -64 740 -66 c 128,-1,36
 738 -68 738 -68 482 -68 c 2,37,-1
 226 -67 l 1,38,-1
 224 -59 l 2,39,40
 217 -33 217 -33 217.5 22.5 c 128,-1,41
 218 78 218 78 225 96 c 1,42,-1
 228 102 l 1,43,-1
 313 102 l 1,44,-1
 398 102 l 1,45,-1
 395 112 l 1,46,47
 388 139 388 139 388 191.5 c 128,-1,48
 388 244 388 244 395 265 c 0,49,50
 397 273 397 273 395 282 c 0,51,52
 388 309 388 309 388 362 c 128,-1,53
 388 415 388 415 395 436 c 0,54,55
 397 444 397 444 395 453 c 0,56,57
 388 480 388 480 388 533 c 128,-1,58
 388 586 388 586 395 607 c 1,59,-1
 398 614 l 1,60,-1
 341 615 l 1,61,-1
 283 616 l 1,62,-1
 281 624 l 2,63,64
 274 650 274 650 274.5 705.5 c 128,-1,65
 275 761 275 761 282 779 c 2,0,-1
282 1291 m 2,66,-1
 284 1297 l 1,67,-1
 455 1297 l 2,68,69
 625 1297 625 1297 627 1295 c 0,70,71
 632 1286 632 1286 634.5 1236.5 c 128,-1,72
 637 1187 637 1187 633 1162 c 0,73,74
 632 1160 632 1160 631 1152 c 128,-1,75
 630 1144 630 1144 630 1142 c 0,76,77
 628 1130 628 1130 627 1129 c 1,78,-1
 650.514 1126.03 l 1,79,-1
 654 1126 l 2,80,81
 682 1126 682 1126 684 1124 c 0,82,83
 689 1115 689 1115 691.5 1065.5 c 128,-1,84
 694 1016 694 1016 690 991 c 0,85,86
 689 988 689 988 688 980.5 c 128,-1,87
 687 973 687 973 687 971 c 0,88,89
 685 960 685 960 683 958 c 128,-1,90
 681 956 681 956 624 956 c 1,91,-1
 568 957 l 1,92,-1
 566 965 l 2,93,94
 559 990 559 990 559 1044 c 128,-1,95
 559 1098 559 1098 566 1118 c 2,96,-1
 569 1126 l 1,97,-1
 455 1126 l 2,98,99
 442 1126 442 1126 429 1126 c 128,-1,100
 416 1126 416 1126 405 1126 c 128,-1,101
 394 1126 394 1126 384 1125.5 c 128,-1,102
 374 1125 374 1125 366.5 1125 c 128,-1,103
 359 1125 359 1125 353 1125 c 128,-1,104
 347 1125 347 1125 344.5 1124.5 c 2,105,-1
 342 1124 l 1,106,107
 350 1110 350 1110 350 1038 c 128,-1,108
 350 966 350 966 342 958 c 0,109,110
 340 956 340 956 283 956 c 2,111,-1
 226 957 l 1,112,-1
 224 965 l 1,113,114
 212 1008 212 1008 220 1088 c 0,115,116
 223 1118 223 1118 227 1122 c 128,-1,117
 231 1126 231 1126 256 1126 c 2,118,-1
 284 1126 l 1,119,-1
 281 1136 l 1,120,121
 274 1163 274 1163 274.5 1217.5 c 128,-1,122
 275 1272 275 1272 282 1291 c 2,66,-1
EndSplineSet
EndChar

StartChar: plusminus
Encoding: 177 177 45
Width: 851
VWidth: 0
Flags: W
HStem: 104 169<171 804.567> 786 170<171 398 570 797.879>
VStem: 160.5 637.5<112 270.709 786.125 949> 395 178<445 784.859 965 1291>
LayerCount: 2
Back
Fore
SplineSet
168 267 m 1,0,-1
 171 273 l 1,1,-1
 483 273 l 2,2,3
 796 273 796 273 798 271 c 0,4,5
 803 262 803 262 805.5 212.5 c 128,-1,6
 808 163 808 163 804 138 c 0,7,8
 803 135 803 135 802 127.5 c 128,-1,9
 801 120 801 120 801 118 c 0,10,11
 799 107 799 107 797 105 c 128,-1,12
 795 103 795 103 482 103 c 1,13,-1
 170 104 l 1,14,-1
 167 112 l 1,15,16
 160 138 160 138 160.5 193.5 c 128,-1,17
 161 249 161 249 168 267 c 1,0,-1
396 1291 m 2,18,-1
 398 1297 l 1,19,-1
 483 1297 l 2,20,21
 568 1297 568 1297 570 1295 c 0,22,23
 571 1294 571 1294 573 1283 c 0,24,25
 586 1211 586 1211 573 1139 c 0,26,27
 571 1126 571 1126 573 1114 c 0,28,29
 580 1084 580 1084 579 1026.5 c 128,-1,30
 578 969 578 969 570 958 c 1,31,-1
 584.5 957.5 l 2,32,33
 599 957 599 957 625 956.5 c 128,-1,34
 651 956 651 956 682 956 c 0,35,36
 795 956 795 956 798 953 c 1,37,38
 804 943 804 943 806 894.5 c 128,-1,39
 808 846 808 846 803 818 c 0,40,41
 801 808 801 808 800 800.5 c 128,-1,42
 799 793 799 793 798.5 790.5 c 128,-1,43
 798 788 798 788 798 787 c 0,44,45
 796 785 796 785 683 785 c 2,46,-1
 569 785 l 1,47,-1
 572 776 l 2,48,49
 579 752 579 752 578 690.5 c 128,-1,50
 577 629 577 629 570 617 c 0,51,52
 568 615 568 615 572 606 c 1,53,54
 579 580 579 580 578 517 c 128,-1,55
 577 454 577 454 569 446 c 0,56,57
 567 444 567 444 482 444 c 2,58,-1
 397 445 l 1,59,-1
 395 453 l 2,60,61
 388 478 388 478 388 532 c 128,-1,62
 388 586 388 586 395 606 c 0,63,64
 397 614 397 614 395 624 c 0,65,66
 388 651 388 651 388 703.5 c 128,-1,67
 388 756 388 756 395 777 c 2,68,-1
 398 785 l 1,69,-1
 284 786 l 1,70,-1
 170 786 l 1,71,-1
 167 794 l 1,72,73
 160 820 160 820 160.5 875.5 c 128,-1,74
 161 931 161 931 168 949 c 2,75,-1
 171 956 l 1,76,-1
 284 956 l 1,77,-1
 398 956 l 1,78,-1
 395 965 l 1,79,80
 388 992 388 992 388 1044.5 c 128,-1,81
 388 1097 388 1097 395 1118 c 0,82,83
 397 1126 397 1126 395 1136 c 0,84,85
 388 1163 388 1163 388.5 1217.5 c 128,-1,86
 389 1272 389 1272 396 1291 c 2,18,-1
EndSplineSet
EndChar

StartChar: a
Encoding: 97 97 46
Width: 851
VWidth: 0
Flags: W
HStem: -68 170<341.973 569 741 804.585> 103 170<170 227> 273 171<342.039 568> 616 169<284 569>
VStem: 566 177<105.355 271.875 444.289 607> 623 175<-67 102>
LayerCount: 2
Back
Fore
SplineSet
282 779 m 2,0,-1
 284 785 l 1,1,-1
 455 785 l 2,2,3
 625 785 625 785 627 783 c 0,4,5
 633 773 633 773 635 724 c 128,-1,6
 637 675 637 675 633 647 c 0,7,8
 628 619 628 619 627 617 c 1,9,-1
 629.5 616.5 l 2,10,11
 632 616 632 616 637 615.5 c 128,-1,12
 642 615 642 615 649 614.5 c 128,-1,13
 656 614 656 614 664.5 614 c 128,-1,14
 673 614 673 614 682 614 c 0,15,16
 739 614 739 614 741 612 c 0,17,18
 746 603 746 603 748.5 553.5 c 128,-1,19
 751 504 751 504 747 479 c 0,20,21
 746 476 746 476 745 468.5 c 128,-1,22
 744 461 744 461 744 459 c 0,23,24
 741 440 741 440 743 431 c 0,25,26
 749 404 749 404 748.5 358 c 128,-1,27
 748 312 748 312 743 286 c 0,28,29
 741 273 741 273 743 260 c 1,30,31
 750 230 750 230 749 173 c 128,-1,32
 748 116 748 116 741 105 c 1,33,-1
 764.514 102.032 l 1,34,-1
 768 102 l 2,35,36
 796 102 796 102 798 100 c 0,37,38
 808 84 808 84 806 6 c 0,39,40
 804 -59 804 -59 797 -66 c 0,41,42
 795 -68 795 -68 710 -68 c 2,43,-1
 625 -67 l 1,44,-1
 623 -59 l 2,45,46
 616 -34 616 -34 616 20 c 128,-1,47
 616 74 616 74 623 94 c 1,48,-1
 625 102 l 1,49,-1
 597 103 l 1,50,-1
 568 104 l 1,51,-1
 566 112 l 2,52,53
 559 138 559 138 559 191 c 128,-1,54
 559 244 559 244 566 265 c 2,55,-1
 569 273 l 1,56,-1
 455 273 l 2,57,58
 442 273 442 273 429 273 c 128,-1,59
 416 273 416 273 405 273 c 128,-1,60
 394 273 394 273 384 272.5 c 128,-1,61
 374 272 374 272 366.5 272 c 128,-1,62
 359 272 359 272 353 272 c 128,-1,63
 347 272 347 272 344.5 271.5 c 2,64,-1
 342 271 l 1,65,66
 351 255 351 255 351 189 c 0,67,68
 351 121 351 121 342 105 c 0,69,70
 341 104 341 104 356 103.5 c 128,-1,71
 371 103 371 103 398.5 102.5 c 128,-1,72
 426 102 426 102 455 102 c 2,73,-1
 569 102 l 1,74,-1
 571 96 l 1,75,76
 579 76 579 76 578 9 c 128,-1,77
 577 -58 577 -58 569 -66 c 0,78,79
 567 -68 567 -68 397 -68 c 2,80,-1
 226 -67 l 1,81,-1
 224 -59 l 2,82,83
 217 -33 217 -33 217.5 20.5 c 128,-1,84
 218 74 218 74 225 94 c 1,85,-1
 227 102 l 1,86,-1
 198 103 l 1,87,-1
 170 104 l 1,88,-1
 167 112 l 1,89,90
 155 155 155 155 163 234 c 0,91,92
 166 264 166 264 170 268.5 c 128,-1,93
 174 273 174 273 199 273 c 2,94,-1
 227 273 l 1,95,-1
 225 282 l 2,96,97
 218 310 218 310 218 364 c 128,-1,98
 218 418 218 418 225 437 c 1,99,-1
 228 444 l 1,100,-1
 398 444 l 1,101,-1
 568 444 l 1,102,-1
 566 453 l 2,103,104
 559 480 559 480 559 533 c 128,-1,105
 559 586 559 586 566 607 c 1,106,-1
 569 614 l 1,107,-1
 426 615 l 1,108,-1
 283 616 l 1,109,-1
 281 624 l 2,110,111
 274 650 274 650 274.5 705.5 c 128,-1,112
 275 761 275 761 282 779 c 2,0,-1
EndSplineSet
EndChar

StartChar: dieresis
Encoding: 168 168 47
Width: 851
VWidth: 0
Flags: W
HStem: 1298 170<171 341.887 569 740.886>
VStem: 167 179<1306 1461> 566 178<1299.06 1461>
LayerCount: 2
Back
Fore
SplineSet
566 1461 m 2,0,-1
 569 1468 l 1,1,-1
 654 1468 l 2,2,3
 738 1468 738 1468 741 1465 c 1,4,5
 746 1456 746 1456 748.5 1406.5 c 128,-1,6
 751 1357 751 1357 747 1332 c 0,7,8
 746 1329 746 1329 745 1322 c 128,-1,9
 744 1315 744 1315 744 1313 c 0,10,11
 742 1301 742 1301 740 1299 c 0,12,13
 739 1298 739 1298 653 1298 c 2,14,-1
 568 1298 l 1,15,-1
 566 1306 l 2,16,17
 559 1332 559 1332 559 1387.5 c 128,-1,18
 559 1443 559 1443 566 1461 c 2,0,-1
168 1461 m 2,19,-1
 171 1468 l 1,20,-1
 256 1468 l 2,21,22
 339 1468 339 1468 342 1465 c 1,23,24
 347 1456 347 1456 350 1406.5 c 128,-1,25
 353 1357 353 1357 349 1332 c 0,26,27
 348 1329 348 1329 347 1322 c 128,-1,28
 346 1315 346 1315 346 1313 c 0,29,30
 344 1301 344 1301 342 1299 c 0,31,32
 341 1298 341 1298 255 1298 c 2,33,-1
 170 1298 l 1,34,-1
 167 1306 l 1,35,36
 160 1332 160 1332 160.5 1387.5 c 128,-1,37
 161 1443 161 1443 168 1461 c 2,19,-1
EndSplineSet
EndChar

StartChar: five
Encoding: 53 53 48
Width: 851
VWidth: 0
Flags: W
HStem: -67 169<284 568> 104 169<171 293.104> 444 170.03<342 398.87> 616 169<398 566.782> 954.5 171.5<341.975 747.567>
VStem: 160.5 246<446.166 609.868> 161 190<617.355 952.645> 167 125<112 267> 388.5 246.5<617.069 782.678> 566 175<105.451 268.353 446.069 613.891> 616 182<273.141 440.678>
LayerCount: 2
Back
Fore
SplineSet
168 267 m 1,0,-1
 171 273 l 1,1,-1
 227 273 l 2,2,3
 284 273 284 273 286 271 c 0,4,5
 292 261 292 261 294 212 c 128,-1,6
 296 163 296 163 292 135 c 0,7,8
 287 107 287 107 285 105 c 128,-1,9
 283 103 283 103 226 103 c 1,10,-1
 170 104 l 1,11,-1
 167 112 l 1,12,13
 160 138 160 138 160.5 193.5 c 128,-1,14
 161 249 161 249 168 267 c 1,0,-1
396 779 m 2,15,-1
 398 785 l 1,16,-1
 512 785 l 2,17,18
 625 785 625 785 627 783 c 0,19,20
 633 773 633 773 635 724 c 128,-1,21
 637 675 637 675 633 647 c 0,22,23
 628 619 628 619 627 617 c 1,24,-1
 629.5 616.5 l 2,25,26
 632 616 632 616 637 615.5 c 128,-1,27
 642 615 642 615 649 614.5 c 128,-1,28
 656 614 656 614 664.5 614 c 128,-1,29
 673 614 673 614 682 614 c 0,30,31
 739 614 739 614 741 612 c 0,32,33
 747 602 747 602 749 553 c 128,-1,34
 751 504 751 504 747 476 c 0,35,36
 742 448 742 448 741 446 c 0,37,38
 739 444 739 444 768 444 c 0,39,40
 795 444 795 444 798 441 c 1,41,42
 804 431 804 431 806 382.5 c 128,-1,43
 808 334 808 334 803 306 c 0,44,45
 801 296 801 296 800 288.5 c 128,-1,46
 799 281 799 281 798.5 278.5 c 128,-1,47
 798 276 798 276 798 275 c 0,48,49
 796 273 796 273 768 273 c 0,50,51
 739 273 739 273 741 271 c 0,52,53
 749 257 749 257 749 189 c 0,54,55
 749 119 749 119 741 105 c 1,56,57
 738 102 738 102 682 102 c 0,58,59
 667 102 667 102 654 101.5 c 128,-1,60
 641 101 641 101 634 100.5 c 2,61,-1
 627 100 l 1,62,63
 635 86 635 86 634.5 14 c 128,-1,64
 634 -58 634 -58 626 -66 c 0,65,66
 624 -68 624 -68 454 -68 c 2,67,-1
 283 -67 l 1,68,-1
 281 -59 l 2,69,70
 274 -33 274 -33 274.5 22.5 c 128,-1,71
 275 78 275 78 282 96 c 2,72,-1
 284 102 l 1,73,-1
 426 102 l 1,74,-1
 568 102 l 1,75,-1
 566 112 l 1,76,77
 553 159 553 159 561 234 c 0,78,79
 564 264 564 264 568 268.5 c 128,-1,80
 572 273 572 273 597 273 c 2,81,-1
 625 273 l 1,82,-1
 623 282 l 2,83,84
 616 309 616 309 616 362 c 128,-1,85
 616 415 616 415 623 436 c 2,86,-1
 625 443 l 1,87,-1
 597 444 l 1,88,-1
 568 445 l 1,89,-1
 566 453 l 2,90,91
 559 478 559 478 559 532 c 128,-1,92
 559 586 559 586 566 607 c 1,93,-1
 569 614 l 1,94,-1
 483 615 l 1,95,-1
 397 616 l 1,96,-1
 395 624 l 2,97,98
 388 650 388 650 388.5 705.5 c 128,-1,99
 389 761 389 761 396 779 c 2,15,-1
168 1120 m 1,100,-1
 171 1126 l 1,101,-1
 455 1126 l 2,102,103
 739 1126 739 1126 741 1124 c 0,104,105
 746 1115 746 1115 748.5 1065.5 c 128,-1,106
 751 1016 751 1016 747 991 c 0,107,108
 746 989 746 989 745 981.5 c 128,-1,109
 744 974 744 974 744 972 c 0,110,111
 742 959 742 959 741 958 c 0,112,113
 739 956 739 956 540 956 c 0,114,115
 489 956 489 956 441 955.5 c 128,-1,116
 393 955 393 955 367 954.5 c 128,-1,117
 341 954 341 954 342 953 c 0,118,119
 349 942 349 942 350 884.5 c 128,-1,120
 351 827 351 827 345 798 c 0,121,122
 343 785 343 785 345 772 c 1,123,124
 352 742 352 742 351 685 c 128,-1,125
 350 628 350 628 342 617 c 1,126,-1
 366.621 614.03 l 1,127,-1
 370 614 l 2,128,129
 395 614 395 614 399 610 c 128,-1,130
 403 606 403 606 406 574 c 128,-1,131
 409 542 409 542 406.5 496.5 c 128,-1,132
 404 451 404 451 399 446 c 0,133,134
 397 444 397 444 283 444 c 1,135,-1
 170 445 l 1,136,-1
 167 453 l 1,137,138
 160 479 160 479 160.5 532.5 c 128,-1,139
 161 586 161 586 168 606 c 0,140,141
 170 614 170 614 168 624 c 0,142,143
 161 651 161 651 161 703.5 c 128,-1,144
 161 756 161 756 168 777 c 0,145,146
 170 785 170 785 168 794 c 0,147,148
 161 821 161 821 161 874 c 128,-1,149
 161 927 161 927 168 948 c 0,150,151
 170 956 170 956 168 965 c 0,152,153
 161 993 161 993 161 1047 c 128,-1,154
 161 1101 161 1101 168 1120 c 1,100,-1
EndSplineSet
EndChar

StartChar: p
Encoding: 112 112 49
Width: 851
VWidth: 0
Flags: W
HStem: -68 170<285.974 568> 444 170.029<286.001 349.487> 616 169<341 569>
VStem: 104 246.5<446.192 613.483> 111 176<-406.737 -68 105.355 444.25 617.016 779> 331.5 303.5<620.125 782.678> 561 188<105.451 268.353 445 607> 616 182<273.141 440.678>
LayerCount: 2
Back
Fore
SplineSet
111 779 m 1,0,-1
 114 785 l 1,1,-1
 199 785 l 2,2,3
 284 785 284 785 286 783 c 0,4,5
 292 773 292 773 294 724 c 128,-1,6
 296 675 296 675 291 647 c 0,7,8
 290 642 290 642 289.5 638 c 128,-1,9
 289 634 289 634 288.5 631.5 c 128,-1,10
 288 629 288 629 287.5 626.5 c 128,-1,11
 287 624 287 624 287 622.5 c 128,-1,12
 287 621 287 621 287 620 c 128,-1,13
 287 619 287 619 286.5 618 c 2,14,-1
 286 617 l 1,15,-1
 309.514 614.032 l 1,16,-1
 313 614 l 2,17,18
 316 614 316 614 322.233 614.029 c 0,19,20
 336 614 336 614 339 613.5 c 128,-1,21
 342 613 342 613 344 608 c 0,22,23
 349 595 349 595 350.5 548 c 128,-1,24
 352 501 352 501 348 476 c 0,25,26
 345 452 345 452 342 446 c 0,27,28
 340 444 340 444 313 444 c 128,-1,29
 285.867 443.885 285.867 443.885 286 441 c 1,30,31
 293 430 293 430 293.5 372.5 c 128,-1,32
 294 315 294 315 288 286 c 0,33,34
 286 273 286 273 288 260 c 1,35,36
 295 230 295 230 294 173 c 128,-1,37
 293 116 293 116 286 105 c 0,38,39
 285 104 285 104 303.5 103.5 c 128,-1,40
 322 103 322 103 356 102.5 c 128,-1,41
 390 102 390 102 426 102 c 2,42,-1
 568 102 l 1,43,-1
 566 112 l 1,44,45
 553 159 553 159 561 234 c 0,46,47
 564 264 564 264 568 268.5 c 128,-1,48
 572 273 572 273 597 273 c 2,49,-1
 625 273 l 1,50,-1
 623 282 l 2,51,52
 616 309 616 309 616 362 c 128,-1,53
 616 415 616 415 623 436 c 2,54,-1
 625 443 l 1,55,-1
 597 444 l 1,56,-1
 568 445 l 1,57,-1
 566 453 l 2,58,59
 559 478 559 478 559 532 c 128,-1,60
 559 586 559 586 566 607 c 1,61,-1
 569 614 l 1,62,-1
 454 615 l 1,63,-1
 340 616 l 1,64,-1
 338 624 l 2,65,66
 331 650 331 650 331.5 705.5 c 128,-1,67
 332 761 332 761 339 779 c 2,68,-1
 341 785 l 1,69,-1
 483 785 l 2,70,71
 625 785 625 785 627 783 c 0,72,73
 633 773 633 773 635 724 c 128,-1,74
 637 675 637 675 633 647 c 0,75,76
 628 619 628 619 627 617 c 1,77,-1
 629.5 616.5 l 2,78,79
 632 616 632 616 637 615.5 c 128,-1,80
 642 615 642 615 649 614.5 c 128,-1,81
 656 614 656 614 664.5 614 c 128,-1,82
 673 614 673 614 682 614 c 0,83,84
 739 614 739 614 741 612 c 0,85,86
 747 602 747 602 749 553 c 128,-1,87
 751 504 751 504 747 476 c 0,88,89
 742 448 742 448 741 446 c 0,90,91
 739 444 739 444 768 444 c 0,92,93
 795 444 795 444 798 441 c 1,94,95
 804 431 804 431 806 382.5 c 128,-1,96
 808 334 808 334 803 306 c 0,97,98
 801 296 801 296 800 288.5 c 128,-1,99
 799 281 799 281 798.5 278.5 c 128,-1,100
 798 276 798 276 798 275 c 0,101,102
 796 273 796 273 768 273 c 0,103,104
 739 273 739 273 741 271 c 0,105,106
 749 257 749 257 749 189 c 0,107,108
 749 119 749 119 741 105 c 1,109,110
 738 102 738 102 682 102 c 0,111,112
 667 102 667 102 654 101.5 c 128,-1,113
 641 101 641 101 634 100.5 c 2,114,-1
 627 100 l 1,115,116
 635 86 635 86 635 18 c 0,117,118
 635 -52 635 -52 627 -66 c 0,119,120
 625 -68 625 -68 455 -68 c 2,121,-1
 285 -68 l 1,122,-1
 287 -77 l 1,123,124
 294 -101 294 -101 293.5 -162.5 c 128,-1,125
 293 -224 293 -224 286 -236 c 0,126,127
 285 -237 285 -237 285.5 -240.5 c 128,-1,128
 286 -244 286 -244 287 -248 c 0,129,130
 294 -274 294 -274 293.5 -336.5 c 128,-1,131
 293 -399 293 -399 285 -407 c 0,132,133
 283 -409 283 -409 198 -409 c 2,134,-1
 113 -408 l 1,135,-1
 111 -400 l 2,136,137
 104 -374 104 -374 104 -320.5 c 128,-1,138
 104 -267 104 -267 111 -247 c 0,139,140
 113 -239 113 -239 111 -230 c 0,141,142
 104 -203 104 -203 104 -150 c 128,-1,143
 104 -97 104 -97 111 -76 c 0,144,145
 113 -68 113 -68 111 -59 c 0,146,147
 104 -32 104 -32 104 20.5 c 128,-1,148
 104 73 104 73 111 94 c 0,149,150
 113 102 113 102 111 112 c 0,151,152
 104 139 104 139 104 191.5 c 128,-1,153
 104 244 104 244 111 265 c 0,154,155
 113 273 113 273 111 282 c 0,156,157
 104 309 104 309 104 362 c 128,-1,158
 104 415 104 415 111 436 c 0,159,160
 113 444 113 444 111 453 c 0,161,162
 104 480 104 480 104 532.5 c 128,-1,163
 104 585 104 585 111 606 c 0,164,165
 113 614 113 614 111 624 c 0,166,167
 104 652 104 652 104 706 c 128,-1,168
 104 760 104 760 111 779 c 1,0,-1
EndSplineSet
EndChar

StartChar: Aacute
Encoding: 193 193 50
Width: 851
VWidth: 0
Flags: W
HStem: -68 21G<113 240.5 625 752.5> -68 21G<113 240.5 625 752.5> 273 171<342 568> 785 341<399.039 509.782> 1298 170<341 455> 1468 170<513.039 626.917>
VStem: 104 189.5<-65.7686 268.353> 163 188<446.513 609.869> 220 188<617.513 780.353> 331.5 246.5<958.069 1123.68> 331.5 189.5<1299.27 1464.58> 445.5 184.5<1470.03 1632> 502 190<617.069 782.678> 559 190<343.5 532.5> 616 189.5<-65.7686 270.966>
LayerCount: 2
Back
Fore
SplineSet
339 1120 m 2,0,-1
 341 1126 l 1,1,-1
 455 1126 l 2,2,3
 568 1126 568 1126 570 1124 c 0,4,5
 576 1114 576 1114 578 1065 c 128,-1,6
 580 1016 580 1016 576 988 c 0,7,8
 571 960 571 960 570 958 c 0,9,10
 568 956 568 956 597 956 c 0,11,12
 624 956 624 956 627 953 c 1,13,14
 633 943 633 943 635 894.5 c 128,-1,15
 637 846 637 846 633 818 c 0,16,17
 628 789 628 789 627 787 c 0,18,19
 625 785 625 785 654 785 c 0,20,21
 682 785 682 785 684 783 c 0,22,23
 690 773 690 773 692 724 c 128,-1,24
 694 675 694 675 690 647 c 0,25,26
 685 619 685 619 684 617 c 1,27,-1
 707.514 614.032 l 1,28,-1
 711 614 l 2,29,30
 739 614 739 614 741 612 c 0,31,32
 742 611 742 611 744 600 c 0,33,34
 757 531 757 531 743 457 c 0,35,36
 741 443 741 443 743 431 c 0,37,38
 750 401 750 401 749 343.5 c 128,-1,39
 748 286 748 286 741 275 c 0,40,41
 739 273 739 273 768 273 c 0,42,43
 796 273 796 273 798 271 c 0,44,45
 799 270 799 270 801 259 c 0,46,47
 814 189 814 189 800 115 c 0,48,49
 798 102 798 102 800 90 c 0,50,51
 807 59 807 59 805.5 0 c 128,-1,52
 804 -59 804 -59 797 -66 c 0,53,54
 795 -68 795 -68 710 -68 c 2,55,-1
 625 -67 l 1,56,-1
 623 -59 l 2,57,58
 616 -34 616 -34 616 20 c 128,-1,59
 616 74 616 74 623 94 c 0,60,61
 625 102 625 102 623 112 c 0,62,63
 616 139 616 139 616 191.5 c 128,-1,64
 616 244 616 244 623 265 c 1,65,-1
 625 273 l 1,66,-1
 455 273 l 2,67,68
 435 273 435 273 416 273 c 128,-1,69
 397 273 397 273 380.5 273 c 128,-1,70
 364 273 364 273 349 272.5 c 128,-1,71
 334 272 334 272 322.5 272 c 128,-1,72
 311 272 311 272 302.5 272 c 128,-1,73
 294 272 294 272 290 271.5 c 2,74,-1
 286 271 l 1,75,76
 293 260 293 260 293.5 202 c 128,-1,77
 294 144 294 144 288 115 c 0,78,79
 286 102 286 102 288 90 c 0,80,81
 295 59 295 59 293.5 0 c 128,-1,82
 292 -59 292 -59 285 -66 c 0,83,84
 283 -68 283 -68 198 -68 c 2,85,-1
 113 -67 l 1,86,-1
 111 -59 l 2,87,88
 104 -34 104 -34 104 20 c 128,-1,89
 104 74 104 74 111 94 c 0,90,91
 113 102 113 102 111 112 c 0,92,93
 98 159 98 159 106 234 c 0,94,95
 109 264 109 264 113 268.5 c 128,-1,96
 117 273 117 273 142 273 c 2,97,-1
 170 273 l 1,98,-1
 168 282 l 2,99,100
 161 309 161 309 161 362 c 128,-1,101
 161 415 161 415 168 436 c 0,102,103
 170 444 170 444 168 453 c 0,104,105
 155 500 155 500 163 576 c 0,106,107
 166 606 166 606 170 610 c 128,-1,108
 174 614 174 614 199 614 c 2,109,-1
 227 614 l 1,110,-1
 225 624 l 1,111,112
 212 671 212 671 220 746 c 0,113,114
 223 776 223 776 227 780.5 c 128,-1,115
 231 785 231 785 256 785 c 2,116,-1
 284 785 l 1,117,-1
 281 794 l 1,118,119
 269 838 269 838 277 917 c 0,120,121
 280 947 280 947 284 951.5 c 128,-1,122
 288 956 288 956 313 956 c 2,123,-1
 341 956 l 1,124,-1
 338 965 l 1,125,126
 331 992 331 992 331.5 1046.5 c 128,-1,127
 332 1101 332 1101 339 1120 c 2,0,-1
509 777 m 2,128,-1
 512 785 l 1,129,-1
 455 785 l 2,130,131
 446 785 446 785 437.5 785 c 128,-1,132
 429 785 429 785 422 784.5 c 128,-1,133
 415 784 415 784 409.5 784 c 128,-1,134
 404 784 404 784 401.5 783.5 c 2,135,-1
 399 783 l 1,136,137
 408 767 408 767 408 701 c 0,138,139
 408 633 408 633 399 617 c 1,140,141
 396 614 396 614 369 614 c 0,142,143
 340 614 340 614 342 612 c 0,144,145
 351 596 351 596 351 530 c 0,146,147
 351 462 351 462 342 446 c 1,148,-1
 356.5 445.5 l 2,149,150
 371 445 371 445 397.5 444.5 c 128,-1,151
 424 444 424 444 455 444 c 2,152,-1
 568 444 l 1,153,-1
 566 453 l 2,154,155
 559 480 559 480 559 532.5 c 128,-1,156
 559 585 559 585 566 606 c 2,157,-1
 569 614 l 1,158,-1
 540 615 l 1,159,-1
 511 616 l 1,160,-1
 509 624 l 2,161,162
 502 650 502 650 502 703 c 128,-1,163
 502 756 502 756 509 777 c 2,128,-1
453 1632 m 2,164,-1
 455 1638 l 1,165,-1
 540 1638 l 2,166,167
 625 1638 625 1638 627 1636 c 0,168,169
 632 1627 632 1627 634.5 1577.5 c 128,-1,170
 637 1528 637 1528 633 1503 c 0,171,172
 632 1501 632 1501 631 1493.5 c 128,-1,173
 630 1486 630 1486 630 1484 c 0,174,175
 628 1471 628 1471 627 1470 c 0,176,177
 625 1468 625 1468 569 1468 c 0,178,179
 560 1468 560 1468 551 1468 c 128,-1,180
 542 1468 542 1468 535.5 1467.5 c 128,-1,181
 529 1467 529 1467 523.5 1466.5 c 128,-1,182
 518 1466 518 1466 515.5 1465.5 c 2,183,-1
 513 1465 l 1,184,185
 521 1452 521 1452 521 1379.5 c 128,-1,186
 521 1307 521 1307 513 1299 c 0,187,188
 512 1298 512 1298 425 1298 c 2,189,-1
 340 1298 l 1,190,-1
 338 1306 l 2,191,192
 331 1332 331 1332 331.5 1387.5 c 128,-1,193
 332 1443 332 1443 339 1461 c 1,194,-1
 341 1468 l 1,195,-1
 398 1468 l 1,196,-1
 455 1468 l 1,197,-1
 452 1477 l 1,198,199
 445 1504 445 1504 445.5 1558.5 c 128,-1,200
 446 1613 446 1613 453 1632 c 2,164,-1
EndSplineSet
EndChar

StartChar: numbersign
Encoding: 35 35 51
Width: 851
VWidth: 0
Flags: W
HStem: -68 21G<226 354 511 638.5> -68 21G<226 354 511 638.5> 102 171<114 227 399.109 511 684.109 797.894> 614 171<114 227 399.109 511 684.109 797.893>
VStem: 104 695<105.016 270.678 617.016 782.678> 225 174<-67 102 274.5 612.5 786.5 949> 509 178<-66.875 101.859 275.355 612.5 786.5 949>
LayerCount: 2
Back
Fore
SplineSet
225 949 m 1,0,-1
 228 956 l 1,1,-1
 313 956 l 2,2,3
 396 956 396 956 399 953 c 1,4,5
 405 943 405 943 407 894.5 c 128,-1,6
 409 846 409 846 405 818 c 0,7,8
 400 789 400 789 399 787 c 1,9,-1
 406 786.5 l 2,10,11
 413 786 413 786 426.5 785.5 c 128,-1,12
 440 785 440 785 455 785 c 2,13,-1
 511 785 l 1,14,-1
 509 794 l 2,15,16
 502 822 502 822 502 876 c 128,-1,17
 502 930 502 930 509 949 c 1,18,-1
 512 956 l 1,19,-1
 597 956 l 2,20,21
 681 956 681 956 684 953 c 1,22,23
 690 943 690 943 692 894.5 c 128,-1,24
 694 846 694 846 690 818 c 0,25,26
 685 789 685 789 684 787 c 1,27,-1
 691 786.5 l 2,28,29
 698 786 698 786 711 785.5 c 128,-1,30
 724 785 724 785 739 785 c 0,31,32
 796 785 796 785 798 783 c 0,33,34
 804 773 804 773 806 724 c 128,-1,35
 808 675 808 675 803 647 c 0,36,37
 802 642 802 642 801.5 638 c 128,-1,38
 801 634 801 634 800.5 631.5 c 128,-1,39
 800 629 800 629 799.5 626.5 c 128,-1,40
 799 624 799 624 799 622.5 c 128,-1,41
 799 621 799 621 799 620 c 128,-1,42
 799 619 799 619 798.5 618 c 2,43,-1
 798 617 l 1,44,45
 795 614 795 614 739 614 c 0,46,47
 724 614 724 614 711 613.5 c 128,-1,48
 698 613 698 613 691 612.5 c 2,49,-1
 684 612 l 1,50,51
 691 601 691 601 692 543.5 c 128,-1,52
 693 486 693 486 687 457 c 0,53,54
 685 444 685 444 687 431 c 1,55,56
 694 401 694 401 693 343.5 c 128,-1,57
 692 286 692 286 684 275 c 1,58,-1
 691 274.5 l 2,59,60
 698 274 698 274 711 273.5 c 128,-1,61
 724 273 724 273 739 273 c 0,62,63
 796 273 796 273 798 271 c 0,64,65
 804 261 804 261 806 212 c 128,-1,66
 808 163 808 163 803 135 c 0,67,68
 802 130 802 130 801.5 126 c 128,-1,69
 801 122 801 122 800.5 119.5 c 128,-1,70
 800 117 800 117 799.5 114.5 c 128,-1,71
 799 112 799 112 799 110.5 c 128,-1,72
 799 109 799 109 799 108 c 128,-1,73
 799 107 799 107 798.5 106 c 2,74,-1
 798 105 l 1,75,76
 795 102 795 102 740 102 c 2,77,-1
 683 102 l 1,78,-1
 686 93 l 1,79,80
 693 67 693 67 692 4.5 c 128,-1,81
 691 -58 691 -58 683 -66 c 0,82,83
 681 -68 681 -68 596 -68 c 2,84,-1
 511 -67 l 1,85,-1
 509 -59 l 2,86,87
 502 -34 502 -34 502 20 c 128,-1,88
 502 74 502 74 509 94 c 2,89,-1
 512 102 l 1,90,-1
 455 102 l 1,91,-1
 399 102 l 1,92,-1
 401 93 l 1,93,94
 408 67 408 67 407.5 4.5 c 128,-1,95
 407 -58 407 -58 399 -66 c 0,96,97
 397 -68 397 -68 311 -68 c 1,98,-1
 226 -67 l 1,99,-1
 224 -59 l 2,100,101
 217 -33 217 -33 217.5 21 c 128,-1,102
 218 75 218 75 225 95 c 1,103,-1
 227 102 l 1,104,-1
 170 103 l 1,105,-1
 113 104 l 1,106,-1
 111 112 l 2,107,108
 104 138 104 138 104 193.5 c 128,-1,109
 104 249 104 249 111 267 c 1,110,-1
 114 273 l 1,111,-1
 170 273 l 1,112,-1
 227 273 l 1,113,-1
 225 282 l 2,114,115
 218 309 218 309 218 362 c 128,-1,116
 218 415 218 415 225 436 c 0,117,118
 227 444 227 444 225 453 c 0,119,120
 218 480 218 480 218 533 c 128,-1,121
 218 586 218 586 225 607 c 2,122,-1
 227 614 l 1,123,-1
 170 615 l 1,124,-1
 113 616 l 1,125,-1
 111 624 l 2,126,127
 104 650 104 650 104 705.5 c 128,-1,128
 104 761 104 761 111 779 c 1,129,-1
 114 785 l 1,130,-1
 170 785 l 1,131,-1
 227 785 l 1,132,-1
 225 794 l 2,133,134
 218 822 218 822 218 876 c 128,-1,135
 218 930 218 930 225 949 c 1,0,-1
509 606 m 2,136,-1
 512 614 l 1,137,-1
 455 614 l 2,138,139
 446 614 446 614 437.5 614 c 128,-1,140
 429 614 429 614 422 613.5 c 128,-1,141
 415 613 415 613 409.5 613 c 128,-1,142
 404 613 404 613 401.5 612.5 c 2,143,-1
 399 612 l 1,144,145
 406 601 406 601 407 543.5 c 128,-1,146
 408 486 408 486 402 457 c 0,147,148
 400 444 400 444 402 431 c 1,149,150
 409 401 409 401 408 343.5 c 128,-1,151
 407 286 407 286 399 275 c 1,152,-1
 406 274.5 l 2,153,154
 413 274 413 274 426.5 273.5 c 128,-1,155
 440 273 440 273 455 273 c 2,156,-1
 511 273 l 1,157,-1
 509 282 l 2,158,159
 502 309 502 309 502 362 c 128,-1,160
 502 415 502 415 509 436 c 0,161,162
 511 444 511 444 509 453 c 0,163,164
 502 480 502 480 502 532.5 c 128,-1,165
 502 585 502 585 509 606 c 2,136,-1
EndSplineSet
EndChar

StartChar: six
Encoding: 54 54 52
Width: 851
VWidth: 0
Flags: W
HStem: -67 169<398 625> 444 170<398 625> 785 171<341.945 398> 957 169<398 690.567>
VStem: 161 190<446.355 780.353> 218 189.5<105.231 272.875 787.388 949> 388.5 303<-65.7344 99.5483 446.069 611.678 958.065 1123.71> 616 190<105.355 440.966>
LayerCount: 2
Back
Fore
SplineSet
396 608 m 2,0,-1
 398 614 l 1,1,-1
 540 614 l 2,2,3
 682 614 682 614 684 612 c 0,4,5
 690 602 690 602 692 553 c 128,-1,6
 694 504 694 504 690 476 c 0,7,8
 685 448 685 448 684 446 c 1,9,-1
 691 445.5 l 2,10,11
 698 445 698 445 711 444.5 c 128,-1,12
 724 444 724 444 739 444 c 0,13,14
 795 444 795 444 798 441 c 0,15,16
 799 440 799 440 801 429 c 0,17,18
 814 360 814 360 800 286 c 0,19,20
 798 272 798 272 800 260 c 0,21,22
 807 230 807 230 806 173 c 128,-1,23
 805 116 805 116 798 105 c 0,24,25
 795 102 795 102 739 102 c 0,26,27
 724 102 724 102 711 101.5 c 128,-1,28
 698 101 698 101 691 100.5 c 2,29,-1
 684 100 l 1,30,31
 692 86 692 86 691.5 14 c 128,-1,32
 691 -58 691 -58 683 -66 c 0,33,34
 681 -68 681 -68 539 -68 c 2,35,-1
 397 -67 l 1,36,-1
 395 -59 l 2,37,38
 388 -33 388 -33 388.5 22.5 c 128,-1,39
 389 78 389 78 396 96 c 2,40,-1
 398 102 l 1,41,-1
 512 102 l 1,42,-1
 625 102 l 1,43,-1
 623 112 l 1,44,45
 616 139 616 139 616 191.5 c 128,-1,46
 616 244 616 244 623 265 c 0,47,48
 625 273 625 273 623 282 c 0,49,50
 616 309 616 309 616 362 c 128,-1,51
 616 415 616 415 623 436 c 1,52,-1
 625 444 l 1,53,-1
 511 444 l 1,54,-1
 397 445 l 1,55,-1
 395 453 l 2,56,57
 388 479 388 479 388.5 534.5 c 128,-1,58
 389 590 389 590 396 608 c 2,0,-1
225 949 m 1,59,-1
 228 956 l 1,60,-1
 313 956 l 1,61,-1
 398 956 l 1,62,-1
 401 949 l 1,63,64
 408 929 408 929 407.5 864 c 128,-1,65
 407 799 407 799 399 787 c 0,66,67
 397 785 397 785 369 785 c 0,68,69
 340 785 340 785 342 783 c 0,70,71
 349 772 349 772 350 714 c 128,-1,72
 351 656 351 656 345 627 c 0,73,74
 343 614 343 614 345 602 c 0,75,76
 352 572 352 572 351 514.5 c 128,-1,77
 350 457 350 457 342 446 c 0,78,79
 340 444 340 444 370 444 c 0,80,81
 395 444 395 444 399 439.5 c 128,-1,82
 403 435 403 435 406 403 c 0,83,84
 413 343 413 343 402 286 c 0,85,86
 400 272 400 272 402 260 c 0,87,88
 409 229 409 229 407.5 170.5 c 128,-1,89
 406 112 406 112 399 105 c 0,90,91
 397 103 397 103 311 103 c 1,92,-1
 226 104 l 1,93,-1
 224 112 l 2,94,95
 217 138 217 138 217.5 191.5 c 128,-1,96
 218 245 218 245 225 265 c 1,97,-1
 227 273 l 1,98,-1
 198 274 l 1,99,-1
 170 274 l 1,100,-1
 167 282 l 1,101,102
 160 308 160 308 160.5 362 c 128,-1,103
 161 416 161 416 168 436 c 0,104,105
 170 444 170 444 168 453 c 0,106,107
 161 480 161 480 161 532.5 c 128,-1,108
 161 585 161 585 168 606 c 0,109,110
 170 614 170 614 168 624 c 0,111,112
 155 671 155 671 163 746 c 0,113,114
 166 776 166 776 170 780.5 c 128,-1,115
 174 785 174 785 199 785 c 2,116,-1
 227 785 l 1,117,-1
 225 794 l 2,118,119
 218 822 218 822 218 876 c 128,-1,120
 218 930 218 930 225 949 c 1,59,-1
396 1120 m 2,121,-1
 398 1126 l 1,122,-1
 540 1126 l 2,123,124
 682 1126 682 1126 684 1124 c 0,125,126
 689 1115 689 1115 691.5 1065.5 c 128,-1,127
 694 1016 694 1016 690 991 c 0,128,129
 689 988 689 988 688 980.5 c 128,-1,130
 687 973 687 973 687 971 c 0,131,132
 685 960 685 960 683 958 c 128,-1,133
 681 956 681 956 539 956 c 2,134,-1
 397 957 l 1,135,-1
 395 965 l 2,136,137
 388 991 388 991 388.5 1046.5 c 128,-1,138
 389 1102 389 1102 396 1120 c 2,121,-1
EndSplineSet
EndChar

StartChar: logicalnot
Encoding: 172 172 53
Width: 851
VWidth: 0
Flags: W
HStem: 616 169<114 625>
VStem: 616 189<275.231 613.86>
LayerCount: 2
Back
Fore
SplineSet
111 779 m 1,0,-1
 114 785 l 1,1,-1
 455 785 l 2,2,3
 796 785 796 785 798 783 c 0,4,5
 799 782 799 782 801 771 c 0,6,7
 814 702 814 702 800 627 c 0,8,9
 798 614 798 614 800 602 c 0,10,11
 805 576 805 576 805 529 c 128,-1,12
 805 482 805 482 800 457 c 0,13,14
 798 444 798 444 800 431 c 0,15,16
 807 400 807 400 805.5 341 c 128,-1,17
 804 282 804 282 797 275 c 0,18,19
 796 274 796 274 710 274 c 2,20,-1
 625 274 l 1,21,-1
 623 282 l 2,22,23
 616 308 616 308 616 362 c 128,-1,24
 616 416 616 416 623 436 c 0,25,26
 625 444 625 444 623 453 c 0,27,28
 616 480 616 480 616 533 c 128,-1,29
 616 586 616 586 623 607 c 2,30,-1
 625 614 l 1,31,-1
 369 615 l 1,32,-1
 113 616 l 1,33,-1
 111 624 l 2,34,35
 104 650 104 650 104 705.5 c 128,-1,36
 104 761 104 761 111 779 c 1,0,-1
EndSplineSet
EndChar

StartChar: two
Encoding: 50 50 54
Width: 851
VWidth: 0
Flags: W
HStem: -68 170.5<171 284 455.974 747.475> 273 171<456.039 511> 786 170<170 227> 956 170<285.974 569>
VStem: 167 118<794 864.766> 218 417<958.069 1123.68> 281 175<102.922 267> 388.5 190.5<273.141 440.488> 504 188<446.451 609.869> 559 190<617.355 952.966>
LayerCount: 2
Back
Fore
SplineSet
225 1120 m 1,0,-1
 228 1126 l 1,1,-1
 427 1126 l 2,2,3
 625 1126 625 1126 627 1124 c 0,4,5
 633 1114 633 1114 635 1065 c 128,-1,6
 637 1016 637 1016 633 988 c 0,7,8
 628 960 628 960 627 958 c 1,9,-1
 634 957.5 l 2,10,11
 641 957 641 957 654 956.5 c 128,-1,12
 667 956 667 956 682 956 c 0,13,14
 738 956 738 956 741 953 c 0,15,16
 742 952 742 952 744 941 c 0,17,18
 757 872 757 872 743 798 c 0,19,20
 741 784 741 784 743 772 c 0,21,22
 750 742 750 742 749 685 c 128,-1,23
 748 628 748 628 741 617 c 0,24,25
 738 614 738 614 711 614 c 0,26,27
 682 614 682 614 684 612 c 0,28,29
 692 598 692 598 692 530 c 0,30,31
 692 460 692 460 684 446 c 0,32,33
 682 444 682 444 625 444 c 0,34,35
 619 444 619 444 612.5 444 c 128,-1,36
 606 444 606 444 600.5 443.5 c 128,-1,37
 595 443 595 443 590 443 c 128,-1,38
 585 443 585 443 581.5 442.5 c 128,-1,39
 578 442 578 442 575 442 c 128,-1,40
 572 442 572 442 571 441.5 c 2,41,-1
 570 441 l 1,42,43
 579 425 579 425 579 360 c 0,44,45
 579 291 579 291 570 275 c 0,46,47
 568 273 568 273 512 273 c 0,48,49
 503 273 503 273 494.5 273 c 128,-1,50
 486 273 486 273 479 272.5 c 128,-1,51
 472 272 472 272 466.5 272 c 128,-1,52
 461 272 461 272 458.5 271.5 c 2,53,-1
 456 271 l 1,54,55
 465 255 465 255 465 189 c 0,56,57
 465 121 465 121 456 105 c 0,58,59
 455 104 455 104 473.5 103.5 c 128,-1,60
 492 103 492 103 526.5 102.5 c 128,-1,61
 561 102 561 102 597 102 c 0,62,63
 739 102 739 102 741 100 c 0,64,65
 746 91 746 91 748.5 41.5 c 128,-1,66
 751 -8 751 -8 747 -33 c 0,67,68
 746 -36 746 -36 745 -43.5 c 128,-1,69
 744 -51 744 -51 744 -53 c 0,70,71
 742 -64 742 -64 740 -66 c 128,-1,72
 738 -68 738 -68 454 -68 c 2,73,-1
 170 -67 l 1,74,-1
 167 -59 l 1,75,76
 160 -33 160 -33 160.5 22.5 c 128,-1,77
 161 78 161 78 168 96 c 1,78,-1
 171 102 l 1,79,-1
 227 102 l 1,80,-1
 284 102 l 1,81,-1
 281 112 l 1,82,83
 274 139 274 139 274.5 193.5 c 128,-1,84
 275 248 275 248 282 267 c 2,85,-1
 284 273 l 1,86,-1
 341 273 l 1,87,-1
 398 273 l 1,88,-1
 395 282 l 1,89,90
 388 309 388 309 388.5 363.5 c 128,-1,91
 389 418 389 418 396 437 c 1,92,-1
 398 444 l 1,93,-1
 455 444 l 1,94,-1
 511 444 l 1,95,-1
 509 453 l 1,96,97
 496 500 496 500 504 576 c 0,98,99
 507 606 507 606 511 610 c 128,-1,100
 515 614 515 614 540 614 c 2,101,-1
 568 614 l 1,102,-1
 566 624 l 1,103,104
 559 651 559 651 559 703.5 c 128,-1,105
 559 756 559 756 566 777 c 0,106,107
 568 785 568 785 566 794 c 0,108,109
 559 821 559 821 559 874 c 128,-1,110
 559 927 559 927 566 948 c 2,111,-1
 569 956 l 1,112,-1
 426 956 l 2,113,114
 390 956 390 956 356 955.5 c 128,-1,115
 322 955 322 955 303.5 954.5 c 128,-1,116
 285 954 285 954 286 953 c 0,117,118
 294 939 294 939 293.5 867 c 128,-1,119
 293 795 293 795 285 787 c 0,120,121
 284 786 284 786 226 786 c 2,122,-1
 170 786 l 1,123,-1
 167 794 l 1,124,125
 155 837 155 837 163 917 c 0,126,127
 166 947 166 947 170 951.5 c 128,-1,128
 174 956 174 956 199 956 c 2,129,-1
 227 956 l 1,130,-1
 225 965 l 2,131,132
 218 993 218 993 218 1047 c 128,-1,133
 218 1101 218 1101 225 1120 c 1,0,-1
EndSplineSet
EndChar

StartChar: aring
Encoding: 229 229 55
Width: 851
VWidth: 0
Flags: W
HStem: -68 170<341.973 569 741 804.585> 103 170<170 227> 273 171<342.039 568> 616 169<284 569> 956 170<399.062 568> 1126 171<284.13 341 627.051 683.9> 1297 171<399 566.521>
VStem: 331 303.5<958.266 1125.88 1300.03 1464.71> 559 189.5<105.355 271.875 444.289 607> 559 128<1129.03 1289> 623 175<-67 102>
LayerCount: 2
Back
Fore
SplineSet
282 779 m 2,0,-1
 284 785 l 1,1,-1
 455 785 l 2,2,3
 625 785 625 785 627 783 c 0,4,5
 633 773 633 773 635 724 c 128,-1,6
 637 675 637 675 633 647 c 0,7,8
 628 619 628 619 627 617 c 1,9,-1
 629.5 616.5 l 2,10,11
 632 616 632 616 637 615.5 c 128,-1,12
 642 615 642 615 649 614.5 c 128,-1,13
 656 614 656 614 664.5 614 c 128,-1,14
 673 614 673 614 682 614 c 0,15,16
 739 614 739 614 741 612 c 0,17,18
 746 603 746 603 748.5 553.5 c 128,-1,19
 751 504 751 504 747 479 c 0,20,21
 746 476 746 476 745 468.5 c 128,-1,22
 744 461 744 461 744 459 c 0,23,24
 741 440 741 440 743 431 c 0,25,26
 749 404 749 404 748.5 358 c 128,-1,27
 748 312 748 312 743 286 c 0,28,29
 741 273 741 273 743 260 c 1,30,31
 750 230 750 230 749 173 c 128,-1,32
 748 116 748 116 741 105 c 1,33,-1
 764.514 102.032 l 1,34,-1
 768 102 l 2,35,36
 796 102 796 102 798 100 c 0,37,38
 808 84 808 84 806 6 c 0,39,40
 804 -59 804 -59 797 -66 c 0,41,42
 795 -68 795 -68 710 -68 c 2,43,-1
 625 -67 l 1,44,-1
 623 -59 l 2,45,46
 616 -34 616 -34 616 20 c 128,-1,47
 616 74 616 74 623 94 c 1,48,-1
 625 102 l 1,49,-1
 597 103 l 1,50,-1
 568 104 l 1,51,-1
 566 112 l 2,52,53
 559 138 559 138 559 191 c 128,-1,54
 559 244 559 244 566 265 c 2,55,-1
 569 273 l 1,56,-1
 455 273 l 2,57,58
 442 273 442 273 429 273 c 128,-1,59
 416 273 416 273 405 273 c 128,-1,60
 394 273 394 273 384 272.5 c 128,-1,61
 374 272 374 272 366.5 272 c 128,-1,62
 359 272 359 272 353 272 c 128,-1,63
 347 272 347 272 344.5 271.5 c 2,64,-1
 342 271 l 1,65,66
 351 255 351 255 351 189 c 0,67,68
 351 121 351 121 342 105 c 0,69,70
 341 104 341 104 356 103.5 c 128,-1,71
 371 103 371 103 398.5 102.5 c 128,-1,72
 426 102 426 102 455 102 c 2,73,-1
 569 102 l 1,74,-1
 571 96 l 1,75,76
 579 76 579 76 578 9 c 128,-1,77
 577 -58 577 -58 569 -66 c 0,78,79
 567 -68 567 -68 397 -68 c 2,80,-1
 226 -67 l 1,81,-1
 224 -59 l 2,82,83
 217 -33 217 -33 217.5 20.5 c 128,-1,84
 218 74 218 74 225 94 c 1,85,-1
 227 102 l 1,86,-1
 198 103 l 1,87,-1
 170 104 l 1,88,-1
 167 112 l 1,89,90
 155 155 155 155 163 234 c 0,91,92
 166 264 166 264 170 268.5 c 128,-1,93
 174 273 174 273 199 273 c 2,94,-1
 227 273 l 1,95,-1
 225 282 l 2,96,97
 218 310 218 310 218 364 c 128,-1,98
 218 418 218 418 225 437 c 1,99,-1
 228 444 l 1,100,-1
 398 444 l 1,101,-1
 568 444 l 1,102,-1
 566 453 l 2,103,104
 559 480 559 480 559 533 c 128,-1,105
 559 586 559 586 566 607 c 1,106,-1
 569 614 l 1,107,-1
 426 615 l 1,108,-1
 283 616 l 1,109,-1
 281 624 l 2,110,111
 274 650 274 650 274.5 705.5 c 128,-1,112
 275 761 275 761 282 779 c 2,0,-1
339 1461 m 1,113,-1
 341 1468 l 1,114,-1
 483 1468 l 2,115,116
 624 1468 624 1468 627 1465 c 1,117,118
 632 1456 632 1456 634.5 1406.5 c 128,-1,119
 637 1357 637 1357 633 1332 c 0,120,121
 632 1330 632 1330 631 1322 c 128,-1,122
 630 1314 630 1314 630 1313 c 0,123,124
 628 1301 628 1301 627 1300 c 1,125,-1
 650.514 1297.03 l 1,126,-1
 654 1297 l 2,127,128
 682 1297 682 1297 684 1295 c 0,129,130
 689 1286 689 1286 691.5 1236.5 c 128,-1,131
 694 1187 694 1187 690 1162 c 0,132,133
 689 1160 689 1160 688 1152 c 128,-1,134
 687 1144 687 1144 687 1142 c 0,135,136
 685 1130 685 1130 684 1129 c 0,137,138
 681 1126 681 1126 654 1126 c 0,139,140
 625 1126 625 1126 627 1124 c 0,141,142
 635 1110 635 1110 634.5 1038 c 128,-1,143
 634 966 634 966 626 958 c 0,144,145
 624 956 624 956 482 956 c 2,146,-1
 340 957 l 1,147,-1
 338 965 l 2,148,149
 331 990 331 990 331 1044 c 128,-1,150
 331 1098 331 1098 338 1118 c 2,151,-1
 341 1126 l 1,152,-1
 312 1127 l 1,153,-1
 283 1128 l 1,154,-1
 281 1136 l 1,155,156
 269 1179 269 1179 277 1258 c 0,157,158
 280 1288 280 1288 284 1292.5 c 128,-1,159
 288 1297 288 1297 313 1297 c 2,160,-1
 341 1297 l 1,161,-1
 338 1306 l 1,162,163
 331 1333 331 1333 331.5 1387.5 c 128,-1,164
 332 1442 332 1442 339 1461 c 1,113,-1
566 1289 m 2,165,-1
 569 1297 l 1,166,-1
 483 1297 l 2,167,168
 460 1297 460 1297 440.5 1296.5 c 128,-1,169
 421 1296 421 1296 410 1295.5 c 2,170,-1
 399 1295 l 1,171,172
 408 1279 408 1279 408 1213 c 0,173,174
 408 1145 408 1145 399 1129 c 1,175,-1
 403 1128.5 l 2,176,177
 407 1128 407 1128 415 1127.5 c 128,-1,178
 423 1127 423 1127 433 1126.5 c 128,-1,179
 443 1126 443 1126 456.5 1126 c 128,-1,180
 470 1126 470 1126 483 1126 c 2,181,-1
 568 1126 l 1,182,-1
 566 1136 l 1,183,184
 559 1163 559 1163 559 1215.5 c 128,-1,185
 559 1268 559 1268 566 1289 c 2,165,-1
EndSplineSet
EndChar

StartChar: colon
Encoding: 58 58 56
Width: 851
VWidth: 0
Flags: W
HStem: -67 340<341 568.91> 616 340<341 568.91>
VStem: 338 235<-65.7377 267 617.262 955.505>
LayerCount: 2
Back
Fore
SplineSet
339 267 m 2,0,-1
 341 273 l 1,1,-1
 455 273 l 2,2,3
 568 273 568 273 570 271 c 0,4,5
 575 262 575 262 577.5 212.5 c 128,-1,6
 580 163 580 163 576 138 c 0,7,8
 575 135 575 135 574 127.5 c 128,-1,9
 573 120 573 120 573 118 c 0,10,11
 571 102 571 102 573 90 c 0,12,13
 580 59 580 59 578.5 0.5 c 128,-1,14
 577 -58 577 -58 569 -66 c 0,15,16
 567 -68 567 -68 454 -68 c 2,17,-1
 340 -67 l 1,18,-1
 338 -59 l 2,19,20
 331 -34 331 -34 331 20 c 128,-1,21
 331 74 331 74 338 94 c 0,22,23
 341 104 341 104 339 112 c 0,24,25
 332 140 332 140 332 194 c 128,-1,26
 332 248 332 248 339 267 c 2,0,-1
339 949 m 1,27,-1
 341 956 l 1,28,-1
 455 956 l 2,29,30
 567 956 567 956 570 953 c 1,31,32
 575 944 575 944 577.5 894.5 c 128,-1,33
 580 845 580 845 576 820 c 0,34,35
 575 817 575 817 574 810 c 128,-1,36
 573 803 573 803 573 801 c 0,37,38
 571 785 571 785 573 772 c 0,39,40
 580 741 580 741 578.5 683 c 128,-1,41
 577 625 577 625 569 617 c 0,42,43
 567 615 567 615 454 615 c 2,44,-1
 340 616 l 1,45,-1
 338 624 l 2,46,47
 331 650 331 650 331 703.5 c 128,-1,48
 331 757 331 757 338 777 c 1,49,50
 340 787 340 787 339 794 c 0,51,52
 332 822 332 822 332 876 c 128,-1,53
 332 930 332 930 339 949 c 1,27,-1
EndSplineSet
EndChar

StartChar: uni00B9
Encoding: 185 185 57
Width: 851
VWidth: 0
Flags: W
HStem: 956 170<340 398>
VStem: 333 188<957.125 1121.87> 388 133<446.231 954.891 1126.16 1291>
LayerCount: 2
Back
Fore
SplineSet
396 1291 m 2,0,-1
 398 1297 l 1,1,-1
 455 1297 l 2,2,3
 511 1297 511 1297 513 1295 c 0,4,5
 514 1294 514 1294 516 1283 c 0,6,7
 529 1211 529 1211 516 1139 c 0,8,9
 514 1126 514 1126 516 1114 c 0,10,11
 521 1088 521 1088 521 1041 c 128,-1,12
 521 994 521 994 516 969 c 0,13,14
 514 956 514 956 516 943 c 0,15,16
 521 917 521 917 521 870.5 c 128,-1,17
 521 824 521 824 516 798 c 0,18,19
 514 785 514 785 516 772 c 0,20,21
 521 746 521 746 521 699 c 128,-1,22
 521 652 521 652 516 627 c 0,23,24
 514 614 514 614 516 602 c 0,25,26
 523 571 523 571 521.5 512 c 128,-1,27
 520 453 520 453 513 446 c 0,28,29
 511 444 511 444 454 444 c 2,30,-1
 397 445 l 1,31,-1
 395 453 l 2,32,33
 388 478 388 478 388 532 c 128,-1,34
 388 586 388 586 395 606 c 0,35,36
 397 614 397 614 395 624 c 0,37,38
 388 651 388 651 388 703.5 c 128,-1,39
 388 756 388 756 395 777 c 0,40,41
 397 785 397 785 395 794 c 0,42,43
 388 821 388 821 388 874 c 128,-1,44
 388 927 388 927 395 948 c 1,45,-1
 398 955 l 1,46,-1
 369 956 l 1,47,-1
 340 957 l 1,48,-1
 338 965 l 1,49,50
 325 1011 325 1011 333 1088 c 0,51,52
 336 1118 336 1118 340 1122 c 128,-1,53
 344 1126 344 1126 369 1126 c 2,54,-1
 398 1126 l 1,55,-1
 395 1136 l 1,56,57
 388 1163 388 1163 388.5 1217.5 c 128,-1,58
 389 1272 389 1272 396 1291 c 2,0,-1
EndSplineSet
EndChar

StartChar: Ccedilla
Encoding: 199 199 58
Width: 851
VWidth: 0
Flags: W
HStem: -408 169<284 455> -68 170<341.974 455 570.016 625> 102 171<684.109 797.893> 786 170.5<284 284 684.109 805.006> 956 170<341.974 625>
VStem: 104 189<275.355 780.353> 168 174<104.125 270.678 785 949> 274.5 417.5<-66.875 99.5493 958.069 1123.68> 274.5 190.5<-406.736 -239.094> 445 132.5<-236.734 -71.4517> 616 183<105.016 267 787.069 955.875>
LayerCount: 2
Back
Fore
SplineSet
282 -245 m 2,0,-1
 284 -239 l 1,1,-1
 370 -239 l 1,2,-1
 455 -239 l 1,3,-1
 458 -245 l 1,4,5
 466 -265 466 -265 465 -332 c 128,-1,6
 464 -399 464 -399 456 -407 c 0,7,8
 454 -409 454 -409 368 -409 c 1,9,-1
 283 -408 l 1,10,-1
 281 -400 l 2,11,12
 274 -374 274 -374 274.5 -318.5 c 128,-1,13
 275 -263 275 -263 282 -245 c 2,0,-1
282 1120 m 2,14,-1
 284 1126 l 1,15,-1
 483 1126 l 2,16,17
 682 1126 682 1126 684 1124 c 0,18,19
 690 1114 690 1114 692 1065 c 128,-1,20
 694 1016 694 1016 690 988 c 0,21,22
 685 960 685 960 684 958 c 1,23,-1
 691 957.5 l 2,24,25
 698 957 698 957 711 956.5 c 128,-1,26
 724 956 724 956 739 956 c 0,27,28
 795 956 795 956 798 953 c 1,29,30
 804 943 804 943 806 894.5 c 128,-1,31
 808 846 808 846 804 818 c 0,32,33
 799 789 799 789 797 787 c 0,34,35
 796 786 796 786 710 786 c 2,36,-1
 625 786 l 1,37,-1
 623 794 l 2,38,39
 616 820 616 820 616 874 c 128,-1,40
 616 928 616 928 623 948 c 1,41,-1
 625 956 l 1,42,-1
 483 956 l 2,43,44
 447 956 447 956 412.5 955.5 c 128,-1,45
 378 955 378 955 359.5 954.5 c 128,-1,46
 341 954 341 954 342 953 c 0,47,48
 351 937 351 937 351 872 c 0,49,50
 351 803 351 803 342 787 c 0,51,52
 340 785 340 785 313 785 c 0,53,54
 284 785 284 785 286 783 c 0,55,56
 293 772 293 772 293.5 714 c 128,-1,57
 294 656 294 656 288 627 c 0,58,59
 286 614 286 614 288 602 c 0,60,61
 293 576 293 576 293 529 c 128,-1,62
 293 482 293 482 288 457 c 0,63,64
 286 444 286 444 288 431 c 1,65,66
 295 401 295 401 294 343.5 c 128,-1,67
 293 286 293 286 286 275 c 0,68,69
 284 273 284 273 313 273 c 0,70,71
 340 273 340 273 342 271 c 0,72,73
 348 261 348 261 350 212.5 c 128,-1,74
 352 164 352 164 348 135 c 0,75,76
 344 108 344 108 342 105 c 0,77,78
 341 104 341 104 359.5 103.5 c 128,-1,79
 378 103 378 103 412.5 102.5 c 128,-1,80
 447 102 447 102 483 102 c 2,81,-1
 625 102 l 1,82,-1
 623 112 l 1,83,84
 616 140 616 140 616 194 c 128,-1,85
 616 248 616 248 623 267 c 1,86,-1
 626 273 l 1,87,-1
 711 273 l 2,88,89
 796 273 796 273 798 271 c 0,90,91
 804 261 804 261 806 212 c 128,-1,92
 808 163 808 163 803 135 c 0,93,94
 802 130 802 130 801.5 126 c 128,-1,95
 801 122 801 122 800.5 119.5 c 128,-1,96
 800 117 800 117 799.5 114.5 c 128,-1,97
 799 112 799 112 799 110.5 c 128,-1,98
 799 109 799 109 799 108 c 128,-1,99
 799 107 799 107 798.5 106 c 2,100,-1
 798 105 l 1,101,102
 795 102 795 102 739 102 c 0,103,104
 724 102 724 102 711 101.5 c 128,-1,105
 698 101 698 101 691 100.5 c 2,106,-1
 684 100 l 1,107,108
 692 86 692 86 692 18 c 0,109,110
 692 -52 692 -52 684 -66 c 0,111,112
 682 -68 682 -68 625 -68 c 0,113,114
 619 -68 619 -68 612.5 -68 c 128,-1,115
 606 -68 606 -68 600.5 -68.5 c 128,-1,116
 595 -69 595 -69 590 -69 c 128,-1,117
 585 -69 585 -69 581.5 -69.5 c 128,-1,118
 578 -70 578 -70 575 -70 c 128,-1,119
 572 -70 572 -70 571 -70.5 c 2,120,-1
 570 -71 l 1,121,122
 578 -85 578 -85 577.5 -157 c 128,-1,123
 577 -229 577 -229 569 -237 c 0,124,125
 568 -238 568 -238 511 -238 c 2,126,-1
 454 -238 l 1,127,-1
 452 -230 l 2,128,129
 445 -204 445 -204 445 -150 c 128,-1,130
 445 -96 445 -96 452 -76 c 2,131,-1
 455 -68 l 1,132,-1
 369 -68 l 1,133,-1
 283 -67 l 1,134,-1
 281 -59 l 2,135,136
 274 -33 274 -33 274.5 21 c 128,-1,137
 275 75 275 75 282 95 c 1,138,-1
 284 102 l 1,139,-1
 227 103 l 1,140,-1
 170 104 l 1,141,-1
 167 112 l 1,142,143
 160 138 160 138 160.5 191.5 c 128,-1,144
 161 245 161 245 168 265 c 1,145,-1
 170 273 l 1,146,-1
 142 274 l 1,147,-1
 113 274 l 1,148,-1
 111 282 l 2,149,150
 104 308 104 308 104 362 c 128,-1,151
 104 416 104 416 111 436 c 0,152,153
 113 444 113 444 111 453 c 0,154,155
 104 480 104 480 104 532.5 c 128,-1,156
 104 585 104 585 111 606 c 0,157,158
 113 614 113 614 111 624 c 0,159,160
 98 671 98 671 106 746 c 0,161,162
 109 776 109 776 113 780.5 c 128,-1,163
 117 785 117 785 142 785 c 2,164,-1
 170 785 l 1,165,-1
 168 794 l 2,166,167
 161 822 161 822 161 876 c 128,-1,168
 161 930 161 930 168 949 c 1,169,-1
 171 956 l 1,170,-1
 227 956 l 1,171,-1
 284 956 l 1,172,-1
 281 965 l 1,173,174
 274 992 274 992 274.5 1046.5 c 128,-1,175
 275 1101 275 1101 282 1120 c 2,14,-1
EndSplineSet
EndChar

StartChar: Edieresis
Encoding: 203 203 59
Width: 851
VWidth: 0
Flags: W
HStem: -68 170.5<398.974 747.475> 444 170.5<399.019 748.104> 954.5 171.5<398.974 748.104> 1298 170<228 398.887 569 740.886>
VStem: 218 189<105.387 443.859 617.355 952.645 1299.03 1461> 559 185<1299.06 1461>
LayerCount: 2
Back
Fore
SplineSet
225 1120 m 1,0,-1
 228 1126 l 1,1,-1
 483 1126 l 2,2,3
 739 1126 739 1126 741 1124 c 0,4,5
 747 1114 747 1114 749 1065 c 128,-1,6
 751 1016 751 1016 747 988 c 0,7,8
 742 960 742 960 741 958 c 0,9,10
 739 956 739 956 569 956 c 0,11,12
 525 956 525 956 484 955.5 c 128,-1,13
 443 955 443 955 420.5 954.5 c 128,-1,14
 398 954 398 954 399 953 c 0,15,16
 406 942 406 942 407 884.5 c 128,-1,17
 408 827 408 827 402 798 c 0,18,19
 400 785 400 785 402 772 c 1,20,21
 409 742 409 742 408 685 c 128,-1,22
 407 628 407 628 399 617 c 0,23,24
 398 616 398 616 420.5 615.5 c 128,-1,25
 443 615 443 615 484 614.5 c 128,-1,26
 525 614 525 614 569 614 c 0,27,28
 739 614 739 614 741 612 c 0,29,30
 747 602 747 602 749 553 c 128,-1,31
 751 504 751 504 747 476 c 0,32,33
 742 448 742 448 741 446 c 0,34,35
 739 444 739 444 569 444 c 2,36,-1
 399 444 l 1,37,-1
 401 435 l 1,38,39
 408 411 408 411 407.5 349.5 c 128,-1,40
 407 288 407 288 400 276 c 0,41,42
 399 275 399 275 399.5 271.5 c 128,-1,43
 400 268 400 268 401 264 c 0,44,45
 408 239 408 239 407 178 c 128,-1,46
 406 117 406 117 399 105 c 0,47,48
 398 104 398 104 420.5 103.5 c 128,-1,49
 443 103 443 103 484 102.5 c 128,-1,50
 525 102 525 102 569 102 c 0,51,52
 739 102 739 102 741 100 c 0,53,54
 746 91 746 91 748.5 41.5 c 128,-1,55
 751 -8 751 -8 747 -33 c 0,56,57
 746 -36 746 -36 745 -43.5 c 128,-1,58
 744 -51 744 -51 744 -53 c 0,59,60
 742 -64 742 -64 740 -66 c 128,-1,61
 738 -68 738 -68 482 -68 c 2,62,-1
 226 -67 l 1,63,-1
 224 -59 l 2,64,65
 217 -33 217 -33 217.5 20.5 c 128,-1,66
 218 74 218 74 225 94 c 0,67,68
 227 102 227 102 225 112 c 0,69,70
 218 139 218 139 218 191.5 c 128,-1,71
 218 244 218 244 225 265 c 0,72,73
 227 273 227 273 225 282 c 0,74,75
 218 309 218 309 218 362 c 128,-1,76
 218 415 218 415 225 436 c 0,77,78
 227 444 227 444 225 453 c 0,79,80
 218 480 218 480 218 532.5 c 128,-1,81
 218 585 218 585 225 606 c 0,82,83
 227 614 227 614 225 624 c 0,84,85
 218 651 218 651 218 703.5 c 128,-1,86
 218 756 218 756 225 777 c 0,87,88
 227 785 227 785 225 794 c 0,89,90
 218 821 218 821 218 874 c 128,-1,91
 218 927 218 927 225 948 c 0,92,93
 227 956 227 956 225 965 c 0,94,95
 218 993 218 993 218 1047 c 128,-1,96
 218 1101 218 1101 225 1120 c 1,0,-1
566 1461 m 2,97,-1
 569 1468 l 1,98,-1
 654 1468 l 2,99,100
 738 1468 738 1468 741 1465 c 1,101,102
 746 1456 746 1456 748.5 1406.5 c 128,-1,103
 751 1357 751 1357 747 1332 c 0,104,105
 746 1329 746 1329 745 1322 c 128,-1,106
 744 1315 744 1315 744 1313 c 0,107,108
 742 1301 742 1301 740 1299 c 0,109,110
 739 1298 739 1298 653 1298 c 2,111,-1
 568 1298 l 1,112,-1
 566 1306 l 2,113,114
 559 1332 559 1332 559 1387.5 c 128,-1,115
 559 1443 559 1443 566 1461 c 2,97,-1
225 1461 m 2,116,-1
 228 1468 l 1,117,-1
 313 1468 l 2,118,119
 396 1468 396 1468 399 1465 c 1,120,121
 404 1456 404 1456 407 1406.5 c 128,-1,122
 410 1357 410 1357 406 1332 c 0,123,124
 406 1331 406 1331 404.5 1323.5 c 128,-1,125
 403 1316 403 1316 402 1313 c 0,126,127
 400 1300 400 1300 399 1299 c 128,-1,128
 398 1298 398 1298 311 1298 c 2,129,-1
 226 1298 l 1,130,-1
 224 1306 l 2,131,132
 217 1332 217 1332 217.5 1387.5 c 128,-1,133
 218 1443 218 1443 225 1461 c 2,116,-1
EndSplineSet
EndChar

StartChar: acute
Encoding: 180 180 60
Width: 851
VWidth: 0
Flags: W
HStem: 1298 170<284 455> 1469 169<455 625.917>
VStem: 274.5 190.5<1299.26 1467.89> 452 175<1470.06 1632>
LayerCount: 2
Back
Fore
SplineSet
282 1461 m 1,0,-1
 284 1468 l 1,1,-1
 370 1468 l 1,2,-1
 455 1468 l 1,3,-1
 458 1461 l 2,4,5
 466 1441 466 1441 465 1374 c 128,-1,6
 464 1307 464 1307 456 1299 c 0,7,8
 455 1298 455 1298 368 1298 c 2,9,-1
 283 1298 l 1,10,-1
 281 1306 l 2,11,12
 274 1332 274 1332 274.5 1387.5 c 128,-1,13
 275 1443 275 1443 282 1461 c 1,0,-1
453 1632 m 2,14,-1
 455 1638 l 1,15,-1
 540 1638 l 2,16,17
 625 1638 625 1638 627 1636 c 0,18,19
 632 1627 632 1627 634.5 1577.5 c 128,-1,20
 637 1528 637 1528 633 1503 c 0,21,22
 632 1500 632 1500 631 1492.5 c 128,-1,23
 630 1485 630 1485 630 1483 c 0,24,25
 628 1472 628 1472 626 1470 c 128,-1,26
 624 1468 624 1468 539 1468 c 2,27,-1
 454 1469 l 1,28,-1
 452 1477 l 2,29,30
 445 1503 445 1503 445.5 1558.5 c 128,-1,31
 446 1614 446 1614 453 1632 c 2,14,-1
EndSplineSet
EndChar

StartChar: iacute
Encoding: 237 237 61
Width: 851
VWidth: 0
Flags: W
HStem: -67 169<228 398 570 748.104> 616 169<284 398> 957 169<341 454.297> 1126 171<513.039 626.894>
VStem: 331.5 189.5<958.266 1123.55> 388 190<105.355 613.891> 452 175<1129.03 1291>
LayerCount: 2
Back
Fore
SplineSet
282 779 m 2,0,-1
 284 785 l 1,1,-1
 427 785 l 2,2,3
 568 785 568 785 570 783 c 0,4,5
 571 782 571 782 573 771 c 0,6,7
 586 699 586 699 573 627 c 0,8,9
 571 614 571 614 573 602 c 0,10,11
 578 576 578 576 578 529 c 128,-1,12
 578 482 578 482 573 457 c 0,13,14
 571 444 571 444 573 431 c 0,15,16
 578 405 578 405 578 358.5 c 128,-1,17
 578 312 578 312 573 286 c 0,18,19
 571 273 571 273 573 260 c 1,20,21
 580 230 580 230 579 173 c 128,-1,22
 578 116 578 116 570 105 c 1,23,-1
 574 104.5 l 2,24,25
 578 104 578 104 586 103.5 c 128,-1,26
 594 103 594 103 604 102.5 c 128,-1,27
 614 102 614 102 627.5 102 c 128,-1,28
 641 102 641 102 654 102 c 0,29,30
 739 102 739 102 741 100 c 0,31,32
 747 90 747 90 749 41 c 128,-1,33
 751 -8 751 -8 747 -36 c 0,34,35
 742 -64 742 -64 740 -66 c 128,-1,36
 738 -68 738 -68 482 -68 c 2,37,-1
 226 -67 l 1,38,-1
 224 -59 l 2,39,40
 217 -33 217 -33 217.5 22.5 c 128,-1,41
 218 78 218 78 225 96 c 1,42,-1
 228 102 l 1,43,-1
 313 102 l 1,44,-1
 398 102 l 1,45,-1
 395 112 l 1,46,47
 388 139 388 139 388 191.5 c 128,-1,48
 388 244 388 244 395 265 c 0,49,50
 397 273 397 273 395 282 c 0,51,52
 388 309 388 309 388 362 c 128,-1,53
 388 415 388 415 395 436 c 0,54,55
 397 444 397 444 395 453 c 0,56,57
 388 480 388 480 388 533 c 128,-1,58
 388 586 388 586 395 607 c 1,59,-1
 398 614 l 1,60,-1
 341 615 l 1,61,-1
 283 616 l 1,62,-1
 281 624 l 2,63,64
 274 650 274 650 274.5 705.5 c 128,-1,65
 275 761 275 761 282 779 c 2,0,-1
453 1291 m 2,66,-1
 455 1297 l 1,67,-1
 540 1297 l 2,68,69
 625 1297 625 1297 627 1295 c 0,70,71
 632 1286 632 1286 634.5 1236.5 c 128,-1,72
 637 1187 637 1187 633 1162 c 0,73,74
 632 1160 632 1160 631 1152 c 128,-1,75
 630 1144 630 1144 630 1142 c 0,76,77
 628 1130 628 1130 627 1129 c 0,78,79
 624 1126 624 1126 569 1126 c 0,80,81
 560 1126 560 1126 551.5 1126 c 128,-1,82
 543 1126 543 1126 536 1125.5 c 128,-1,83
 529 1125 529 1125 523.5 1125 c 128,-1,84
 518 1125 518 1125 515.5 1124.5 c 2,85,-1
 513 1124 l 1,86,87
 521 1110 521 1110 521 1038 c 128,-1,88
 521 966 521 966 513 958 c 0,89,90
 511 956 511 956 425 956 c 1,91,-1
 340 957 l 1,92,-1
 338 965 l 2,93,94
 331 991 331 991 331.5 1046.5 c 128,-1,95
 332 1102 332 1102 339 1120 c 2,96,-1
 341 1126 l 1,97,-1
 398 1126 l 1,98,-1
 455 1126 l 1,99,-1
 452 1136 l 1,100,101
 445 1163 445 1163 445.5 1217.5 c 128,-1,102
 446 1272 446 1272 453 1291 c 2,66,-1
EndSplineSet
EndChar

